<?xml version="1.0" encoding="utf-8"?>
<!-- Generator: Adobe Illustrator 26.2.1, SVG Export Plug-In . SVG Version: 6.00 Build 0)  -->
<svg version="1.1" id="Layer_1" xmlns="http://www.w3.org/2000/svg" xmlns:xlink="http://www.w3.org/1999/xlink" x="0px" y="0px"
	 viewBox="0 0 47.6 188.3" style="enable-background:new 0 0 47.6 188.3;" xml:space="preserve">
<style type="text/css">
	.st0{fill:#000;}
	.st1{fill:#000;stroke:#000;stroke-miterlimit:10;}
</style>
<g>
	<path class="st1" d="M0.5,173.2c0-0.1,0.1-0.2,0.1-0.3c0-0.5,0-1.1,0-1.6c0-0.7,0-1.5,0-2.2c0-0.3,0-0.5,0.1-0.8
		c0-0.6,0-1.3,0.1-1.9c0-0.7,0-1.3,0.1-2c0-0.5,0-1,0.1-1.4c0-0.7,0-1.4,0.1-2.1c0-0.5,0-1,0.1-1.6c0-0.7,0-1.3,0.1-2
		c0-0.6,0-1.3,0.1-1.9c0-0.6,0-1.1,0.1-1.7c0-0.6,0-1.2,0.1-1.7c0-0.6,0-1.2,0.1-1.8c0-0.8,0-1.5,0.1-2.3c0-0.5,0.1-1,0.1-1.6
		c0-0.7,0-1.3,0.1-2c0-0.6,0.1-1.1,0.1-1.7c0-0.6,0-1.2,0-1.8c0-0.4,0.1-0.9,0.1-1.3c0-0.6,0-1.3,0.1-1.9c0-0.8,0-1.5,0.1-2.3
		c0-0.5,0-1,0-1.5c0-0.7,0-1.3,0.1-2c0-0.8,0.1-1.5,0.1-2.3c0.1-0.8,0.2-1.7,0.3-2.5c0.1-0.6,0.1-1.3,0.1-2c0-1,0-2.1,0.1-3.1
		c0-0.7,0-1.4,0.1-2.2c0-0.6,0-1.2,0.1-1.9c0-0.7,0-1.3,0.1-2c0-0.6,0-1.2,0.1-1.7c0-0.7,0-1.3,0.1-2c0-0.8,0-1.7,0.1-2.5
		c0.1-0.8,0.2-1.6,0.3-2.4c0-0.4,0-0.8,0.1-1.2c0-0.9,0.1-1.9,0.1-2.8c0-0.4-0.1-0.8-0.1-1.2c0-0.4,0-0.7,0.1-1.1
		c0-0.7,0-1.5,0.1-2.2c0-0.7,0-1.4,0.1-2.1c0-0.4,0.1-0.8,0.1-1.3c0-1,0.1-2,0.2-3c0-0.7-0.2-1.5-0.3-2.2c0-0.3-0.1-0.6-0.1-0.8
		c0-0.6-0.1-1.2-0.1-1.7c0-0.2,0.1-0.3,0.1-0.5c0-0.6,0-1.1,0-1.7c0-0.8,0.1-1.7,0.1-2.5c0-0.3,0-0.5,0-0.8c0-0.6,0-1.2,0-1.8
		c0-0.7-0.1-1.3-0.1-2c0-0.8,0-1.6,0-2.3c0-0.7,0.1-1.4,0.1-2.1c0-0.5,0-1,0.1-1.5c0.1-0.7,0.1-1.4,0.2-2.1c0.1-0.7,0.1-1.3,0.1-2
		c0.1-0.6,0.1-1.2,0.2-1.8c0-0.3,0-0.6,0.1-0.9c0.1-0.7,0.1-1.4,0.2-2.1c0-0.4,0-0.7,0.1-1.1c0.1-0.6,0.1-1.2,0.2-1.8
		C4.9,59.9,5,59.2,5,58.5c0.1-0.7,0.1-1.3,0.1-2c0-0.8,0.1-1.6,0.1-2.4c0-1.2,0.1-2.4,0.1-3.7c0-0.5-0.1-1.1-0.1-1.6
		c0-0.5,0-1,0-1.6c0-0.5-0.1-1-0.1-1.4c0-0.1,0.1-0.3,0.1-0.4c0-0.8,0-1.6-0.1-2.4c0-0.2,0-0.5,0-0.7c0-0.9-0.1-1.7-0.1-2.6
		c0-0.9,0-1.9,0.1-2.8c0-0.5,0-1,0-1.4c0-0.4,0.1-0.9,0.1-1.3c0-0.5,0-1,0-1.5c0-0.4,0-0.8,0.1-1.2c0-0.5,0.1-1.1,0.1-1.6
		c0-0.6,0-1.2,0-1.8c0-0.6-0.1-1.3-0.1-1.9c0-0.9,0.1-1.8,0.2-2.6c0.1-0.7,0.1-1.4,0.1-2c0.1-0.7,0.1-1.4,0.2-2c0-0.4,0-0.7,0.1-1.1
		c0.1-0.6,0.1-1.2,0.2-1.8c0-0.4,0-0.8,0-1.2C6,15.3,6,15.1,6,15c0-0.7,0-1.4,0-2c0-0.8,0-1.6,0.1-2.4c0-0.7,0-1.3,0.1-2
		c0-0.7,0-1.4,0.1-2.1c0-0.7,0-1.5,0.1-2.2c0.1-0.7,0.4-1.3,1-1.7c0.5-0.3,1.1-0.5,1.6-0.6c0.5-0.1,0.9,0,1.4,0.1
		c0.5,0.1,1,0.2,1.4,0.2c1.1,0,2.2,0,3.3,0c1.3,0,2.5-0.2,3.7-0.5c0.6-0.2,1.3-0.3,1.9-0.3c0.9,0,1.8-0.1,2.7-0.2
		c0.8-0.1,1.5-0.1,2.3-0.2c0.5,0,1.1-0.1,1.6-0.2c0.4,0,0.8,0,1.2-0.1c0.4-0.1,0.9-0.2,1.3-0.3c0.3-0.1,0.5-0.2,0.7,0.2
		c0,0.1,0.2,0.1,0.3,0.1c1,0,2.1,0,3.1-0.1c0.4,0,0.9,0,1.3,0c0.7,0,1.4,0.1,2.1,0.1C38.2,1,38.6,1.5,39,2.1
		c0.4,0.7,0.5,1.5,0.5,2.3c-0.1,0.7-0.2,1.3-0.2,2c0,1.1,0,2.2,0,3.3c0,0.8,0,1.6-0.1,2.3c0,0.6,0,1.2-0.1,1.7
		c0,0.9-0.1,1.7-0.1,2.6c0,0.4,0.1,0.8,0.4,1.1c0.6,0.7,1.3,1.3,2,1.9c0.6,0.5,1.3,0.5,2,0.3c0.3-0.1,0.6-0.1,1-0.2
		c0.7-0.1,1.5-0.2,2.2,0c0.1,0,0.2,0.1,0.3,0.1c0.2,0.1,0.3,0.3,0.1,0.5c-0.4,0.5-0.3,1-0.3,1.5c0,0.4,0,0.7-0.1,1.1
		c0,0.2,0,0.4-0.1,0.6c-0.2,0.6-0.8,0.7-1.3,0.8c-0.9,0.1-1.7,0.2-2.5,0.7c-0.6,0.4-1.1,0.8-1,1.7c0,0.7,0,1.5,0,2.2
		c0,0.7,0.1,1.5,0.1,2.2c0,0.1-0.1,0.3-0.1,0.4c0,0.6,0.1,1.1,0.1,1.7c0,0.6-0.1,1.3-0.1,1.9c0,0.3,0,0.7-0.1,1
		c-0.1,0.7-0.1,1.4-0.2,2.1c-0.1,0.7-0.1,1.4-0.2,2.1c-0.1,0.7-0.2,1.4-0.3,2.1c0,0.5,0,0.9-0.1,1.4c-0.1,0.7-0.1,1.4-0.2,2.1
		c-0.1,1-0.1,2-0.1,2.9c0,0.7,0,1.4,0,2.1c0,0.4-0.1,0.9-0.1,1.3c0,0.5,0,1.1,0,1.6c0,0.6-0.1,1.2-0.1,1.7c0,1.5,0,3.1,0,4.6
		c0,0.8,0.2,1.7,0.3,2.5c0,0.4,0.1,0.8,0.1,1.3c0.1,0.6,0.1,1.2,0.2,1.9c0,0.5,0,1.1,0,1.6c0,0.7,0.1,1.4,0.1,2.1c0,0.1,0,0.2,0,0.3
		c0,0.4-0.1,0.9-0.1,1.3c0,0.9,0,1.7-0.1,2.6c0,0.4,0,0.8-0.1,1.2c0,0.7,0,1.3-0.1,2c0,0.7,0,1.4-0.1,2.2c0,0.7-0.1,1.4-0.1,2.1
		c0,0.6-0.1,1.3-0.1,1.9c0,0.9-0.1,1.8-0.1,2.7c0,0.4-0.1,0.7-0.1,1.1c0,0.5,0,1,0,1.5c0,0.4-0.1,0.9-0.1,1.3c0,0.6,0,1.2,0,1.8
		c0,0.6,0,1.1-0.1,1.7c0,0.3,0,0.6,0,0.9c0,1.2,0,2.3-0.1,3.5c0,0.6,0,1.1,0,1.7c0,0.6-0.1,1.3-0.1,1.9c0,0.4,0.1,0.9,0.1,1.3
		c0,0.6,0,1.1,0,1.7c0,0.4,0.1,0.7,0.1,1.1c0,1,0,1.9,0.1,2.9c0,0.4,0,0.9,0,1.3c0,0.2-0.1,0.4-0.1,0.6c0,0.6,0.1,1.2,0.1,1.9
		c0,0.5,0,1,0,1.6c0,0.6,0.1,1.2,0.1,1.8c0,0.4,0,0.7,0.1,1.1c0.1,0.7,0.1,1.4,0.2,2.1c0,0.4,0,0.9,0.1,1.3c0,0.5,0.1,1,0.1,1.4
		c0,0.3,0,0.6,0.1,0.9c0,0.8,0.1,1.6,0.1,2.4c0,0.9-0.1,1.8-0.2,2.7c0,0.5-0.1,0.9-0.1,1.4c-0.1,0.7-0.1,1.4-0.1,2
		c0,0.6-0.1,1.2-0.1,1.8c0,0.6,0,1.1,0,1.7c0,0.5-0.1,1-0.1,1.6c0,1.3,0,2.5,0,3.8c0,0.4,0,0.8,0,1.1c0,0.7,0.1,1.3,0.1,2
		c0,0.1-0.1,0.3-0.1,0.4c0,0.9,0,1.8,0.1,2.7c0,0.3,0,0.6,0,0.9c0,1.7,0,3.4,0.1,5c0,0.3,0,0.6-0.1,0.9c0,0.7,0,1.5-0.1,2.2
		c0,0.5-0.1,1-0.1,1.5c0,0.7,0.2,0.8,0.8,0.7c0.5-0.1,1-0.2,1.4-0.3c1-0.1,2.1,0.5,2.6,1.3c0.4,0.7,0.3,1.3,0,2
		c-0.4,1-1.2,1.6-2.3,1.8c-0.6,0.1-1.3,0.2-1.9,0.3c-0.2,0-0.4,0-0.6,0c-0.6,0.1-0.9,0.6-0.7,1.3c0,0.2,0,0.4-0.1,0.6
		c0,1.5,0,3.1,0,4.6c0,0.6-0.1,1.3-0.2,1.9c0,0.5-0.1,1.1-0.1,1.6c0,0.4-0.1,0.7-0.1,1.1c0,0.5,0,1.1,0,1.6c0,0.5-0.1,1.1-0.1,1.6
		c0,0.2,0,0.4,0,0.7c0,0.9-0.1,1.8-0.1,2.8c-0.1,0.7-0.1,0.7-1,0.9c-0.5,0.1-0.7,0.4-0.8,1c0,0.5,0,0.9,0,1.4c0,0.5-0.1,1-0.2,1.4
		c0,0.2-0.1,0.5,0.2,0.7c0.1,0.1,0.3,0.2,0.1,0.4c-0.2,0.2-0.2,0.5-0.4,0.7c0,0.1-0.1,0.1-0.2,0.1c-0.7-0.1-1.4,0-2,0.5
		c-0.3,0.2-0.8,0.3-1.2,0.3c-1.1,0-2.1,0-3.2,0c-0.9,0-1.7,0.1-2.6,0.2c-0.6,0-1.1,0.1-1.7,0.1c-0.8,0.1-1.6,0.2-2.4,0.3
		c-0.1,0-0.2-0.1-0.4-0.1c-0.8,0-1.5,0-2.3,0.1c-0.3,0-0.5,0-0.8,0c-1.5,0-3.1,0.1-4.6,0.1c-0.7,0-1.4,0-2.2-0.1
		c-0.7,0-1.4-0.1-2-0.1c-0.5,0-1-0.1-1.6-0.2c-0.5-0.1-1.1-0.1-1.6-0.1c-0.4,0-0.8-0.1-1.2-0.1c-0.2,0-0.4,0-0.6,0
		c-0.5,0-0.9,0-1.4,0c-1-0.1-2,0-2.7-0.8c-0.6-0.6-1.1-1.3-1.4-2.1c-0.2-0.6-0.4-1.2-0.6-1.8c0-0.1,0-0.2,0-0.3c0-0.9,0-1.8,0-2.6
		c0-0.1,0-0.2,0-0.3C0.5,177.2,0.5,175.2,0.5,173.2 M9.4,123.3c0,0.7,0,1.3,0,2c0,1,0,2-0.1,3c0,0.7,0,1.4,0,2.1c0,0.5,0,1,0,1.5
		c0,0.8-0.1,1.6-0.1,2.4c0,0.5,0,1.1,0,1.6c0,0.6,0,1.3-0.1,1.9c0,0.4,0,0.9,0,1.3c0,0.4,0,0.7,0,1.1c-0.1,0.5-0.2,1-0.3,1.5
		c-0.1,0.6-0.1,1.1-0.2,1.7c0,0.4-0.1,0.8-0.1,1.1c0,0.5,0,1,0,1.5c0,0.8-0.1,1.6-0.1,2.3c0,2.8,0,5.5,0,8.3c0,0.8,0,1.7,0,2.5
		c0,0.8,0,1.6,0,2.3c0,0.1,0,0.3,0.1,0.4c0,0.4,0,0.9,0.1,1.3c0,0.5,0.1,1,0.1,1.4c0,0.5-0.2,1.1-0.2,1.6c-0.1,1-0.1,1.9-0.2,2.9
		c0,0.2,0,0.5,0,0.7c-0.1,0.7-0.1,1.4-0.2,2c0,0.4-0.1,0.9-0.1,1.3c-0.1,0.8-0.2,1.5-0.3,2.3c-0.1,0.4-0.1,0.8-0.2,1.2
		c0,0.4-0.1,0.8-0.1,1.2c0.1,0.7,0.6,1.2,1.3,1.4c0.7,0.2,1.5,0.4,2.2,0.5c0.9,0.1,1.9,0.2,2.9,0.2c0.6,0,1.2,0,1.8-0.1
		c0.7,0,1.4-0.1,2.1-0.2c0.9-0.1,1.8-0.2,2.8-0.3c0.7,0,1.4,0,2.1-0.1c0.6,0,1.3-0.1,1.9-0.1c0.7,0,1.4-0.1,2.2-0.1
		c0.4,0,0.9,0,1.3-0.1c0.4,0,0.8-0.1,1.2-0.1c0.5,0,1,0,1.5-0.1c0.8-0.1,1.7-0.2,2.5-0.3c0.5-0.1,1-0.1,1.6-0.1
		c0.2,0,0.5-0.1,0.7-0.2c0.4-0.2,0.6-0.7,0.6-1.1c0-1.6,0-3.3,0-4.9c0-1.6,0-3.2,0-4.8c0-0.4,0-0.8,0.1-1.2c0-0.4,0.1-0.9,0.1-1.3
		c0-0.5,0-0.9,0.1-1.4c0-0.5,0.1-1,0.1-1.5c0.1-0.5,0.1-1.1,0.2-1.6c0.1-0.6,0.2-1.1,0.2-1.7c0-0.4,0-0.7,0.1-1.1
		c0.1-0.5,0.1-0.9,0.2-1.4c0.1-0.7,0.1-1.3,0.2-2c0-0.5,0.1-1,0.1-1.4c0-0.6,0-1.2,0-1.9c0-0.5,0-1.1,0.1-1.6c0-0.5,0-1,0.1-1.4
		c0-0.6,0-1.1,0.1-1.7c0-0.8,0.1-1.6,0.1-2.4c0-0.3,0-0.7,0-1.1c0-0.5,0.1-1,0.1-1.5c0-0.1-0.1-0.2-0.1-0.3c0-0.8,0.1-1.6,0.1-2.3
		c0-1.5,0-2.9,0-4.4c0-0.4,0-0.7-0.1-1.1c0-0.5,0-1-0.1-1.5c0-0.7,0-1.4-0.1-2.1c0-0.7,0-1.5-0.1-2.2c0-0.8,0-1.7-0.1-2.5
		c0-0.4-0.1-0.7-0.1-1.1c0-0.5,0-1,0-1.5c0-0.5-0.1-0.9-0.1-1.4c0-1.4,0-2.7,0.1-4.1c0-0.4,0-0.7,0-1.1c0-1,0-2,0-3
		c0-0.5-0.1-1.1-0.1-1.6c-0.1-0.7-0.1-1.5-0.2-2.2c-0.1-0.9-0.2-1.9-0.1-2.8c0-0.2,0-0.3,0-0.5c0-0.3,0.1-0.6,0.1-0.9
		c0.1-0.5,0.1-1,0.1-1.4c0.1-0.6,0.2-1.3,0.2-1.9c0-0.6,0-1.2,0-1.8c0-0.7,0.1-1.3,0.1-2c0-0.9,0.1-1.7,0.1-2.6c0-0.8,0-1.5-0.1-2.3
		c0-0.5,0-0.9-0.1-1.4c0-0.8-0.1-1.6-0.1-2.5c0-0.8,0-1.7,0-2.5c0-0.1-0.1-0.3-0.1-0.4c0.1-0.8,0.2-1.6,0.3-2.4c0.1-0.8,0-1.7,0-2.5
		c0-1,0-2,0.1-3c0.1-1.2,0.2-2.4,0.3-3.6c0-1.1,0-2.2-0.1-3.3c0-2.9-0.1-5.8-0.1-8.6c0-0.6,0.1-1.2,0.1-1.8c0-3,0.1-5.9,0.1-8.9
		c0-1.3,0-2.7-0.1-4c0-0.6,0-1.1,0.1-1.7c0-0.5,0-1.1,0.1-1.6c0-0.7,0.1-1.3,0.1-2c0-0.3,0-0.7,0-1c0-0.3,0.1-0.7,0.1-1
		c0-0.6,0-1.2,0-1.7c0-0.6,0.1-1.3,0.1-1.9c0-0.4,0-0.7,0.1-1.1c0-0.4,0.1-0.7,0.1-1.1c0-0.5,0-1.1,0-1.6c0-0.7,0.1-1.3,0.1-2
		c0-0.3,0-0.7,0-1c0-0.4,0.1-0.8,0.1-1.2c0-0.6,0-1.1,0-1.7c0-0.8,0.1-1.5,0.2-2.3c0-0.7,0.1-1.3,0.1-2c0-0.1-0.1-0.3-0.1-0.4
		c0-0.8,0.1-1.5,0.1-2.2c0-0.2,0-0.3,0.1-0.5c0-0.3,0.1-0.7-0.1-1c-0.3-0.4-1.3-1-1.8-0.8c-0.8,0.2-1.5,0.3-2.3,0.4
		c-1,0.1-2.1,0.3-3.1,0.4c-0.7,0.1-1.4,0.1-2,0.1c-0.7,0-1.3,0.1-2,0.1c-0.7,0-1.4,0.1-2.2,0.1c-0.9,0-1.8,0-2.8,0.1
		c-0.1,0-0.3,0-0.4,0c-0.8,0-1.6-0.1-2.3-0.1c-0.3,0-0.6,0-0.9,0.1c-0.4,0-0.8,0-1.2,0c-0.7,0.1-1.4,0.2-2.1,0.4
		c-0.3,0.1-0.6,0.1-0.8,0.2c-0.4,0.2-0.6,0.6-0.6,1.1c-0.1,0.4-0.1,0.9-0.1,1.3c-0.1,0.5-0.2,1-0.3,1.6c-0.1,0.5-0.1,0.9-0.1,1.4
		c0,0.4-0.1,0.7-0.1,1.1c0,0.6,0,1.2,0,1.7c0,0.6-0.1,1.2-0.1,1.8c0,0.2,0,0.3,0,0.5c0,0.8-0.1,1.6-0.1,2.4c0,1.2,0,2.4,0,3.7
		c0,1.8,0,3.5-0.1,5.3c0,0.6,0,1.3-0.1,1.9c0,0.5-0.1,1-0.1,1.5c0,0.4,0,0.8-0.1,1.2c0,0.6-0.1,1.2-0.1,1.8c0,0.4,0,0.9-0.1,1.3
		c0,0.4-0.1,0.8-0.1,1.2c0,0.6,0,1.2,0,1.7c0,0.9-0.1,1.7-0.2,2.6c0,0.4,0,0.8-0.1,1.1c0,0.4-0.1,0.8-0.1,1.1c0,0.4,0,0.7-0.1,1.1
		c0,0.3-0.1,0.6-0.1,0.8c-0.1,0.5-0.1,1.1-0.1,1.6c-0.1,0.8-0.2,1.5-0.3,2.3c-0.1,0.5-0.1,1.1-0.1,1.6c-0.1,0.6-0.2,1.2-0.2,1.8
		c0,0.6,0,1.2,0,1.8c0,0.9,0,1.8,0,2.7c0,0.1,0.1,0.3,0.1,0.4c0,0.6-0.1,1.1-0.1,1.7c0,0.3,0,0.5-0.1,0.8c-0.1,0.6-0.1,1.2-0.2,1.8
		c-0.1,0.5-0.1,1-0.1,1.5c0,0.5-0.1,0.9-0.1,1.4c0,0.4,0,0.8,0,1.3c-0.1,1.1-0.1,2.2-0.2,3.3c0,0.2,0.1,0.4,0.1,0.5
		c0,0.6,0,1.1,0,1.7c0,0.4,0.1,0.7,0.1,1.1c0,0.8,0,1.6-0.1,2.4c0,0.4,0,0.8,0,1.2c0,0.4,0,0.8-0.1,1.1c0,0.6-0.1,1.1-0.1,1.7
		c0,0.6-0.1,1.2-0.1,1.8c-0.1,0.7-0.2,1.3-0.2,2c-0.1,0.8-0.1,1.6-0.2,2.5c0,0.6-0.1,1.2-0.2,1.8c0,0.2,0,0.4-0.1,0.6
		c0,0.5-0.1,1-0.1,1.5c0,0.4,0,0.8-0.1,1.2c0,0.5-0.1,1.1-0.1,1.6c0,0.4,0,0.9-0.1,1.3c0,0.3-0.1,0.7-0.1,1c0,0.5,0,1.1,0,1.6
		c0,0.6-0.1,1.2-0.1,1.9c0,0.2,0,0.4,0,0.6c0,0.8,0,1.6-0.1,2.4c0,0.3,0,0.6,0,1c0,1.4,0,2.8-0.1,4.2c0,1.1,0,2.1,0,3.2
		C9.4,123.1,9.4,123.2,9.4,123.3 M2.1,167.3c0,0.2,0.1,0.4,0.1,0.6c0,0.5-0.1,1-0.1,1.5c0,0.1,0.1,0.2,0.1,0.3c0,0.7-0.1,1.3-0.1,2
		c0,0.1,0.1,0.3,0.1,0.4c0,0.7-0.1,1.4-0.1,2.2c0,0.2,0,0.5,0,0.7c0,0.7,0,1.5-0.1,2.2c0,0.3,0,0.6,0,1c0,1.4,0,2.8,0,4.2
		c0,0.8,0.2,0.8,0.8,1c0.1,0,0.2,0.1,0.3,0.1c0.8,0.2,1.5,0.5,2.3,0.6c0.9,0.2,1.9,0.3,2.9,0.4c1,0.1,1.9,0.2,2.9,0.2
		c0.5,0,1.1-0.1,1.6-0.1c0.7,0,1.5-0.1,2.2-0.1c0.7,0,1.4-0.1,2.1-0.1c0.7,0,1.4,0,2.1-0.1c0.4,0,0.8-0.1,1.2-0.1c0.6,0,1.3,0,1.9,0
		c0.3,0,0.5,0,0.8,0.1c0.3,0,0.6,0.1,0.8,0.1c0.7,0,1.4-0.1,2-0.1c0.6,0,1.2,0,1.8-0.1c0.7,0,1.3-0.1,2-0.2c0.6-0.1,1.1-0.1,1.7-0.1
		c0.6-0.1,1.2-0.1,1.9-0.2c0.4,0,0.6-0.2,0.7-0.6c0.1-0.4,0-0.9,0.1-1.3c0-0.2-0.1-0.4-0.3-0.4c-0.3,0-0.5,0-0.8,0
		c-0.4,0-0.8,0-1.2,0.1c-0.3,0-0.6,0.1-0.9,0.2c-0.6,0.1-1.2,0.1-1.8,0.1c-0.5,0-1,0.1-1.4,0.1c-1.3,0-2.7,0-4,0
		c-0.5,0-1.1,0-1.6,0.1c-0.6,0-1.2,0-1.7,0.1c-0.6,0-1.2,0-1.8,0.1c-0.6,0-1.2,0-1.8,0.1c-0.4,0-0.8,0.1-1.2,0.1c-0.5,0-1,0-1.5,0
		c-0.6,0-1.1,0.1-1.7,0.1c-0.6,0-1.1,0-1.7,0c-0.5,0-0.9-0.1-1.2-0.3c-0.9-0.6-1.7-1.2-2.5-1.8c-0.2-0.1-0.4-0.4-0.4-0.6
		c-0.1-0.3,0-0.6,0-0.9c0-0.6,0.1-1.3,0.1-1.9c0-0.1-0.1-0.3-0.1-0.4c0-0.6,0.1-1.3,0.1-1.9c0-0.1-0.1-0.2-0.1-0.3
		c0-0.5,0.1-1,0.1-1.5c0-0.1,0-0.2,0-0.4c0-0.4,0.1-0.8,0.1-1.2c0-0.5,0.1-1,0.1-1.6c0-0.4,0-0.7,0.1-1.1c0-0.5,0-0.9,0.1-1.4
		c0-0.4,0.1-0.9,0.1-1.3c0-0.5,0-1,0-1.5c0-0.6,0.1-1.1,0.1-1.7c0-0.1,0-0.2,0-0.4c0-0.7,0.1-1.4,0.1-2.2c0-0.1,0-0.3,0-0.4
		c0-0.7,0-1.4,0.1-2.1c0-0.5,0-1.1,0-1.6c0-0.9,0.1-1.9,0.1-2.8c0-2.1,0-4.1,0-6.2c0-0.6,0-1.1,0.1-1.7c0.1-1,0.2-1.9,0.3-2.9
		c0-0.2,0-0.5,0.1-0.7c0-0.3,0.1-0.5,0.1-0.8c0-0.5,0-1,0.1-1.5c0-0.4,0.1-0.8,0.1-1.2c0-0.6,0-1.2,0-1.7c0-0.4,0.1-0.9,0.1-1.3
		c0-0.1,0-0.2,0-0.4c0-0.5,0.1-0.9,0.1-1.4c0-0.6,0-1.2,0-1.9c0-0.6,0.1-1.2,0.1-1.7c0-0.1-0.1-0.3,0-0.4c0-0.7,0.1-1.5,0.1-2.2
		c0-0.5-0.1-0.9-0.1-1.4c0-0.9,0-1.8,0.1-2.7c0-0.5,0-1,0-1.4c0-1.3,0-2.6,0.1-4c0-0.3,0-0.6,0-1c0-1.3,0-2.6,0.1-3.9
		c0-0.3,0-0.5,0-0.8c0-0.4,0-0.7,0-1.1c0-0.6,0.1-1.1,0.1-1.7c0-0.1-0.1-0.2-0.1-0.4c0-0.5,0.1-1,0.1-1.4c0-0.1-0.1-0.2,0-0.4
		c0-0.6,0.1-1.2,0.1-1.8c0-0.1,0-0.2,0-0.3c0.1-0.5,0.1-1,0.2-1.6c0-0.5,0-1,0.1-1.5c0-0.2,0-0.4,0.1-0.6c0-0.5,0.1-1,0.1-1.6
		c0-0.4,0.1-0.7,0.1-1.1c0.1-0.7,0.2-1.4,0.3-2c0.1-0.5,0.1-0.9,0.1-1.4c0-0.5,0.1-1,0.1-1.5c0-0.7,0.1-1.4,0.1-2
		c0-1.5,0-3.1,0.1-4.6c0-0.4,0-0.8,0-1.2c0-1.4,0-2.7,0.1-4.1c0-0.1,0-0.2,0-0.4c0-0.7,0.1-1.5,0.1-2.2c0-0.2,0-0.3,0-0.5
		c0-0.9,0-1.7,0.1-2.6c0-0.4,0-0.8,0-1.1c0-0.5,0.1-1,0.1-1.5c0-0.1,0-0.2,0-0.3c0-0.5,0.1-1,0.1-1.4c0-0.1,0-0.2,0-0.3
		c0-0.4,0.1-0.8,0.1-1.2c0-0.5,0-1,0.1-1.5c0-0.6,0.1-1.3,0.1-1.9c0-0.7,0.1-1.3,0.1-2c0-0.8,0.1-1.6,0.1-2.4c0-0.5,0.1-1,0.1-1.5
		c0.1-0.6,0.1-1.3,0.2-1.9c0-0.4,0-0.8,0.1-1.3c0-0.2,0-0.5,0.1-0.7c0-0.3,0.1-0.6,0.1-0.9c0.1-0.5,0.1-1,0.1-1.5
		c0-0.4,0.1-0.8,0.1-1.3c0-0.6,0.1-1.1,0.1-1.7c0-0.6,0.1-1.2,0.2-1.8c0-0.2,0-0.5,0.1-0.7c0-0.5,0.1-1,0.1-1.5c0-0.4,0-0.9,0.1-1.3
		c0-0.3,0.1-0.6,0.1-0.9c0-0.5,0-0.9,0-1.4c0-0.5,0.1-1.1,0.1-1.6c0-0.4,0-0.8,0-1.2c0-0.7,0.1-1.3,0.1-2c0-0.5,0-0.9,0-1.4
		c0-0.6,0.1-1.2,0.1-1.8c0-0.1-0.1-0.2-0.1-0.4c0-0.8,0.1-1.6,0.1-2.4c0-0.2,0-0.4,0-0.7c0-0.9,0-1.8,0.1-2.7c0-0.3,0-0.5,0-0.8
		c0-1.1,0-2.2,0.1-3.2c0-0.4,0-0.7,0.1-1.1c0-0.6,0.1-1.1,0.1-1.7c0-0.4,0.1-0.8,0.1-1.1c0-0.3,0.1-0.6,0.1-0.9
		c0.1-0.9,0.5-1.6,1.3-2c1.1-0.5,2.2-0.8,3.4-0.8c1.1,0,2.2,0,3.3,0c0.4,0,0.9,0,1.3,0c0.8,0,1.6-0.1,2.4-0.1c0.5,0,1-0.1,1.6-0.1
		c0.6,0,1.2-0.1,1.8-0.1c0.5,0,1-0.1,1.4-0.1c0.2,0,0.5,0,0.7-0.1c0.7-0.1,1.4-0.1,2.1-0.2c0.4,0,0.8-0.1,1.1-0.1
		c0.4,0,0.7-0.1,1.1-0.1c0.2,0,0.5,0.1,0.7,0.1c0.5-0.1,1-0.2,1.5-0.4c0.4-0.1,0.8-0.4,0.8-0.9c0.1-0.4,0.1-0.8,0.1-1.3
		c0-0.5,0.1-1,0.1-1.5c0.1-0.6,0.1-1.3,0.2-1.9c0-0.2,0-0.4,0.1-0.6c0.1-0.7,0.2-1.4,0.2-2.1c0-0.8,0-1.7-0.1-2.5c0-0.4,0-0.8,0-1.2
		c0-0.4,0-0.7,0-1.1c0-0.4,0-0.8,0-1.1c-0.1-0.5-0.8-1.3-1.5-1.2c-0.3,0-0.7,0.1-1,0.1c-0.8,0-1.7,0-2.5,0c-0.3,0-0.5,0.1-0.8,0.1
		c-0.3,0-0.7,0-1,0c-0.2,0-0.4-0.1-0.6-0.1c-0.5,0-0.9,0.1-1.4,0.1c-0.2,0-0.5,0.1-0.7,0.2c-0.1,0-0.2,0-0.3,0
		c-0.6-0.3-1.1-0.5-1.8-0.4c-0.6,0.1-1.1,0.2-1.7,0.4c-0.5,0.1-0.9,0.2-1.4,0.3c-0.5,0-0.9-0.1-1.4-0.1c-0.5,0-0.9,0-1.4,0.1
		c-0.7,0.1-1.4,0.1-2.2,0.3c-1.1,0.2-2.1,0.5-3.2,0.6c-0.7,0-1.3,0.2-2,0.2c-0.5,0-0.9-0.1-1.4-0.1c-0.6-0.1-1.1-0.2-1.7-0.3
		C10.2,2.7,9.6,2.5,9,2.6C8.5,2.6,8.1,2.8,7.7,3.2C7.5,3.6,7.3,3.9,7.2,4.3C7.2,4.8,7.1,5.2,7.1,5.7c0,0.5,0,0.9,0,1.4
		C7,7.4,7,7.7,7,8c0,0.6,0,1.1-0.1,1.7c0,0.2,0,0.5-0.1,0.7c0,0.6-0.1,1.3-0.1,1.9c0,0.7,0,1.3,0.1,2c0,0.3-0.1,0.6-0.1,0.9
		c0,0.2,0.1,0.4,0.1,0.7c0,0.3,0,0.6-0.1,1c0,0.3,0,0.6-0.1,1c-0.1,0.7-0.2,1.4-0.3,2.1c-0.1,0.5-0.1,1.1-0.1,1.6
		C6.1,22.4,6,23.4,6,24.3c0,0.5,0,1.1,0.1,1.6c0,0.8,0,1.6,0,2.4c0,0.9,0,1.8,0.1,2.7c0.1,0.8,0,1.5,0.1,2.3c0,0.3,0.1,0.6,0.1,1
		c0,1,0,2,0,3c0,1,0.1,1.9,0.1,2.9c0,1,0,2,0,2.9c0,0.7,0,1.3,0.1,2c0,0.6,0,1.1,0,1.7c0,0.4,0.1,0.7,0.1,1.1c0,1.4,0,2.8-0.1,4.3
		c0,0.7,0,1.4,0,2.1c0,0.9-0.1,1.7-0.1,2.6c0,0.7-0.1,1.3-0.1,2C6,59.3,6,59.9,5.9,60.5c0,0.4-0.1,0.7-0.1,1.1
		c-0.1,0.7-0.2,1.4-0.3,2.1c-0.1,0.5-0.1,1-0.1,1.4c0,0.5-0.1,1-0.1,1.5c0,0.5,0,1.1-0.1,1.6c0,0.2,0,0.4-0.1,0.7
		c0,0.6-0.1,1.2-0.1,1.9c0,0.4,0,0.9-0.1,1.3c0,0.3,0,0.6-0.1,0.9c0,0.2,0,0.5,0,0.7c0,0.6-0.1,1.1-0.1,1.7c0,0.7,0.2,1.5,0.2,2.2
		c0,0.5,0,1-0.1,1.5c0,0.7,0,1.4-0.1,2.1c0,0.1,0.1,0.3,0.1,0.4c0,0.7-0.1,1.3-0.1,2c0,0.2,0,0.4,0,0.7c0,0.8-0.1,1.6-0.1,2.3
		c0,0.7,0.1,1.3,0.2,2c0,0.4,0.1,0.8,0.1,1.2c0,0.5-0.1,1-0.1,1.4c0,0.1,0.1,0.2,0.1,0.4c0,0.5-0.1,1-0.1,1.6c0,0.1,0.1,0.2,0.1,0.4
		c0,0.7-0.1,1.5-0.1,2.2c0,0.3,0,0.6,0,0.8c0,1.6,0,3.3-0.1,4.9c0,0.3,0,0.6,0,1c0,0.8-0.1,1.7-0.1,2.5c0,0.6,0.1,1.1,0.1,1.7
		c0,1-0.1,2-0.1,3c0,0.2,0.1,0.4,0.1,0.7c0,0.9-0.1,1.9-0.1,2.8c0,0.2,0.1,0.3,0.1,0.5c0,0.6-0.1,1.2-0.1,1.8c0,0.6-0.1,1.3-0.1,1.9
		c-0.1,0.7-0.2,1.4-0.2,2.1c0,0.4,0.1,0.8,0.1,1.3c0,0.5,0,1-0.1,1.5c0,0.1,0.1,0.3,0,0.4c-0.1,0.6-0.2,1.2-0.2,1.9
		c-0.1,0.5-0.1,1.1-0.1,1.6c0,0.5-0.1,1.1-0.1,1.6c0,0.5-0.1,1-0.1,1.5c0,0.7-0.1,1.4-0.1,2c0,1.5,0,3.1,0,4.6c0,0.9,0,1.8,0.1,2.7
		c0,0.4,0,0.9,0.1,1.3c0,0.5,0,0.9,0.1,1.4c0,0.6,0.1,1.2,0.1,1.8c0,0.8,0,1.6,0.1,2.4c0,0.9,0,1.9,0.1,2.8c0,0.2,0,0.4,0,0.6
		c-0.1,0.7-0.3,1.4-0.8,1.9c-0.2,0.2-0.3,0.5-0.3,0.7c-0.1,0.7-0.1,1.4-0.1,2.1c0,0.5,0,1.1,0,1.6c0,0.9,0,1.8-0.1,2.7
		c0,0.1,0.1,0.3,0.1,0.4c0,0.6-0.1,1.3-0.1,1.9c0,0.1,0.1,0.2,0.1,0.4c0,0.7-0.1,1.3-0.1,2c0,0.1,0.1,0.2,0.1,0.3
		c0,0.5-0.1,1-0.1,1.6c0,0.1,0,0.2,0,0.3c0,0.5-0.1,1-0.1,1.4C2.1,166.4,2.1,166.9,2.1,167.3 M40.1,141.7c0-0.3-0.1-0.7-0.1-1
		c0-1.4,0-2.8,0-4.3c0-1,0-2-0.1-3c0-0.8,0-1.5-0.1-2.3c0-0.8,0.1-1.5,0.1-2.3c0-0.6,0.1-1.2,0.1-1.7c0-0.4,0-0.8,0-1.2
		c0-0.6,0.1-1.1,0.1-1.7c0-0.3-0.1-0.7-0.1-1c0-0.6,0-1.2,0-1.8c0-0.7-0.1-1.4-0.2-2.1c-0.1-0.6-0.1-1.3-0.1-1.9
		c-0.1-0.8-0.2-1.6-0.3-2.4c-0.1-0.7-0.1-1.4-0.1-2.1c0-0.5,0.1-1.1,0.1-1.6c0-0.9,0-1.8,0-2.7c0-1.6,0-3.3,0-4.9
		c0-0.7,0-1.5-0.1-2.2c0-0.3,0-0.5,0-0.8c0-0.8-0.1-1.6-0.1-2.5c0-1.3,0-2.6,0.1-4c0-0.1-0.1-0.3-0.1-0.4c0-0.7,0.1-1.4,0.1-2.1
		c0-0.1-0.1-0.3-0.1-0.4c0-0.7,0.1-1.4,0.1-2.1c0-0.1-0.1-0.2-0.1-0.3c0-0.6,0.1-1.3,0.1-1.9c0-0.1-0.1-0.2,0-0.4
		c0-0.6,0.1-1.3,0.1-1.9c0-0.1-0.1-0.2-0.1-0.3c0-0.6,0.1-1.2,0.1-1.9c0-0.1-0.1-0.3-0.1-0.4c0-0.5,0.1-1,0.1-1.5c0-2.6,0-5.1,0-7.7
		c0-0.1-0.1-0.3-0.1-0.4c0-0.4,0.1-0.8,0.1-1.3c0-0.7,0.1-1.4,0.1-2.1c0-1,0-2,0-2.9c0-0.6-0.2-1.3-0.2-1.9c-0.1-0.5,0-1-0.1-1.5
		c0-0.7-0.1-1.5-0.1-2.2c0-0.4,0-0.8,0.1-1.2c0-0.3,0-0.5,0-0.8c0-3.6,0-7.2,0.1-10.9c0-0.6,0-1.1,0-1.7c0-0.2,0-0.5,0.1-0.7
		c0-0.5,0-1,0.1-1.4c0-0.5,0.1-1,0.2-1.5c0.1-0.6,0.1-1.1,0.1-1.7c0-0.5,0.1-1,0.1-1.4c0-0.4,0-0.8,0.1-1.3c0.1-0.9,0.2-1.7,0.3-2.6
		c0.1-1.7,0.1-3.4,0.1-5.1c0-2.8,0-5.6,0-8.4c0-0.2,0-0.4,0.2-0.4c0.2-0.1,0.4,0.1,0.5,0.3c0.2,0.7,0.4,1.3,0.6,2
		C42,24,42.1,24,42.3,24c0.4-0.1,0.8-0.2,1.1-0.3c0.6-0.2,1.2-0.6,2-0.6c0.2,0,0.4-0.3,0.5-0.5c0.1-0.1,0-0.3,0-0.4
		c0-0.3,0-0.7-0.1-1c0-0.4-0.3-0.5-0.6-0.5c-0.3-0.1-0.6,0-0.8,0c-0.7,0.1-1.5,0.3-2.2,0.2c-0.3,0-0.7-0.1-1-0.3
		c-0.3-0.1-0.5-0.3-0.7-0.5c-0.1,0-0.2-0.1-0.3,0c0,0-0.1,0.1-0.1,0.2c0,0.3,0,0.6-0.1,0.9c-0.2,0.7-0.2,1.4-0.3,2.1
		c0,0.2,0,0.4-0.1,0.6c0,0.5,0,1-0.1,1.4c0,0.7-0.1,1.4-0.1,2.1c0,0.5,0,1-0.1,1.5c0,0.4-0.1,0.7-0.1,1.1c0,0.5,0,1,0,1.6
		c0,0.5-0.1,1-0.1,1.5c0,0.1,0.1,0.2,0.1,0.3c0,0.5-0.1,1.1-0.1,1.6c0,0.1,0,0.2,0,0.3c0,0.4-0.1,0.9-0.1,1.3c0,0.5,0,1-0.1,1.5
		c0,0.7-0.1,1.3-0.1,2c0,0.4,0,0.9-0.1,1.3c0,0.6-0.1,1.3-0.1,1.9c0,0.5,0,1,0,1.6c0,0.7-0.1,1.3-0.1,2c0,0.4,0,0.9,0,1.3
		c0,0.7-0.1,1.3-0.1,2c0,0.1,0.1,0.3,0.1,0.4c0,0.7-0.1,1.3-0.1,2c0,0.7,0.1,1.4,0.2,2.2c0,0.7,0.1,1.3,0.1,2c0,1.9,0,3.7,0,5.6
		c0,0.2,0.1,0.3,0.1,0.5c0,0.5,0,1,0,1.6c0,0.6,0.1,1.2,0.2,1.8c0,0.3,0,0.6,0.1,0.9c0,0.4,0.1,0.7,0.1,1.1c0,0.8-0.1,1.6-0.1,2.4
		c-0.1,0.8-0.1,1.5-0.2,2.3c0,0.2,0,0.3,0,0.5c0,0.3-0.1,0.6-0.1,0.9c0,0.5,0,0.9-0.1,1.4c0,0.3,0,0.6-0.1,1c0,0.5-0.1,1-0.1,1.5
		c0,0.5,0,1.1,0,1.6c0,0.7-0.1,1.3-0.1,2c0,0.1,0.1,0.2,0.1,0.3c0,0.7-0.1,1.3-0.1,2c0,0.2,0,0.4,0,0.6c0,0.7,0,1.5-0.1,2.2
		c0,0.2,0,0.4,0,0.7c0,0.8,0,1.7-0.1,2.5c0,0.5,0,0.9,0,1.4c0,2.3,0,4.5-0.1,6.8c0,0.1,0,0.2,0,0.3c0,0.2,0.1,0.4,0.1,0.5
		c0,0.7-0.1,1.4-0.1,2.1c0,0.1,0.1,0.2,0,0.3c0,0.5-0.1,1-0.1,1.5c0,0.5,0,1.1,0,1.6c0,1.1,0,2.2,0.1,3.3c0,0.7,0,1.3,0.1,2
		c0,0.5,0.1,1,0.1,1.5c0,0.6,0.1,1.3,0.1,1.9c0,0.6,0,1.3,0.1,1.9c0,0.5,0,1.1,0.1,1.6c0,0.6,0,1.2,0.1,1.8c0,0.4,0.1,0.7,0.1,1.1
		c0,0.4,0,0.9,0,1.3c0,0.6,0.1,1.3,0.1,1.9c0,5.6,0,11.2-0.1,16.8c0,0.1,0.1,0.3,0.1,0.4c0,0.6-0.1,1.1-0.1,1.7c0,0.5,0,1,0,1.5
		c0,0.6,0,1.1,0,1.7c0,0.5-0.1,1-0.1,1.5c0,0.1,0.1,0.2,0,0.4c0,0.7-0.1,1.3-0.1,2c0,0.1,0,0.2,0,0.3c0,0.6-0.1,1.2-0.1,1.7
		c0,0.2,0,0.4,0,0.5c0,1,0,1.9-0.1,2.9c0,0.5,0,1-0.1,1.5c0,0.2,0,0.5-0.1,0.7c0,0.5-0.1,1-0.1,1.5c-0.1,0.5-0.1,1-0.2,1.5
		c-0.1,0.4-0.1,0.9-0.1,1.3c0,0.5,0.2,0.6,0.7,0.6c0.5,0,1.1-0.1,1.6-0.1c0.6-0.1,1.1-0.1,1.7-0.2c0.7-0.1,1.4-0.2,2.1-0.3
		c0.5,0,0.9-0.3,1-0.7c0-0.4,0.1-0.8-0.1-1.3c-0.1-0.3-0.2-0.6-0.6-0.7c-0.5-0.1-0.9-0.2-1.4-0.2c-1.1-0.1-2.3,0.1-3.4-0.1
		c-0.2,0-0.3-0.1-0.5-0.1c0.1-0.1,0.2-0.3,0.4-0.4c0.5-0.4,0.8-0.9,0.8-1.5c0-0.7,0-1.4,0-2.2c0-0.9,0-1.8,0.1-2.7
		c0-0.2,0-0.5,0-0.7c0-0.7,0-1.4,0.1-2c0-0.1-0.1-0.3-0.1-0.4c0-0.7,0.1-1.5,0.1-2.2C40.1,144.3,40.1,143,40.1,141.7 M3.6,185.5
		c0.2,0.1,0.3,0.3,0.5,0.4c0.7,0.1,1.3,0.2,2,0.3c0.4,0,0.7,0,1.1,0.1c0.6,0,1.1,0.1,1.7,0.1c0.4,0,0.8,0,1.2,0.1
		c0.6,0,1.2,0.1,1.8,0.1c0.3,0,0.7,0,1,0c0.5,0,1.1,0.1,1.6,0.1c0.4,0,0.9,0,1.3-0.1c0.6,0,1.2,0,1.7-0.1c0.7,0,1.3,0,2-0.1
		c0.6,0,1.2,0,1.8-0.1c0.4,0,0.9,0,1.3-0.1c0.5,0,0.9-0.1,1.4-0.1c0.9,0,1.7,0,2.6,0c0.7,0,1.5-0.1,2.2-0.1c0.8,0,1.7,0,2.5,0
		c0.8,0,1.5,0,2.3-0.1c0.4,0,0.7,0,1-0.3c0.1-0.1,0.2-0.2,0-0.3c-0.2-0.3-0.5-0.3-0.8-0.3c-0.5-0.1-1-0.1-1.5-0.2
		c-0.5,0-0.9,0-1.4,0c-0.7,0-1.3,0-2,0.1c-0.4,0-0.9,0.1-1.3,0.1c-0.3,0-0.6,0.1-0.8,0.1c-0.4,0-0.7,0.1-1.1,0.1
		c-0.7,0-1.5-0.1-2.2-0.1c-0.9,0-1.8,0-2.7,0c-0.5,0-1,0-1.5,0.1c-0.6,0-1.3,0-1.9,0.1c-0.5,0-1,0.1-1.5,0.1c-2.3,0-4.6,0-6.9,0
		c-0.5,0-0.9-0.1-1.4-0.1c-0.5-0.1-1-0.1-1.5-0.2c-0.5-0.1-1-0.1-1.5-0.1c-0.4,0-0.9-0.1-1.3-0.1c-0.1,0-0.1,0.1-0.2,0.1
		c0,0,0.1,0.1,0.1,0.1C3.4,185.3,3.5,185.4,3.6,185.5 M38.2,162.1c-0.5,0.2-0.7,0.6-0.7,1.1c0,1.8,0,3.7,0.1,5.5c0,0.5,0,1.1,0,1.6
		c0,0.4,0,0.7,0,1.1c-0.1,0.7-0.2,1.4-0.2,2.1c0,0.6,0,1.1,0,1.7c0,0.5,0.1,0.9,0.3,1.3c0.1,0.5,0.3,1,0.5,1.5
		c0.1,0.1,0.2,0.3,0.4,0.1c0.1-0.1,0.1-0.4,0.1-0.6c0-0.3,0-0.6-0.1-0.8c0-0.4-0.1-0.7-0.1-1.1c0-0.5,0-0.9,0-1.4
		c0-0.5,0.1-1.1,0.2-1.6c0-0.5,0-0.9,0-1.4c0-0.6,0.1-1.3,0.1-1.9c0-0.3,0-0.6,0-1c0-0.4,0.1-0.7,0.1-1.1c0-0.5,0-1,0-1.4
		c0-0.5,0-1,0.1-1.5c0-0.3,0.1-0.6,0.1-0.9C39.3,162.4,39,162,38.2,162.1 M15.7,180.7c-0.3,0-0.7,0-1,0.1c-0.7,0.1-1.4,0.1-2.1,0.1
		c-0.4,0-0.8,0.1-1.3,0c-0.6-0.1-1.2-0.2-1.9,0c-0.1,0-0.3,0.1-0.4,0.2c0.1,0.1,0.1,0.2,0.2,0.3c0,0,0.1,0,0.1,0.1
		c0.4,0.3,0.9,0.2,1.4,0.2c0.6,0,1.2-0.1,1.8-0.1c0.6,0,1.3,0,1.9-0.1c0.7,0,1.5,0,2.2-0.1c0.5,0,1,0,1.4-0.1c0.6,0,1.2,0,1.8-0.1
		c0.6,0,1.2,0,1.8-0.1c0.5,0,1.1,0,1.6-0.1c0.6,0,1.2,0,1.8-0.1c0.5,0,1-0.1,1.5-0.1c0.7-0.1,1.5-0.1,2.2-0.1c0.7,0,1.5,0,2.2-0.1
		c0.5,0,1.1,0,1.6-0.1c0.3-0.1,0.6-0.2,0.9-0.4c0.1,0,0.1-0.1,0.1-0.1c0-0.1-0.1-0.1-0.2-0.1c-0.6-0.1-1.2-0.1-1.9-0.1
		c-0.5,0-1,0.1-1.5,0.1c-0.4,0-0.8,0-1.3,0.1c-0.5,0-1,0.1-1.5,0.1c-0.5,0-1,0-1.5,0.1c-0.4,0-0.9,0.1-1.3,0.1c-0.6,0-1.1,0-1.7,0.1
		c-0.6,0-1.2,0.1-1.8,0.1c-0.5,0-1,0-1.5,0c-0.6,0-1.3,0.1-1.9,0.1C17.1,180.6,16.4,180.6,15.7,180.7 M36.1,181.2
		c-0.2-0.1-0.4-0.3-0.7-0.4c-0.1-0.1-0.3-0.1-0.3,0.1c0,0.5-0.1,1,0,1.4c0.2,0.9,0.4,1.8,0.6,2.7c0,0.2,0.5,0.5,0.7,0.4
		c0.3-0.1,0-0.3,0.1-0.4c0-0.1,0-0.1,0-0.2c0-0.7,0-1.4,0-2.2c0-0.2-0.1-0.3-0.1-0.5C36.5,181.9,36.4,181.5,36.1,181.2 M38,179.6
		c-0.1,0-0.2,0-0.2,0c0,0-0.1,0.1-0.1,0.1c0.1,0.1,0.1,0.1,0.2,0.1C37.9,179.8,37.9,179.7,38,179.6 M35.4,179.8
		c0-0.1,0.1-0.1,0.1-0.2c-0.1,0-0.1,0-0.2,0C35.3,179.6,35.3,179.7,35.4,179.8z"/>
	<path class="st1" d="M45.5,71.8c-0.1,0.2-0.2,0.3-0.3,0.4c-0.3,0.6-0.7,0.9-1.4,1c-0.7,0.1-1.4,0.2-2.1,0.3
		c-0.6,0.1-1.1,0.1-1.6-0.2c0,0-0.1,0-0.1,0c0,0,0.1-0.1,0.1-0.1c0.6-0.3,1.2-0.5,1.8-0.6c0.6-0.1,1.2-0.2,1.8-0.4
		c1-0.3,1.1-0.8,0.8-1.7c-0.1-0.2-0.2-0.4-0.3-0.5c-0.3-0.4-0.5-0.5-1-0.3c-0.7,0.2-1.4,0.3-2.1,0.4c-0.3,0-0.6-0.1-0.9-0.2
		c-0.1,0-0.2-0.1,0-0.2c1-0.5,2.1-0.8,3.1-1.1c0.3-0.1,0.6-0.2,0.9,0.1c0.3,0.2,0.5,0.4,0.7,0.7c0.5,0.5,0.3,1.2,0.3,1.8
		c0,0.1,0,0.3,0,0.4C45.5,71.5,45.5,71.6,45.5,71.8z"/>
	<path class="st1" d="M27.3,139.6c-0.3,0-0.5,0-0.7,0c-0.5-0.1-0.9-0.5-0.9-1c-0.1-0.7,0.2-1.3,0.4-1.9c0-0.1,0.1-0.3,0.1-0.4
		c0-0.1,0-0.3-0.1-0.4c-0.2,0-0.4,0-0.5,0c-0.5,0.4-0.9,0.9-1.3,1.3c-0.8,0.8-1.5,1.7-2.3,2.4c-0.8,0.6-1,0.5-1.7-0.3
		c-0.7-0.8-1.3-1.7-1.9-2.5c-0.4-0.5-0.8-0.9-1.2-1.3c-0.3-0.3-0.5-0.3-0.6,0.1c-0.1,0.2-0.1,0.5-0.1,0.7c0,0.5,0,0.9-0.1,1.4
		c-0.1,0.8-0.2,1.7-0.3,2.5c0,0.2-0.2,0.4-0.4,0.5c-0.3,0.2-0.7,0.3-1.1,0.2c-0.4-0.1-0.8,0-1.2-0.1c-0.6-0.1-1.3-0.2-1.9-0.3
		c-0.8-0.1-1.3-0.7-1.4-1.4c-0.2-0.7-0.1-1.4,0-2.2c0.1-0.5,0.1-1,0.2-1.5c0.1-0.4,0.1-0.9,0.1-1.3c0-0.5,0-1.1,0.1-1.6
		c0-0.5,0.1-1,0.1-1.5c0-0.4,0-0.8,0.1-1.3c0.1-0.6,0.2-1.3,0.3-1.9c0.1-0.5,0.2-0.9,0.2-1.4c0.2-1.1,0.3-2.3,0.8-3.4
		c0.2-0.4,0.5-0.5,0.9-0.3c0.2,0.1,0.4,0.2,0.6,0.4c1,0.9,1.9,1.9,2.9,2.8c1.1,1,2.1,2,3.2,3.1c0.3,0.3,0.5,0.6,0.8,0.9
		c0.4,0.5,0.9,0.4,1.2,0c0.5-0.7,0.9-1.4,1.4-2.1c0.4-0.5,0.9-0.9,1.3-1.3c0.5-0.5,1-0.9,1.5-1.4c1-1,2.1-1.9,3.1-2.8
		c0.2-0.2,0.5-0.4,0.7-0.5c0.6-0.4,1-0.2,1,0.5c0.1,0.7,0.1,1.4,0.2,2.1c0.1,0.6,0.1,1.2,0.1,1.8c0.1,0.6,0.1,1.2,0.2,1.8
		c0,0.4,0,0.7,0,1.1c0,0.7,0,1.5,0.1,2.2c0,0.2,0,0.4,0,0.7c0,0.7,0.1,1.5,0.1,2.2c0,0.1-0.1,0.3-0.1,0.4c0,0.6,0.1,1.3,0.1,1.9
		c0,0.7-0.1,1.3-0.2,2c-0.1,0.5-0.5,0.6-0.9,0.7c-0.9,0.2-1.7,0.4-2.6,0.6C27.5,139.6,27.4,139.6,27.3,139.6 M14.1,125.1
		c-0.2-0.2-0.5-0.5-0.7-0.7c-0.2-0.2-0.4-0.2-0.6,0.1c-0.1,0.2-0.2,0.4-0.2,0.7c-0.1,0.4-0.1,0.9-0.1,1.3c-0.1,0.6-0.2,1.3-0.3,1.9
		c-0.1,0.4-0.1,0.9-0.1,1.3c0,0.3-0.1,0.6-0.1,0.9c-0.1,0.5-0.1,1.1-0.1,1.6c-0.1,0.5-0.1,1-0.2,1.5c0,0.4,0,0.8-0.1,1.2
		c0,0.3-0.1,0.7-0.1,1c0,0.4,0,0.7,0,1.1c0,0.5,0,1-0.1,1.5c0,0.2,0,0.3,0.1,0.5c0.1,0.4,0.5,0.6,0.8,0.6c0.6,0.1,1.1,0.2,1.7,0.3
		c0.2,0,0.5,0,0.7-0.1c0.4-0.1,0.6-0.7,0.6-1.2c0-0.4,0-0.7,0-1.1c0.1-0.7,0.2-1.4,0.3-2.1c0.1-0.6,0.2-1.1,0.3-1.7
		c0.1-0.6,0.4-0.6,0.8-0.2c0.6,0.6,1.2,1.2,1.8,1.9c0.3,0.3,0.6,0.6,0.9,1c0.2,0.2,0.3,0.4,0.5,0.6c0.4,0.5,0.9,1,1.4,1.5
		c0.2,0.2,0.4,0.2,0.6,0c0.1-0.1,0.3-0.3,0.4-0.4c0.5-0.6,1-1.3,1.5-1.9c0.4-0.4,0.7-0.8,1.1-1.3c0.4-0.6,0.9-0.9,1.6-1.1
		c0.1,0,0.2,0,0.2,0c0.3,0.4,0.4,0.8,0.5,1.2c0,0.4,0,0.8-0.1,1.2c-0.1,0.6-0.2,1.2-0.2,1.8c0,0.2,0.2,0.4,0.4,0.6
		c0.1,0.1,0.3,0,0.4,0c0.4-0.1,0.8-0.3,1.2-0.5c0.9-0.4,1.4-0.5,1.3-1.8c0-0.4-0.1-0.9-0.1-1.3c0-1.1,0-2.1,0-3.2c0-0.5,0-1,0-1.5
		c0-2.2,0-4.5-0.1-6.7c0-0.2,0-0.5-0.1-0.7c0-0.1-0.1-0.2-0.2-0.1c-0.4,0.2-0.9,0.4-1.3,0.7c-0.6,0.6-1.2,1.2-1.8,1.8
		c-1,1-1.9,2-2.9,3c-0.4,0.4-0.7,0.8-1,1.2c-0.4,0.6-0.9,1.2-1.3,1.7c-0.4,0.5-0.9,0.4-1.2,0c-0.6-0.6-1.1-1.2-1.7-1.8
		C17.1,128.1,15.6,126.7,14.1,125.1z"/>
	<path class="st1" d="M16.8,95.4c0.5-0.2,0.9-0.2,1.4-0.3c0.6,0,1.2-0.1,1.8-0.2c0.5,0,1,0,1.4-0.1c0.3,0,0.6,0,0.8-0.1
		c0.5,0,1,0,1.5-0.1c0.4,0,0.7,0,1.1-0.1c0.5,0,1.1,0,1.6-0.1c0.3,0,0.6-0.1,0.8-0.1c0.7,0,1.1,0.3,1.1,1.1c0,0.6,0,1.2,0.1,1.8
		c0,1.1-0.7,1.8-1.7,1.9c-0.8,0.1-1.6,0.3-2.4,0.4c-0.7,0.1-1.4,0.2-2,0.3c-0.4,0.1-0.8,0.1-0.9,0.6c-0.1,0.3,0.1,0.7,0.5,0.7
		c0.3,0,0.7,0,1-0.1c0.5-0.1,1-0.2,1.4-0.2c0.6,0,1.3,0,1.9,0c1,0,1.2,0.4,1.5,1.1c0.3,0.8,0.3,1.6,0.3,2.4c-0.1,0.6-0.5,1-1.1,1.1
		c-0.9,0.2-1.8,0.3-2.7,0.4c-0.5,0.1-1.1,0-1.6,0c-0.5,0-1,0.1-1.5,0.2c-0.3,0.1-0.5,0.3-0.4,0.6c0,0.2,0,0.4,0,0.6
		c0,0.3,0.2,0.4,0.5,0.4c0.3,0,0.6,0,0.9,0c0.3,0,0.7-0.1,1-0.1c0.4-0.1,0.9-0.1,1.3-0.2c0.4,0,0.7-0.1,1.1-0.1
		c0.5-0.1,1-0.1,1.5-0.2c0.4,0,1,0.4,1.1,0.8c0.2,0.9,0.2,1.8-0.3,2.6c-0.3,0.5-0.7,0.7-1.2,0.9c-0.8,0.2-1.6,0.1-2.4,0.1
		c-1.3,0-2.5,0.1-3.8,0.1c-1,0-2,0-3.1-0.1c-0.8,0-1.5-0.2-1.9-0.8c-0.2-0.3-0.4-0.6-0.4-1c-0.1-0.5,0-1,0.1-1.5
		c0.1-0.6,0.2-1.2,0.3-1.8c0.1-0.5,0.1-1,0.1-1.5c0-0.8,0-1.6,0.1-2.4c0-0.8,0.1-1.6,0.1-2.3c0-0.6,0.1-1.2,0.1-1.9
		c0-0.8,0.1-1.5,0.2-2.3C16,95.9,16.4,95.6,16.8,95.4 M16.3,109.3c0,0.2,0,0.4,0,0.5c-0.2,0.9,0.2,1.5,1.1,1.5c0.5,0,1-0.2,1.6-0.2
		c0.8-0.1,1.6-0.1,2.4-0.1c0.7,0,1.5,0,2.2-0.1c0.4,0,0.8,0,1.2-0.1c0.4,0,0.9,0,1.3-0.1c0.3,0,0.6-0.2,0.7-0.5
		c0.3-0.5,0.5-1.1,0.7-1.7c0,0-0.1-0.2-0.1-0.2c-0.4-0.1-0.7-0.1-1.1-0.1c-0.5,0-1.1-0.1-1.6-0.1c-0.6,0-1.2,0.2-1.8,0.3
		c-0.3,0.1-0.7,0.1-1,0.2c-0.5,0.1-1.1,0.5-1.6-0.1c0,0-0.1-0.1-0.2-0.1c-0.3-0.2-0.6-0.3-0.5-0.8c0-0.2,0-0.5,0-0.7
		c0-0.3,0-0.7,0.1-1c0.1-0.5,0.6-0.6,1-0.7c0.4-0.1,0.9-0.2,1.4-0.2c0.5-0.1,1-0.1,1.5-0.1c0.3,0,0.5,0,0.8-0.1
		c0.7-0.1,1.5-0.1,2.2-0.2c0.4,0,0.8-0.5,0.7-0.8c-0.1-0.4-0.3-0.8-0.4-1.1c-0.1-0.2-0.3-0.4-0.4-0.4c-0.4-0.1-0.7-0.1-1.1-0.1
		c-1.4,0-2.9,0-4.3,0c-0.4,0-0.6-0.2-0.5-0.6c0.1-0.5,0-1,0.1-1.4c0.1-0.4,0.1-0.8,0.4-1.1c0.3-0.3,0.6-0.3,1-0.4
		c0.5-0.1,1.1,0,1.6-0.1c0.6,0,1.1-0.1,1.7-0.2c0.5-0.1,1.1-0.1,1.6-0.2c0.4-0.1,0.8-0.4,0.8-0.7c0-0.5-0.1-1-0.1-1.4
		c0-0.4-0.2-0.4-0.5-0.4c-0.6,0.1-1.1,0.1-1.7,0.1c-0.7,0-1.4,0.1-2.1,0.1c-0.7,0-1.4,0.1-2,0.1c-0.2,0-0.5,0.1-0.7,0.1
		c-0.6,0.1-1.1,0.1-1.7,0.2c-0.3,0-0.6,0-0.8,0.1c-0.6,0.2-0.9,0.8-0.8,1.3c0,0.3,0,0.7,0,1.1c0,0.3,0,0.7,0,1
		c0,0.5-0.1,0.9-0.1,1.4c0,0.4-0.1,0.7-0.1,1.1c0,0.6,0,1.1,0,1.7c0,0.4-0.1,0.9-0.1,1.3c0,0.5,0,0.9,0,1.4c0,0.5-0.1,0.9-0.1,1.4
		C16.4,108.5,16.3,108.9,16.3,109.3z"/>
	<path class="st1" d="M16.9,158.7c0.8-1.6,1.5-3.1,2.3-4.6c0.4-0.7,0.7-1.5,1.3-2c0.2-0.2,0.5-0.4,0.8-0.5c0.3-0.1,0.7,0.1,1,0.6
		c0.4,0.8,0.7,1.6,1.1,2.4c0.2,0.6,0.5,1.1,0.7,1.7c0.5,1.1,1,2.3,1.5,3.4c0.3,0.8,0.7,1.6,1,2.4c0.4,1,0.8,2,1.3,3
		c0.5,1.2,1.1,2.3,1.6,3.4c0.2,0.5,0.4,0.9,0.4,1.5c0,0.3-0.3,0.6-0.6,0.6c-0.7,0-1.4,0.2-2.1,0.4c-0.6,0.1-1.3,0.3-1.9,0
		c-0.4-0.3-0.8-0.6-1-1.1c-0.5-1.3-1.4-1.8-2.7-2.2c-1.4-0.4-2.6,0.2-3.8,0.8c-0.3,0.2-0.5,0.6-0.7,0.9c-0.4,0.6-0.8,1.3-1.2,1.9
		c-0.4,0.7-0.9,0.9-1.7,0.6c-0.8-0.3-1.5-0.6-2.2-0.9c-0.5-0.2-0.6-0.5-0.4-1c0.3-0.7,0.6-1.4,1-2.2c0.7-1.6,1.5-3.2,2.2-4.7
		C15.5,161.7,16.2,160.2,16.9,158.7 M14.7,166.5c-0.1,0.3-0.3,0.6-0.4,0.9c-0.4,0.8-0.8,1.7-1.1,2.6c-0.2,0.5-0.1,0.8,0.4,0.9
		c0.7,0.2,1.5-0.3,1.8-0.9c0.1-0.3,0.3-0.7,0.5-0.9c0.5-0.6,1-1.2,1.6-1.8c0.3-0.3,0.8-0.5,1.2-0.7c0.8-0.3,1.6-0.2,2.4-0.3
		c0.8,0,1.7,0,2.5,0c0.5,0,0.8,0.2,1.2,0.5c0.3,0.3,0.4,0.8,0.4,1.2c0.1,0.5,0.1,0.9,0.4,1.3c0.1,0.2,0.3,0.4,0.6,0.3
		c0.4-0.1,0.9-0.2,1.4-0.3c0.4-0.1,0.5-0.3,0.4-0.7c0-0.1-0.1-0.2-0.1-0.3c-0.3-0.8-0.7-1.7-1-2.5c-0.4-0.9-0.7-1.9-1.1-2.8
		c-0.4-0.9-0.7-1.8-1.1-2.8c-0.5-1.1-0.9-2.3-1.4-3.4c-0.4-0.9-0.7-1.8-1.1-2.7c-0.1-0.4-0.3-0.7-0.5-1.1c-0.2-0.5-0.3-0.5-0.6-0.1
		c-0.4,0.7-0.7,1.5-1.1,2.3c-0.7,1.5-1.4,3.1-2.1,4.6c-0.5,1-1,2-1.5,3.1C15.7,164.2,15.2,165.3,14.7,166.5z"/>
	<path class="st1" d="M19.2,85.4c-0.5,0-1.1,0-1.6,0c-0.6,0-1.3-0.2-1.8-0.7c-0.3-0.3-0.5-0.7-0.5-1.2c0-0.7,0-1.4,0.1-2.1
		c0-0.8,0-1.5,0.1-2.3c0-0.8,0.1-1.6,0.1-2.4c0-0.5,0.1-1,0.1-1.6c0-0.5,0-1,0.1-1.5c0.1-0.7,0.2-1.3,0.3-2c0.1-0.3,0.2-0.6,0.2-0.9
		c0.2-0.8,1-1,1.7-0.6c1.6,1,3.1,2.1,4.6,3.1c0.7,0.4,1.3,0.9,2,1.3c0.1,0.1,0.2,0.1,0.4,0.1c0.2,0,0.3-0.1,0.3-0.3
		c0-0.9-0.1-1.7-0.1-2.6c0-0.6,0.2-1.2,0.3-1.8c0.1-0.3,0.6-0.6,1-0.6c0.6,0,1.2-0.2,1.8-0.1c0.7,0.1,1.5,0,2,0.7
		c0.2,0.3,0.3,0.6,0.3,0.9c-0.1,0.9-0.2,1.7-0.3,2.6c-0.1,0.7-0.2,1.5-0.3,2.2c-0.1,0.6-0.1,1.2-0.2,1.8c-0.1,0.7-0.1,1.4-0.1,2.1
		c0,0.5,0.1,1.1,0,1.6c-0.1,0.8,0,1.6-0.2,2.4c-0.2,0.7-0.5,0.9-1.2,0.6c-0.6-0.2-1.1-0.7-1.6-1.1c-0.7-0.6-1.3-1.1-2-1.7
		c-0.6-0.5-1.2-1-1.8-1.5c-0.6-0.5-1.2-0.9-1.8-1.4c-0.2-0.2-0.4-0.1-0.4,0.2c-0.1,0.5-0.2,1-0.2,1.5c0,0.9,0,1.8-0.1,2.6
		c0,0.5,0,0.9-0.1,1.4C20.3,85,20,85.3,19.2,85.4 M28.7,81.2c0-0.2,0-0.4,0-0.6c0-0.5,0.1-1,0.1-1.5c0-0.1-0.1-0.2,0-0.4
		c0.1-0.9,0.1-1.8,0.2-2.7c0-0.3,0-0.7,0.1-1c0.1-0.5,0.1-1,0.2-1.4c0.2-0.9,0.4-1.8,0.7-2.7c0.1-0.3,0.1-0.4-0.3-0.4
		c-0.8,0-1.5,0-2.3,0c-0.5,0-0.8,0.3-0.8,0.8c0,1.5,0,3,0,4.5c0,0.7-0.3,0.9-0.9,0.7c-0.2-0.1-0.5-0.2-0.7-0.3
		c-1.1-0.7-2.3-1.3-3.4-2c-0.8-0.5-1.6-1.1-2.4-1.6c-0.4-0.2-0.7-0.5-1-0.8c-0.4-0.3-0.6-0.2-0.7,0.2c-0.2,1.1-0.3,2.2-0.5,3.2
		c-0.1,0.8-0.2,1.6-0.2,2.4c-0.1,1.2-0.1,2.4-0.1,3.6c0,0.1,0.1,0.2,0.1,0.3c0,0.8-0.1,1.7-0.1,2.5c0,0.4,0.2,0.6,0.5,0.7
		c0.6,0,1.1,0.1,1.7,0c0.3,0,0.5-0.3,0.6-0.6c0.1-0.8,0.1-1.6,0.2-2.4c0-0.4,0-0.8,0-1.2c0-0.5,0.1-1,0.1-1.5c0-0.3,0-0.7,0.1-1
		c0-0.2,0.1-0.5,0.4-0.5c0.4-0.1,0.7-0.1,1,0.1c0.7,0.5,1.3,1,2,1.5c1.1,0.8,2.2,1.7,3.3,2.5c0.6,0.5,1.2,0.9,1.8,1.4
		c0.1,0,0.2,0.1,0.2,0.1c0.1-0.1,0.1-0.2,0.1-0.3C28.6,82.2,28.6,81.7,28.7,81.2z"/>
	<path class="st1" d="M21.9,23.3c0.8-0.2,1.5-0.4,2.3-0.6c0.3-0.1,0.6,0,0.8,0.1c0.7,0.1,1.3,0.2,1.9,0.4c1.2,0.3,2.3,0.7,3.5,1.1
		c0.6,0.2,1,0.7,1.2,1.3c0.1,0.2,0,0.4,0,0.6c-0.2,0.7-0.5,1.1-1,1.5c-0.3,0.3-0.7,0.2-1.1,0.1c-0.6-0.2-1.1-0.6-1.7-0.8
		c-0.6-0.2-1.3-0.5-1.9-0.6c-1.2-0.1-2.3,0.2-3.3,1c-0.9,0.6-1.5,1.4-1.8,2.5c-0.2,0.6-0.1,1.2,0.1,1.8c0.2,0.4,0.4,0.9,0.6,1.3
		c0.3,0.5,0.7,0.8,1.3,0.9c0.8,0.1,1.5-0.1,2.2-0.3c0.9-0.2,1.8-0.4,2.8-0.7c0.5-0.1,1.1-0.3,1.6-0.3c0.7-0.1,1.6,0.5,1.8,1.3
		c0.3,1.1,0.2,2.2-0.4,3.2c-0.2,0.4-0.6,0.7-1,0.9c-0.8,0.5-1.6,0.8-2.5,1.1c-0.4,0.1-0.9,0.2-1.3,0.2c-0.8,0-1.7,0-2.5,0
		c-0.2,0-0.4-0.1-0.6-0.1c-0.1,0-0.2-0.1-0.2-0.1c0.1-0.1,0.1-0.2,0.2-0.2c0.4-0.1,0.7-0.2,1.1-0.2c0.5,0,1.1,0,1.7-0.1
		c1.4-0.1,2.6-0.7,3.8-1.5c0.1-0.1,0.2-0.1,0.3-0.1c0.4-0.1,0.5-0.4,0.6-0.7c0-0.1,0-0.1,0-0.2c-0.1,0-0.2-0.1-0.3,0
		c-0.7,0.3-1.4,0.7-2.1,1c-0.8,0.4-1.7,0.7-2.6,0.8c-0.6,0.1-1.2,0-1.8-0.1c-0.1,0-0.3,0-0.4,0c-0.7,0-1.5,0-2.2,0
		c-0.2,0-0.5,0-0.7-0.1c-0.5-0.1-0.9-0.1-1.4-0.3C18,37,17.4,36.4,17,35.6c-0.4-0.8-0.7-1.6-0.7-2.5c0-0.3-0.1-0.7-0.2-1
		c0-0.2,0-0.4,0.1-0.6c0.1-1.2,0.4-2.5,1-3.6c0.3-0.6,0.7-1.2,1.2-1.8c0.6-0.7,1.4-1.4,2.1-2C20.9,23.8,21.4,23.6,21.9,23.3
		 M18.7,27.4c-0.3,0.7-0.7,1.4-1,2.1c-0.4,0.9-0.5,1.9-0.4,2.8c0,0.4,0.1,0.8,0.3,1.2c0.4,1.3,1,2.3,2.2,2.8c1,0.5,2.1,0.6,3.2,0.7
		c0.4,0,0.9-0.1,1.3,0c0.6,0.1,1.1-0.1,1.7-0.2c1.3-0.4,2.5-1,3.6-1.7c0.3-0.2,0.6-0.4,0.8-0.6c0.1-0.1,0.1-0.4,0.1-0.4
		c-0.5-0.5-1-0.8-1.8-0.8c-0.6,0-1.1,0.4-1.7,0.6c-0.6,0.2-1.3,0.4-1.9,0.6c-0.5,0.1-1,0.2-1.6,0.2c-0.5,0-1,0-1.4-0.2
		c-0.5-0.2-0.9-0.6-1.2-1c-0.6-0.9-1-1.8-1.1-2.8c0-0.3,0.1-0.7,0.3-1c0.5-1.5,1.5-2.8,3-3.5c1-0.5,2.1-0.8,3.3-0.4
		c0.7,0.2,1.4,0.4,2.1,0.7c0.9,0.4,1.7,0.3,2.5-0.3c0.4-0.3,0.4-0.4,0.1-0.7c-0.5-0.3-1-0.6-1.5-0.9c-1.1-0.6-2.2-0.8-3.4-0.8
		c-0.7,0-1.3,0-2,0.1c-0.8,0.1-1.6,0.3-2.3,0.7C20.4,25,19.5,26.1,18.7,27.4z"/>
	<path class="st1" d="M21.5,52c0-0.7,0-1.3,0.1-1.9c0.1-1,0.1-1.9,0.4-2.9c0.3-0.7,0.7-1.2,1.5-1.3c0.8-0.1,1.5,0.1,2,0.7
		c0.4,0.4,0.7,1,0.7,1.6c0,1.1,0,2.1,0.1,3.2c0,0.4,0,0.8-0.1,1.3c0,0.7-0.1,1.3-0.1,2c0,0.3,0,0.7-0.1,1c-0.1,0.9-0.1,1.8-0.2,2.7
		c0,0.4-0.1,0.7-0.1,1.1c0,0.7-0.6,1.1-1.2,1.3c-0.5,0.1-1.1,0.1-1.6,0c-0.3-0.1-0.7-0.1-1-0.1c-0.5-0.1-0.9-0.6-0.9-1.2
		c0-0.5,0-1.1,0.1-1.6c0-0.7,0.1-1.4,0.1-2.1c0-0.5,0-1,0.1-1.5c0-0.4,0.1-0.9,0.1-1.3C21.5,52.6,21.5,52.3,21.5,52 M22.3,54.5
		c0,0.6,0,1.3-0.1,1.9c0,0.1,0.1,0.3,0.1,0.4c0,0.8-0.1,1.7-0.1,2.5c0,0.1,0.1,0.3,0.3,0.4c0.5,0.3,1.1,0.4,1.7,0.3
		c0.4,0,0.5-0.2,0.5-0.4c0.1-0.7,0.1-1.3,0.2-2c0-0.5,0.1-0.9,0.1-1.4c0-0.3,0.1-0.6,0.1-0.9c0.1-0.6,0.1-1.3,0.2-1.9
		c0.1-0.6,0.2-1.1-0.1-1.7c-0.1-0.3-0.1-0.6-0.1-0.9c0.1-0.7,0.2-1.4,0.2-2.1c0-0.4-0.1-0.7-0.4-0.9c-0.4-0.3-0.8-0.6-1.2-0.8
		c-0.4-0.2-0.9,0-1,0.4c-0.1,0.7-0.2,1.4-0.3,2.2c0,0.3,0,0.6,0,0.8c0,0.9-0.1,1.9-0.1,2.8C22.3,53.7,22.3,54.1,22.3,54.5z"/>
	<path class="st1" d="M19.5,161.1c0.2-0.3,0.3-0.5,0.5-0.8c0.3-0.4,0.7-0.4,0.9,0c0.3,0.6,0.6,1.3,0.9,1.9c0.1,0.2,0.2,0.4,0.2,0.6
		c0,0.1,0,0.2-0.1,0.2c-0.5,0-0.9,0.1-1.4,0.1c-0.4,0-0.7-0.1-1.1-0.2c-0.4-0.1-0.5-0.4-0.4-0.8C19.2,161.8,19.4,161.4,19.5,161.1z"
		/>
</g>
</svg>
