<?xml version="1.0" encoding="utf-8"?>
<!-- Generator: Adobe Illustrator 26.2.1, SVG Export Plug-In . SVG Version: 6.00 Build 0)  -->
<svg version="1.1" id="Layer_1" xmlns="http://www.w3.org/2000/svg" xmlns:xlink="http://www.w3.org/1999/xlink" x="0px" y="0px"
	 viewBox="0 0 112.6 130.5" style="enable-background:new 0 0 112.6 130.5;" xml:space="preserve">
<style type="text/css">
	.st0{fill:#000;}
	.st1{fill:#000;stroke:#000;stroke-miterlimit:10;}
</style>
<g>
	<path class="st0" d="M78.7,77.9c0.7,0.7,1.3,1.4,2,2.1c0.7,0.8,1.6,1.4,2,2.5c0.2,0.6,0.7,1,1,1.6c0.5,1.1,1.4,1.9,2.2,2.7
		c0.1,0.1,0.2,0.3,0.2,0.4c-0.3,0.6,0.2,0.9,0.6,1.2c1.3,1.1,2.7,2,3.7,3.4c0.9,1.1,1.9,2.1,3.2,2.8c1.2,0.6,2,1.7,2.7,2.9
		c0.9,1.7,1.8,3.4,2.7,5c0.3,0.5,0.7,1.1,0.8,1.6c0.2,0.8,0.4,1.7,0.5,2.6c0,0.3,0.2,0.5,0.4,0.7c0.4,0.4,0.4,1.1,0.6,1.6
		c0.2,0.5,0.3,0.6,0.7,0.2c0.2-0.2,0.3-0.2,0.5,0c0.1,0.2,0.3,0.4,0.4,0.6c0.3,0.4,0.6,0.8,1,1.2c1.6,1.3,3.5,2.2,5.2,3.3
		c1.1,0.8,2.3,1.5,3.2,2.5c0.4,0.4,0.5,0.8,0.3,1.2c-0.3,0.5-0.7,0.9-1.1,1.3c-0.1,0.1-0.2,0.2-0.3,0.3c-0.2,0.3-0.4,0.6-0.9,0.4
		c-0.3-0.1-0.6-0.1-0.7,0.4c0,0.1,0,0.1-0.1,0.2c0.1,0,0.2,0,0.2,0c0.1,0,0.2-0.1,0.3-0.2c0.1,0,0.2,0,0.3,0
		c-0.1,0.1-0.1,0.3-0.2,0.3c-0.3,0.1-0.7,0.3-1,0.3c-1.4,0.1-2.8,0.2-4.1,0.2c-1.2-0.1-2.4-0.4-3.6-0.6c-0.1,0-0.3,0.1-0.4,0.2
		c-0.4,0.9-1,1.3-2,1.5c-1.1,0.2-2.1-0.1-3.1-0.6c-0.8-0.4-1.7-0.7-2.5-1c-0.1,0-0.3,0-0.4,0c-1.1,0.8-2.3,0.7-3.5,0.5
		c-1.3-0.2-2.6-0.7-3.8-1.4c-1.4-0.8-2.7-1.7-4-2.6c-1.4-0.9-2.8-1.9-4.2-2.9c-1.1-0.7-2.1-1.5-3.2-2.3c-0.1-0.1-0.1-0.3-0.1-0.4
		c-0.1-0.2-0.2-0.4-0.4-0.5c-0.9-0.2-1.8-0.4-2.6-0.6c-1.1-0.3-2.1-0.6-3.2-0.9c-0.1,0-0.3,0.1-0.3,0.1c0,0.2-0.1,0.4,0,0.5
		c0.5,0.4,1,0.7,1.5,1.1c1.4,1,2.8,2.1,4.3,3.1c1.2,0.8,2.5,1.6,3.8,2.3c0.7,0.4,1.5,0.6,2.2,0c0.1-0.1,0.2,0,0.4,0
		c0,0.1,0,0.3-0.1,0.3c-0.4,0.2-0.7,0.5-1.1,0.5c-2.2,0.2-4.1-0.6-5.9-1.8c-1.9-1.3-3.8-2.6-5.7-3.9c-0.4-0.2-0.7-0.5-1-0.8
		c-0.3-0.3-0.7-0.4-1.1-0.5c-0.4-0.1-0.9-0.2-1.3-0.3c0,0,0-0.1-0.1-0.1c-0.2,0-0.3,0-0.5,0c0.1,0.1,0.2,0.1,0.3,0.3
		c0.1,0.1,0.2,0.3,0.2,0.4c-0.2,0.1-0.4,0.3-0.5,0.2c-0.4-0.3-0.8,0-1.2,0c-0.4,0-0.8,0-1.1-0.1c-1.6-0.6-3.2-1.3-4.7-1.9
		c-0.6-0.2-1.2-0.3-1.8-0.2c-0.8,0.1-1.6,0-2.4-0.1c-0.4,0-0.9-0.1-1.3-0.2c-0.7-0.1-1.4-0.2-2.1-0.3c-0.8-0.1-1-0.1-1.3,0.6
		c-0.7,1.5-1.4,3.1-2,4.6c-0.1,0.2,0,0.4,0,0.7c0.2,0,0.4-0.1,0.5-0.1c0.5,0,0.9-0.1,1.4-0.1c0.9,0,1.9,0,2.7,0.2
		c0.8,0.2,1.7,0.5,2.2,1.2c0.1,0.1,0.3,0.1,0.4,0.2c0.4,0,0.7,0,1.1,0.1c0.6,0.1,0.8,0.6,0.5,1.1c-0.3,0.4-0.5,0.7-0.8,1.1
		c-0.2,0.3-1,0.4-1.3,0.2c-0.3-0.2-0.3-0.5,0-0.6c0.1-0.1,0.4-0.3,0.4-0.4c-0.1-0.3-0.5-0.2-0.6-0.1c-0.7,0.7-1.4,0.3-2.1,0.2
		c-0.4-0.1-0.8-0.3-1.1-0.5c-0.1,0-0.1-0.2-0.2-0.3c0.1-0.1,0.3-0.2,0.4-0.2c0.5,0.1,1,0.2,1.5,0.3c0.1,0,0.2,0,0.3,0
		c-0.1-0.1-0.1-0.2-0.2-0.3c-0.5-0.2-1.1-0.5-1.6-0.6c-0.3-0.1-0.6,0.2-0.9,0.2c-0.9,0-1.9,0-2.8-0.1c-0.1,0-0.3-0.1-0.4-0.2
		c-0.4-0.3-0.8-0.2-1.1,0.2c-0.1,0.1-0.4,0.2-0.6,0.2c-0.5,0-1-0.2-1.4-0.2c-0.5,0-1-0.1-1.4,0c-0.5,0.1-1,0-1.4-0.2
		c-0.3-0.2-0.5-0.1-0.7,0.2c-0.8,1.1-1.5,2.2-2.3,3.3c-0.1,0.1,0,0.4,0.1,0.5c0.5,0.4,1.1,0.7,1.6,1.1c0.9,0.6,1.8,1.3,2.6,2
		c0.6,0.5,1,1.2,1.5,1.8c0.2,0.2,0.3,0.2,0.6,0.1c0.5-0.3,1.1-0.2,1.6,0.1c1.1,0.6,2.2,1.2,2.9,2.2c0.1,0.2,0.3,0.4,0.4,0.7
		c0.1,0.4-0.1,0.7-0.5,0.7c-0.8,0.1-1.3-0.3-1.9-0.8c-0.1-0.1-0.2-0.2-0.4-0.3c-0.5-0.5-0.5-0.5-1,0c-0.4,0.3-0.8,0.5-1.2,0.7
		c-0.4,0.2-1.2-0.3-1.3-0.7c0-0.1,0.2-0.4,0.3-0.5c0.4-0.2,0.4-0.4,0.1-0.7c-0.2-0.2-0.4-0.4-0.6-0.6c-0.2-0.1-0.3-0.2-0.5-0.2
		c-1.6-0.4-3.2-0.9-4.5-2c-0.4-0.3-0.6-0.9-0.8-1.3c-0.2-0.4-0.4-0.4-0.7-0.2c-1,1-1.9,2-3,2.9c-0.6,0.5-1.3,1-1.9,1.4
		c-0.9,0.7-1.8,1.5-2.8,2.2c-0.6,0.5-1.2,0.8-2,0.7c-0.7,0-1.1,0.3-1.4,0.8c-0.3,0.3-0.6,0.6-0.9,0.7c-0.1,0.1-0.5,0-0.6-0.1
		c-0.1-0.1-0.1-0.4-0.1-0.6c0.5-1.2,1.4-1.9,2.5-2.6c0.6-0.4,1.2-0.9,1.7-1.4c1.3-1.2,2.6-2.4,3.9-3.6c0.3-0.3,0.6-0.5,0.9-0.7
		c0.1-0.1,0.1-0.2,0.2-0.2c-0.1-0.1-0.2-0.1-0.3-0.2c0,0-0.1,0-0.1,0c-1.4,0-2.8-0.1-4.2-0.1c-0.5,0-1.1-0.1-1.6-0.1
		c-0.2,0-0.4,0.1-0.6,0.2c-0.1,0-0.2,0.1-0.3,0.2c0-0.1,0-0.2-0.1-0.3c-0.1-0.1-0.2-0.2-0.3-0.2c-1.1,0.8-2.2,0.3-3.3-0.1
		c-0.5-0.1-0.9-0.1-1.3,0.3c-0.5,0.5-1.1,0.9-1.6,1.4c-0.5,0.5-1.2,0.2-1.4-0.5c-0.3-1,0.2-2.1,1.2-2.5c0.4-0.2,1-0.1,1.5-0.1
		c0.5,0,0.9,0.2,1.3,0.2c0.1,0,0.3-0.2,0.3-0.3c0.3-0.8,0.9-1,1.6-0.8c0.1,0,0.2,0,0.2,0c1.1-0.1,2.1,0.3,3.2,0.5
		c0.2,0,0.4,0,0.5-0.1c0.5-0.3,0.9-0.5,1.5-0.5c0.1,0,0.2-0.1,0.3-0.1c-0.1-0.1-0.1-0.2-0.2-0.2c-0.5-0.2-1-0.4-1.5-0.7
		c-0.2-0.1-0.4-0.4-0.7-0.6c-0.2-0.1-0.4-0.2-0.6-0.2c-0.4,0-0.2,0.3-0.3,0.5c-0.1,0.2-0.2,0.4-0.3,0.7c-0.2-0.1-0.5-0.2-0.7-0.3
		c-0.3-0.4-0.5-1.1-0.3-1.4c0.3-0.4,1-0.7,1.6-0.5c1.1,0.4,2.2,0.4,3.3,0.6c1.2,0.2,2.3,0.2,3.5,0.6c0.9,0.4,1.9,0.6,2.9,0.8
		c0.4,0.1,0.8-0.1,1-0.5c0.4-0.7,0.8-1.3,1.2-1.9c0.3-0.4,0.7-0.8,1.1-1.2c0.1-0.1,0.1-0.2,0.2-0.3c-0.1,0-0.2-0.1-0.4-0.1
		c-0.2,0-0.4,0.1-0.7,0.1c-0.2,0-0.4,0.1-0.5,0.1c0.1,0.1,0.2,0.2,0.3,0.4c0.3,0.3,0.1,0.6-0.3,0.7c-0.7,0.3-1.3,0-2-0.1
		c-0.4,0-0.5,0-0.6,0.4c-0.1,0.3-0.3,0.5-0.6,0.4c-0.8-0.2-1.6-0.4-2.3-0.8c-0.7-0.4-1-1.2-0.7-2c0.1-0.3,0.4-0.5,0.8-0.3
		c0.7,0.3,1.4,0.5,2.1,0.9c0.4,0.2,0.8,0.2,1.2,0c0.6-0.2,1.2-0.3,1.8-0.5c0.1,0,0.2-0.1,0.3-0.1c0-0.1-0.1-0.2-0.1-0.3
		c-0.5-0.4-1-0.8-1.4-1.2c-0.2-0.2-0.4-0.4-0.4-0.7c0-0.4,0.4-0.3,0.6-0.3c0.4,0,0.8,0.2,1.1,0.4c0.4,0.3,0.8,0.4,1.2,0.7
		c0.3,0.2,0.9,0.1,0.6,0.8c-0.1,0.2,0.4,0.4,0.6,0.3c0.2-0.1,0.5-0.3,0.6-0.6c0.5-0.9,1.2-1.8,1.5-2.8c0.3-0.8,0.2-1.7,0.2-2.6
		c0-0.1-0.2-0.3-0.4-0.4c-1.5-0.6-3-1.3-4.5-1.9c-1.3-0.5-2.5-1.1-3.6-1.9c-0.5-0.4-1.1-0.7-1.7-1c-0.9-0.3-1.8-0.5-2.7-0.8
		c-1.3-0.5-2.2-1.4-2.5-2.9c0-0.3-0.3-0.6-0.5-0.8c-0.7-0.6-1.5-1.1-2.2-1.8c-2.3-2.4-4.6-4.7-6.3-7.6c-0.8-1.3-1.5-2.7-2.1-4.1
		c-0.8-1.8-1.5-3.6-2.1-5.4c-0.5-1.4-1-2.9-1.4-4.4c-0.3-1.2-0.5-2.5-0.8-3.8c-0.1-0.7-0.3-1.5-0.5-2.2C9,67,9,66.7,9,66.3
		c-0.1-1.1-0.1-2.1-0.2-3.2c0-0.7-0.1-1.4-0.1-2.1c0-0.8-0.1-1.6-0.1-2.4c0-0.7,0.2-1.5,0.3-2.2c0-0.3,0-0.6,0-0.9
		c0.1-1.1,0.3-2.2,0.4-3.4c0.1-0.8,0.2-1.7,0.3-2.5c0.1-0.9,0.3-1.7,0.4-2.6c0.1-0.8,0.3-1.5,0.4-2.3c0.2-1.1,0.4-2.3,0.6-3.4
		c0.2-1.1,0.4-2.2,0.6-3.4c0.3-1.6,0.6-3.1,0.9-4.7c0.1-0.5,0.2-1.1,0.3-1.6c0.1-0.6,0.2-1.2,0.3-1.8c0.1-0.5,0.1-1,0.2-1.5
		c0.1-1.2,0.3-2.4,0.9-3.5c0.1-0.1,0.1-0.4,0-0.6c-0.4-1.2-0.8-2.4-1.2-3.7c-0.2-0.8-1-1.2-1.5-1.8c-0.6-0.6-1.3-0.7-2.1-0.8
		c-0.6,0-1.2,0.2-1.7,0.4c-0.3,0.1-0.5,0.5-0.9,0.3c-0.7,0.4-1.5,0.2-2.1,0.5c-0.7,0.3-1.4,0.4-2.1,0.5c-0.4,0.1-0.7,0.4-1.1,0.6
		c-0.3,0.3-0.7,0.5-1.1,0.2C0,20.4-0.1,20,0,19.4c0.2-1.1,0.9-1.8,1.6-2.5c0.5-0.5,1.1-0.9,1.6-1.4c0.3-0.3,0.5-0.7,0.8-1.1
		c0.1-0.1,0.1-0.2,0.1-0.2c0.9-0.1,1-0.9,1.5-1.3c0.4-0.4,0.8-0.8,1.1-1.3c0.2-0.2,0.3-0.5,0.3-0.7C7,9.9,7.3,9.2,7.7,8.4
		c0.5-0.9,1-1.8,1.7-2.6c0.5-0.6,1.1-1.2,1.8-1.7c1.2-0.9,2.4-1.8,3.7-2.5C16,1,17.2,0.6,18.5,0.2c0.5-0.2,1.1,0,1.6,0
		c0.5,0,1.1,0.2,1.5,0C22,0,22.3,0,22.7,0c0.2,0,0.4,0,0.5,0.1c1.3,0.6,2.6,1.3,3.7,2.2c0.3,0.3,0.8,0.4,1.1,0.7
		c0.4,0.4,0.8,0.9,1,1.4c0.7,1.2,1.4,2.4,1.7,3.8c0.1,0.4,0.1,0.9,0.3,1.3c0.4,1,0.8,1.9,1.2,2.9c0.4,1.1,0.7,2.2,1.1,3.4
		c0.3,0.9,0.7,1.8,1,2.7c0.3,1,0.4,2.1,0.7,3.1c0.3,1.1,0.9,2.2,1.2,3.2c0.1,0.4,0.1,0.8,0.3,1.2c0.2,0.6,0.5,1.1,0.7,1.6
		c0.1,0.1,0.1,0.4,0,0.5c-0.2,0.3-0.1,0.5,0,0.8c0.3,0.5,0.4,1,0.6,1.5c0.2,0.6,0.3,0.7,0.9,0.5c0.9-0.3,1.7,0.2,2.3,0.7
		c1.2,1,2.3,2,3.4,3.1c0.9,0.9,1.5,1.9,2,3c0.7,1.6,2,2.8,3.2,3.9c0.6,0.5,1,1.2,1.5,1.8c1,1.4,2,2.8,3.1,4.1c1,1.2,2.1,2.4,3.1,3.6
		c1,1.3,1.8,2.6,2.7,3.9c0.4,0.6,0.9,1.1,1.3,1.7c0.9,1.1,1.7,2.2,2.6,3.3c0.3,0.4,0.7,0.8,1.1,1.2c0.9,1.1,1.7,2.2,2.6,3.2
		c0.4,0.4,0.8,0.9,1.2,1.3c0.8,0.9,1.7,1.7,2.4,2.7c1.1,1.4,2.2,2.8,3.3,4.2c0.6,0.9,1.1,1.8,1.7,2.7c0.1,0.1,0.2,0.3,0.3,0.3
		c0.9,0.1,1.2,0.9,1.6,1.5C78.5,77.6,78.6,77.7,78.7,77.9 M68.3,108.6c1.1,0.4,2.2,0.7,3.3,1.1c0.4,0.1,0.7,0.2,1.1,0.3
		c0.1,0,0.2,0,0.3-0.1c-0.1-0.1-0.2-0.2-0.3-0.2c-1.4-0.6-2.8-1.1-4.1-1.8c-1.3-0.6-2.5-1.5-3.8-2.2c-1.1-0.6-2.1-1.2-3.2-1.8
		c-1.1-0.7-2.2-1.3-3.3-2c-1.5-0.9-3-1.8-4.2-3.1c-0.1-0.1-0.2-0.2-0.3-0.3c-0.5-0.5-1.1-1.1-1.6-1.7c-0.2-0.2-0.3-0.5-0.5-0.6
		c-1.7-1.1-3.4-2.2-5.1-3.4c-0.6-0.4-1.1-0.8-1.6-1.2c-0.1-0.1-0.2-0.3-0.2-0.5c0-0.1,0.2-0.2,0.4-0.3c0.1,0,0.2,0,0.3,0
		c0.8,0,1.5,0.4,2.1,0.8c1.4,1,2.8,2,4.3,3c0.4,0.3,0.9,0.5,1.3,0.7c0.3,0.1,0.6,0.1,0.9,0.3c1.2,0.9,2.6,1.7,4,2.1
		c1.3,0.4,2.6,0.8,3.9,1.1c0.1,0,0.2,0,0.3,0c0.2-0.2,0.4-0.1,0.7,0c0.4,0.2,0.7,0.4,1.1,0.5c0.4,0.2,0.9,0.3,1.3,0.4
		c0.1,0,0.3-0.1,0.4-0.2c-0.1-0.1-0.2-0.2-0.4-0.2c-1.6-0.4-3.1-1.1-4.5-2c-1.3-0.8-2.6-1.6-4-2.4c-1.6-0.9-3.2-1.7-4.4-3
		c-0.3-0.3-0.7-0.5-0.9-0.9c-0.2-0.2-0.3-0.5,0.2-0.6c0.2,0,0.4-0.1,0.7-0.1c0.1,0,0.1,0,0.2,0c0-0.1,0-0.1-0.1-0.2
		c-0.3-0.4-1.1-0.4-1.5-0.1c-0.3,0.3-0.6,0.3-1,0.3c-1.1-0.2-2.1-0.7-3-1.2c-0.3-0.1-0.7-0.6-0.7,0.2c0,0.1-0.1,0.2-0.2,0.2
		c-0.6,0.3-1.2,0.5-1.8,0.1c-0.3-0.2-0.6-0.3-0.9-0.4c-1.1-0.5-2.3-1.1-3.4-1.6c-0.1,0-0.3,0-0.3,0.1c-0.4,0.5-0.9,0.8-1.4,0.5
		c-1-0.5-2.1-1-3.1-1.6C33.7,86,32.4,85,31.1,84C30,83.1,29,82.1,28,81.2c-0.3-0.2-0.4-0.7-0.9-0.6c-0.1,0-0.2-0.1-0.3-0.2
		c-1.1-1.2-2.3-2.3-3.3-3.5c-1.1-1.5-2.1-3-3-4.6c-1.6-2.8-2.3-6-3.1-9.1c-0.2-0.7-0.2-1.5-0.3-2.3c-0.1-1-0.3-1.9-0.4-2.9
		c-0.1-0.7,0-1.4,0-2c0-1.1,0.3-2.2,0.8-3.2c0.4-0.7,0.8-1.5,1-2.3c0.2-1.3,0.6-2.6,1.5-3.6c0.1-0.1,0.2-0.2,0.4-0.2
		c0,0.2,0.1,0.4,0.1,0.5c-0.2,0.4-0.4,0.7-0.6,1.1c-0.8,2.2-1,4.4-0.3,6.6c0.1,0.2,0,0.4,0,0.5c-0.2-0.1-0.5-0.2-0.5-0.4
		c-0.2-0.6-0.4-1.2-0.5-1.8c0-0.1-0.1-0.3-0.1-0.4c-0.1,0.1-0.2,0.2-0.2,0.4C18,54.6,18,56,17.9,57.4c0,0.1,0,0.2,0,0.3
		c0.1,0.8,0.2,1.6,0.4,2.4c0.1,0.9,0.2,1.8,0.5,2.7c0.4,1.4,0.9,2.8,1.3,4.2c0.5,1.6,1,3.2,1.9,4.7c0.7,1.3,1.4,2.7,2.3,3.9
		c0.9,1.2,1.7,2.5,2.5,3.7c0.1,0.2,0.3,0.4,0.5,0.4c0.6,0,1.1,0.2,1.7,0.5c0.8,0.4,1.5,1,2.2,1.6c1.6,1.2,3.2,2.5,4.8,3.7
		c0.5,0.4,1.1,0.7,1.6,1.1c0.1,0,0.1,0,0.2,0c0-0.1,0-0.2-0.1-0.2c-0.4-0.3-0.8-0.7-1.1-1c-0.1-0.1-0.2-0.4-0.2-0.6
		c0.1-0.2,0.3-0.3,0.5-0.3c0.6-0.1,1.3,0.1,1.8,0.4c1.5,1.1,3,2.1,4.8,2.7c0.2,0.1,0.5,0.2,0.7,0.3c0-0.3,0-0.5,0-0.8
		c0-0.1-0.1-0.2-0.1-0.2c0-0.2,0-0.4,0-0.5c0.3-0.4,0.6-0.5,1-0.2c0.6,0.5,1.2,1.1,1.8,1.5c0.9,0.6,1.8,1.1,2.7,1.6
		c0.1,0,0.2,0,0.3,0.1c0-0.1,0-0.2,0-0.3c-0.3-0.5-0.5-1.1-0.8-1.6c-0.1-0.1,0-0.3,0.1-0.5c0.1-0.1,0.3-0.3,0.4-0.3
		c0.3,0.1,0.6,0.2,0.8,0.4c0.9,0.9,1.8,1.6,2.9,2.2c0.7,0.4,1.4,0.8,2.3,0.7c0.2,0,0.4-0.1,0.4-0.3c0.1-0.4,0.2-0.8,0.3-1.2
		c0-0.1-0.1-0.3-0.2-0.4c-0.6-0.6-1-0.9-0.4-2c0.2-0.3,0.2-0.3,0.4-0.1c0.6,0.6,1.2,1.1,1.8,1.6c0.3,0.2,0.8,0.3,1.2,0.5
		c1.4,0.9,2.8,1.8,4.4,2.1c0.4,0.1,0.4,0,0.4-0.3c0-0.9-0.4-1.6-1.1-2.1c-0.5-0.4-1.1-0.7-1.6-1.2c-0.5-0.4-0.4-0.7,0.2-0.9
		c0.1-0.1,0.3-0.1,0.4,0c0.4,0.1,0.7,0.3,1.1,0.5c1.4,0.7,2.7,1.4,4.1,2.1c0.1,0.1,0.2,0.1,0.3,0.1c0-0.1,0-0.2-0.1-0.3
		c-0.4-0.4-0.8-0.8-1.2-1.2c-0.2-0.2-0.4-0.5-0.3-0.6c0.2-0.3,0.5-0.6,0.7-0.6c0.7,0.1,1.3,0.3,1.9,0.7c0.4,0.3,0.9,0.6,1.4,0.8
		c0.1,0.1,0.3,0,0.4,0c-0.1-0.1-0.1-0.2-0.2-0.3c-0.1-0.2-0.3-0.3-0.5-0.5c-0.2-0.3-0.2-0.5,0.1-0.7c0.2-0.1,0.5-0.2,0.8-0.1
		c0.7,0.2,1.4,0.4,2.1,0.6c0.2,0.1,0.5,0.1,0.8,0c1-0.3,1-0.4,0.3-1.1c-0.1-0.2-0.3-0.4-0.4-0.5c-0.2-0.4,0.1-0.7,0.4-0.9
		c0.1-0.1,0.4,0.1,0.6,0.2c0.3,0.2,0.6,0.5,0.9,0.7c0.3,0.2,0.6,0.2,1,0.3c0.2,0,0.5,0,0.8,0c-0.1-0.2-0.2-0.4-0.3-0.6
		c0-0.1-0.1-0.2-0.1-0.2c-0.4-0.4-0.8-0.7-1.2-1.1c-0.1-0.1-0.2-0.4-0.2-0.5c0-0.1,0.3-0.3,0.5-0.3c0.3,0,0.5,0.2,0.8,0.3
		c0,0,0.1,0,0.1,0.1c0,0,0-0.1,0-0.1c-0.3-0.6-0.7-1.3-1.1-1.9c-0.2-0.3-0.4-0.4-0.7,0c-0.4,0.4-0.8,0.9-1.3,1.2
		c-1.1,0.7-2.3,1.1-3.6,1.3c-0.6,0.1-1.3,0.2-1.9,0.3c-0.7,0-1.4,0.1-2.1,0.4c-1.6,0.7-3.2,0.4-4.8-0.1c-0.3-0.1-0.7-0.1-0.9,0.1
		c-0.4,0.4-1,0.6-1.5,0.5c-1-0.2-2.1-0.5-3.1-0.8c-0.8-0.2-1.6-1-2.4,0.1c-0.1,0.1-0.3,0.2-0.4,0.2c-1,0.2-1.9,0.1-2.8-0.4
		c-0.7-0.3-1.3-0.7-1.9-1.1C48.2,82,48,82,47.9,81.9c0,0.1,0,0.2-0.1,0.4c-0.1,0.2-0.1,0.4-0.2,0.5c-0.6,0.7-1.4,0.5-2,0.4
		c-1.6-0.4-3-1.2-4.2-2.3c-0.3-0.3-0.6-0.5-1-0.4c-0.5,0.1-1,0.2-1.5,0.2c-1.1,0-2.2-0.4-3.2-0.8c-1.4-0.6-2.6-1.6-3.7-2.8
		c-0.2-0.2-0.5-0.5-0.8-0.6c-1.4-0.4-2.6-1.1-3.8-1.8c-0.3-0.2-0.6-0.4-0.9-0.6c-0.3-0.2-0.2-0.5,0.1-0.7c0.9-0.4,1.7-0.1,2.4,0.3
		c0.1,0,0.2,0.1,0.3,0.1c0-0.1-0.1-0.2-0.1-0.3c0-0.2-0.4-0.3-0.1-0.5c0.2-0.1,0.4-0.3,0.6-0.3c0.6-0.1,1.2,0,1.6,0.6
		c0.3,0.4,0.5,0.7,0.8,1.1c0.3,0.4,0.6,0.9,1.1,1.1c1.2,0.5,2.5,1,3.7,1.4c0.4,0.2,0.9,0.2,1.3,0.4c0.3,0.2,0.3,0.1,0.3-0.2
		c0-0.6,0.5-0.9,1-0.6c0.4,0.3,0.7,0.6,1.1,1c0.3,0.4,0.7,0.7,1.2,0.9c1.2,0.3,2.4,0.7,3.6,1.1c0.1,0,0.3,0.1,0.4,0.1
		c0-0.2-0.1-0.4-0.1-0.6c0-0.2-0.1-0.4-0.2-0.6c0-0.1,0-0.3,0-0.3c0.4-0.4,1.2-0.5,1.6,0c0.6,0.7,1.1,1.4,1.7,2.1
		c0.1,0.1,0.3,0.3,0.4,0.3c0.8,0.2,1.6,0.3,2.4,0.5c0.4,0.1,0.4-0.2,0.3-0.5c-0.1-0.3-0.2-0.6-0.4-0.9c-0.3-0.5,0.1-0.7,0.5-1
		c0.3-0.2,0.6,0,0.8,0.2c0.7,0.7,1.5,1.4,2.2,2.1c0.1,0.1,0.3,0.3,0.5,0.3c0.8,0.1,1.6,0.1,2.4,0.2c0.2,0,0.4,0,0.2-0.3
		c-0.2-0.5,0.2-0.7,0.5-0.9c0.3-0.3,0.5,0,0.7,0.2c0.2,0.1,0.4,0.3,0.5,0.5c0.5,0.7,1.2,0.9,2,0.9c1,0,1.9,0,2.9,0
		c0.4,0,0.5-0.2,0.3-0.5c-0.2-0.4-0.4-0.9-0.7-1.3c-0.3-0.4,0-0.7,0.2-0.9c0.3-0.2,0.6-0.4,1-0.1c0.4,0.4,0.9,0.9,1.4,1.3
		c0.5,0.4,1,0.7,1.5,1c0.2,0.1,0.4,0.1,0.6,0.2c0-0.3,0-0.5-0.1-0.8c-0.2-0.5-0.4-0.9-0.6-1.4c-0.2-0.4-0.1-0.8,0.2-1
		c0.4-0.2,0.6,0,0.9,0.3c0.6,0.6,1.2,1,1.9,1.5c0.3,0.2,0.6,0,0.6-0.3c0.1-0.7,0-1.5,0-2.2c0-0.4,0-0.8-0.1-1.1
		c-0.3-0.9-0.6-1.8-0.9-2.7c-0.1-0.2,0-0.4,0-0.6c0.1,0.1,0.3,0.1,0.4,0.2c0.2,0.1,0.3,0.3,0.4,0.5c0.2,0.4,0.4,0.8,0.6,1.2
		c0.2,0.5,0.3,0.9,0.5,1.4c0,0.1,0.1,0.2,0.2,0.2c0.1,0,0.2-0.1,0.2-0.2c0.1-0.2,0.2-0.4,0.3-0.5c0.3-0.2,0.2-0.4,0.1-0.7
		c-1-1.4-2-2.8-3.1-4.1c-1.4-1.7-2.8-3.3-4.2-4.9c-0.3-0.4-0.6-0.7-0.9-1c-1.1-1.4-2.2-2.8-3.3-4.2c-1.1-1.4-2.3-2.8-3.3-4.2
		c-0.9-1.2-1.7-2.5-2.6-3.8c-1.3-1.7-2.6-3.4-4-5.1c-1.1-1.3-2.2-2.5-3.3-3.7c-0.9-1.1-1.8-2.2-2.6-3.3c-1.1-1.6-2.6-2.9-4.1-4.1
		c-0.9-0.7-1.9-1.3-2.8-2c-1-0.7-1.8-1.6-3-1.9c-0.1,0-0.1-0.2-0.1-0.3c0,0,0.1-0.1,0.2-0.1c0.3,0,0.4-0.2,0.4-0.4
		c0-0.3-0.1-0.6-0.1-0.8c0,0-0.1-0.1-0.2-0.1c0,0-0.1,0.1-0.1,0.1c0,0.1,0,0.2,0.1,0.4c0.1,0.5,0,0.7-0.5,0.6
		c-0.2,0-0.4-0.2-0.6-0.4c-0.3-0.5-0.7-1-0.9-1.6c-0.2-0.7-0.4-1.4-0.5-2.2c-0.1-0.5,0.2-0.6,0.6-0.4c0.1,0.1,0.3,0.1,0.5,0.2
		c0-0.2,0-0.4,0-0.6c0-0.1,0-0.1-0.1-0.2c-0.2-0.7-0.3-1.4-0.5-2.1c-0.3-0.8-0.6-1.7-0.9-2.5c-0.5-1.6-0.9-3.2-1.4-4.8
		c0-0.1-0.1-0.2-0.2-0.3c0,0.1,0,0.2,0,0.3c0,0.3-0.1,0.5-0.1,0.8c-0.2-0.1-0.5-0.2-0.6-0.4c-0.3-0.6-0.4-1.3-0.6-1.9
		c-0.1-0.3,0-0.6,0.4-0.7c0.5-0.2,0.5-0.6,0.4-0.9c-0.5-1.2-1-2.4-1.5-3.7c-0.5-1.3-1.1-2.5-1.6-3.7c-0.1-0.2-0.3-0.5,0.1-0.7
		c0,0,0-0.2,0-0.3c-0.9-1.3-1.5-2.7-3.1-3.4c-0.6-0.3-1.1-0.8-1.7-1c-1-0.3-2.1-0.6-3.2-0.6c-0.6,0-1.1-0.2-1.7-0.2
		c-0.3,0-0.6,0-0.8,0c-0.7,0.3-1.4,0.6-2.1,0.9c-0.6,0.3-1.2,0.4-1.7,0.8c-0.9,0.6-1.8,1.2-2.6,1.8c-0.4,0.3-1,0.6-1.3,1
		c-0.7,1-1.3,2.1-1.9,3.3C8.4,9.5,8.2,10.3,9,10.9c0.1,0,0.1,0.1,0.1,0.1c0,0.7,0.6,0.9,0.9,1.2c0.4,0.5,1.5,0.7,0.8,1.8
		c0,0,0,0.1,0,0.2c0.1,0.3-0.1,0.6-0.4,0.7c-0.3,0.1-0.4,0.3-0.2,0.6c0.1,0.1,0.1,0.3,0.1,0.4c0.2,0.5,0.4,1,1,1.3
		c0.4,0.2,0.9,0.5,1.2,0.8c0.8,0.9,1.4,1.9,1.8,3.1c0.4,1.3,1,2.6,0.9,4c-0.1,0.6-0.1,1.3-0.2,1.9c0,0.1,0,0.3,0,0.4
		c0.1-0.1,0.2-0.1,0.3-0.2c0.3-0.3,0.5-0.1,0.7,0.1c0.2,0.1,0.3,0.4,0,0.6c-0.1,0.1-0.2,0.3-0.2,0.5c-0.1,0.5-0.4,0.6-0.9,0.4
		c-0.1-0.1-0.4-0.1-0.4,0c-0.2,0.5-0.4,0.9-0.5,1.4c-0.2,1.3-0.4,2.7-0.6,4.1c-0.2,1.2-0.5,2.5-0.7,3.7c-0.2,1.4-0.4,2.8-0.7,4.1
		c-0.2,0.9-0.4,1.8-0.6,2.7c-0.3,1.5-0.5,3-0.7,4.5c-0.1,1.4-0.4,2.8-0.5,4.2c-0.2,1.9-0.2,3.8-0.2,5.7c0,1.6,0.2,3.2,0.3,4.7
		c0,0.8,0.1,1.5,0.1,2.3c0,0.3,0.1,0.7,0.2,1c0.2,0.8,0.3,1.5,0.5,2.3c0.4,1.6,0.6,3.2,1.2,4.7c0.7,1.9,1.2,3.8,1.9,5.7
		c0.6,1.5,1.3,2.9,2,4.3c0.1,0.1,0.3,0.2,0.4,0.4c0.3,0.3,0.8,0.6,1,1.1c0.4,1.4,1.6,1.9,2.5,2.7c0.4,0.4,0.9,0.6,1.4,1
		c0.7,0.6,1.2,1.3,1.9,1.9c1.3,1.1,2.7,2.2,4.1,3.3c2.2,1.6,4.5,3.2,6.7,4.7c1.2,0.8,2.4,1.5,3.6,2.2c0.5,0.3,1.1,0.7,1.7,0.7
		c0.5,0,1.1,0.2,1.6,0.3c1.9,0.6,3.7,1.2,5.6,1.7c0.6,0.2,1.2,0.5,1.9,0.1c0.3-0.2,0.6,0.1,0.5,0.5c0,0.1,0.1,0.3,0.2,0.3
		c0.2,0,0.3,0,0.5-0.1c0.5-0.3,1.1-0.2,1.5,0.3c0.1,0.1,0.3,0.3,0.4,0.3c0.5,0,1.1,0,1.6,0c0.2,0,0.4,0,0.5,0.1
		c0.2,0.2,0.1,0.4-0.3,0.5c-0.1,0-0.2,0.1-0.3,0.2c0.1,0.1,0.2,0.2,0.2,0.2c0.2,0.1,0.5,0.1,0.7,0.1c1.5,0.3,2.9,0.7,4.4,1
		c1.5,0.3,2.9,0.6,4.4,0.9c0.2,0,0.4,0,0.5,0c-0.1-0.2-0.1-0.4-0.2-0.6c-0.1-0.1-0.2-0.2-0.3-0.2c-1.5-0.7-3-1.4-4.5-2.2
		c-1.3-0.7-2.6-1.4-3.8-2.2c-1.7-1.1-3.3-2.3-4.9-3.5c-1.1-0.8-2-1.7-3-2.6c-1.4-1.2-2.7-2.4-4-3.7c-1-1-2.3-1.2-3.6-1.4
		c-0.1,0-0.2,0.1-0.2,0.1c0,0.1,0.1,0.1,0.1,0.2c0.2,0.2,0.4,0.3,0.6,0.5c0.8,0.6,1.5,1.1,2.3,1.7c0.1,0.1,0.2,0.3,0.3,0.4
		c-0.1,0-0.3,0-0.4-0.1c-0.9-0.6-1.9-1.1-2.7-1.8c-1.3-1-2.5-2-3.8-3c-0.6-0.5-1.1-1-1.7-1.5c-0.4-0.4-0.9-0.8-1.3-1.2
		c-0.1-0.1-0.1-0.3,0-0.3c0.1-0.1,0.2-0.1,0.3-0.1c0.2,0.1,0.4,0.2,0.5,0.4c1.3,1.2,2.5,2.4,3.9,3.5c0.5,0.4,0.8,1,1.7,0.7
		c1.8-0.4,3.4,0.4,4.8,1.4c1.3,0.9,2.5,2,3.7,3c0.3,0.3,0.7,0.5,1.1,0.7c0.3,0.2,0.8,0.2,0.7,0.7c0,0.1,0.1,0.2,0.2,0.2
		c0.6,0.5,1.3,1,1.9,1.5c1.6,1.2,3.2,2.5,4.9,3.5c1.6,1,3.3,1.8,4.9,2.7c0.8,0.5,1.7,1,2.6,1.4C65.2,107.4,66.7,107.9,68.3,108.6
		 M102.6,112.4c-0.5-0.5-1-1.1-1.5-1.6c0-0.1-0.2-0.1-0.3,0c-0.3,0.6-0.9,0.9-1.4,1.2c-1,0.5-2.1,0.9-3.3,1.2
		c-1.3,0.3-2.6,0.5-3.9,0.8c-0.1,0-0.2,0.1-0.3,0.2c0.1,0.1,0.1,0.3,0.2,0.3c1,0.6,2,1.2,3.1,1.7c1.5,0.7,3,1.4,4.6,2.1
		c1,0.4,2,0.8,3,1.1c1.4,0.4,2.8,0.7,4.2,1c0.6,0.1,1.3,0.2,1.8,0.1c0.6-0.1,1.2-0.5,1.8-0.9c0.4-0.3,0.5-1,0.2-1.3
		c-1-0.9-2-1.8-3.2-2.4c-0.7-0.4-1.4-0.9-2.2-1.4C104.3,113.6,103.5,113,102.6,112.4 M80.8,103.7c-0.1,0-0.2,0-0.3,0
		c-0.9-0.2-1.8-0.5-2.8-0.7c-1.9-0.4-3.7-1.3-5.3-2.3c-0.8-0.5-1.5-1-2.2-1.6c-0.3-0.2-0.5-0.2-0.8,0c-0.3,0.2-0.7,0.4-1,0.5
		c-0.2,0.1-0.3,0.2-0.5,0.3c-0.3,0.2-0.7,0.5-1,0.7c-0.2,0.1-0.3,0.3,0,0.4c0.3,0.2,0.6,0.3,0.9,0.4c1.4,0.7,2.8,1.4,4.3,1.9
		c2.2,0.8,4.3,1.7,6.5,2.3c1,0.3,2.1,0.4,2.9,1.1c0,0,0.1,0,0.1,0c0.6-0.3,1,0.2,1.5,0.3c0.9,0.1,1.8,0.3,2.7,0.4
		c0.5,0.1,0.8-0.3,0.9-0.9c0.1-1.1-0.6-1.9-0.9-2.7c0-0.1-0.4-0.2-0.6-0.1c-0.2,0-0.4,0.3-0.7,0.3c-0.6,0-1.3,0.1-1.9,0
		C82.1,104,81.5,103.8,80.8,103.7 M68.1,96.1c-1.3-0.8-2.6-1.5-3.9-2.3c-1-0.6-2-1.2-2.8-2c-1.1-1.1-2.3-1.8-3.6-2.6
		c-0.2-0.2-0.5-0.2-0.5,0.2c-0.1,0.6-1,1.5-1.5,1.5c-0.7,0-1.4-0.1-2.1-0.2c-0.1,0-0.2,0-0.4,0c0.1,0.1,0.1,0.2,0.2,0.3
		c1.4,1.1,3,1.9,4.5,2.7c1.5,0.8,3.1,1.6,4.5,2.5c1.2,0.7,2.4,1.5,3.8,1.9c1.3,0.4,1.1,0.3,1.7-0.8c0.1-0.1,0.1-0.3,0.2-0.5
		C68.4,96.7,68.4,96.4,68.1,96.1 M90,110.8c0-1.3-0.2-2.5-0.9-3.6c-0.3-0.4-0.5-0.9-0.7-1.3c-0.1-0.2-0.2-0.3-0.3-0.4
		c0,0.2,0,0.4,0,0.6c0,0.1,0.1,0.2,0.1,0.3c0,0.2,0.1,0.3,0,0.5c-0.5,1-1.3,1.9-2.5,1.8c-1.2-0.1-2.4-0.1-3.5-0.4
		c-1.8-0.4-3.5-0.9-5.3-1.5c-2.4-0.8-4.7-1.8-7.1-2.7c-0.1,0-0.2,0-0.4,0c0.1,0.1,0.1,0.3,0.2,0.3c0.9,0.6,1.8,1.3,2.7,1.9
		c1.6,1,3.2,2,4.9,2.7c1.5,0.6,3.1,1.1,4.8,1.1c1.4,0,2.8,0,4.2,0c0.1,0,0.2,0.1,0.3,0.2c-0.1,0.1-0.2,0.2-0.3,0.3
		c-0.2,0.1-0.4,0.2-0.7,0.3c0.2,0.1,0.5,0.1,0.7,0.2c0.7,0.1,1.5,0.2,2.2,0.4C89.2,111.5,89.8,111.4,90,110.8 M94.2,107.9
		c0.2,0.7,0.4,1.4,0.3,2.1c-0.1,0.8-0.5,1.2-1.3,1.2c-0.5,0-0.9,0.3-1.2,0.7c-0.1,0.1-0.1,0.3-0.1,0.4c0.1,0,0.3,0,0.4,0
		c0.6-0.2,1.1-0.5,1.7-0.7c0.1-0.1,0.4-0.1,0.4,0c0.1,0.2,0.1,0.3-0.2,0.4c-0.1,0-0.1,0.2-0.2,0.3c0.1,0,0.3,0,0.4,0
		c0.5-0.1,0.9-0.2,1.4-0.3c1.3-0.3,2.6-0.6,3.6-1.4c0.8-0.6,0.8-1,0.2-1.8c-0.2-0.2-0.3-0.5-0.3-0.7c-0.2-0.6-0.2-1.3-0.8-1.7
		c-0.7-0.5-1.5-1.1-2.2-1.6c-0.4-0.3-0.8-0.6-1.2-0.8c-0.1-0.1-0.2,0-0.4,0c0,0,0,0.1,0,0.1c0.3,0.4,0.5,0.9,0.8,1.3
		c0,0.1-0.1,0.2-0.1,0.3c-0.1,0-0.2-0.1-0.2-0.1c-1-1.2-2-2.4-3.1-3.5c-0.1-0.1-0.2-0.1-0.2-0.2c0,0.1,0,0.3,0.1,0.4
		c0.4,0.5,0.8,0.9,1.2,1.4c0.6,0.7,1.1,1.5,1.7,2.2c0.1,0.1,0,0.4-0.1,0.5c-0.4,0.3-0.8,0.3-1.1,0c-0.1-0.1-0.2-0.1-0.3-0.2
		c0,0.1,0,0.3,0.1,0.4C93.7,106.9,93.9,107.3,94.2,107.9 M93.6,109c-0.2-0.5-0.2-1.1-0.5-1.6c-0.6-1.2-1.4-2.4-1.9-3.7
		c-0.3-0.8-1-1.4-1.5-2.1c-0.9-1.2-1.8-2.4-2.7-3.6c-0.4-0.5-0.8-1-1.2-1.5c-0.2-0.2-0.3-0.3-0.5,0c-0.2,0.4-0.6,0.5-1,0.5
		c-0.2,0-0.3,0-0.1,0.3c0.4,0.6,0.9,1.2,1.3,1.8c1.1,1.6,2.2,3.2,3.3,4.8c0.6,0.9,1.4,1.8,1.9,2.8c0.7,1.2,1.3,2.5,1,4
		c0,0.1,0,0.2,0,0.3c0.1,0,0.2-0.1,0.3-0.1c0.3-0.2,0.5-0.4,0.8-0.5c0.3-0.1,0.8-0.1,0.9-0.3C93.7,109.9,93.6,109.5,93.6,109
		 M73.8,87.8c-0.4,0-0.7,0-1.1,0c-0.3,0-0.7-0.2-0.7,0.4c0,0.1-0.1,0.1-0.2,0.2c-0.4,0.4-0.9,0.5-1.5,0.4c-0.1,0-0.2,0-0.3,0
		c0.1,0.1,0.1,0.2,0.2,0.3c0.9,0.9,1.9,1.8,2.9,2.7c0.5,0.5,1,1,1.5,1.5c0.7,0.6,1.5,1.2,2.2,1.8c0.1,0.1,0.3,0.1,0.4,0
		c0.2-0.3,0.5-0.4,0.9-0.3c0.4,0.1,0.7,0.3,1,0.4c0.2,0.1,0.4,0.2,0.7,0.3c-0.1-0.2-0.1-0.4-0.2-0.6c0,0,0-0.1,0-0.1
		c0.1-0.1,0.1-0.2,0.2-0.4c0.1,0.1,0.3,0.1,0.3,0.3c0.2,0.5,0.3,1.1,0.5,1.6c0.1,0.2,0.1,0.4,0.2,0.6c0,0.1,0.2,0,0.3,0.1
		c0.1-0.5,0.5-0.3,0.8-0.4c0.1,0,0.2-0.2,0.2-0.2c-0.7-0.8-1.3-1.9-2.3-2.4c-0.1-0.1-0.2-0.2-0.3-0.3c-0.1-0.2-0.2-0.4-0.4-0.6
		c-1.6-1.1-2.7-2.5-3.8-4C74.8,88.7,74.5,88.1,73.8,87.8 M69.7,94.8c1.2,0.6,2.5,1.3,3.7,1.9c0.6,0.3,1.2,0.4,1.8,0.6
		c0.1,0,0.4-0.1,0.5-0.1c0-0.2,0-0.4-0.1-0.5c-0.1-0.1-0.2-0.2-0.3-0.3c-0.9-0.7-1.8-1.4-2.6-2.1c-0.7-0.6-1.2-1.2-1.8-1.9
		c-0.8-0.9-1.5-1.8-2.3-2.8c-0.2-0.3-0.5-0.5-0.9-0.2c-0.3,0.2-0.6,0.1-0.9,0.1c-0.3-0.1-0.7-0.1-1-0.3c-0.3-0.1-0.3,0.1-0.3,0.3
		c0.2,0.6,0.2,1.2-0.4,1.6c-0.2,0.2-0.5,0.3-0.7,0.4c-0.2,0.1-0.3,0.3,0,0.4c0.3,0.1,0.5,0.2,0.8,0.4c1.1,0.6,2.2,1.3,3.3,2
		C68.8,94.3,69.2,94.6,69.7,94.8 M90.5,115.4c-0.1-0.1-0.3-0.2-0.4-0.4c-0.6-0.7-1.4-0.9-2.3-0.9c-1,0-2-0.3-2.9-0.4
		c-0.1,0-0.3,0-0.4,0c0.1,0.1,0.1,0.3,0.2,0.4c0.4,0.3,0.9,0.7,1.3,0.9c1.3,0.8,2.7,1.7,4,2.4c1.5,0.8,3.1,1.5,4.6,2.3
		c0.9,0.5,1.9,0.9,2.8,1.4c0.6,0.3,1.2,0.4,1.8,0.3c0.3,0,0.6-0.1,0.8-0.3c0.2-0.1,0.2-0.4,0.4-0.6c-0.1-0.1-0.3-0.1-0.4-0.2
		c-0.7-0.3-1.4-0.5-2.1-0.9C95.5,118.2,93,116.8,90.5,115.4 M71.8,98.3c0.7,0.4,1.3,0.8,2,1.1c1.5,0.7,2.9,1.6,4.5,1.9
		c1.4,0.3,2.8,0.7,4.2,1.1c0.1,0,0.1,0,0.2,0.1c0-0.1,0-0.1-0.1-0.2c-0.7-1.3-1.5-2.5-2.2-3.8c-0.3-0.6-0.7-0.7-1.3-0.7
		c-0.7,0-1.5-0.3-2.2-0.5c-0.3-0.1-0.4-0.1-0.4,0.3c0,0.5-0.3,0.8-0.7,1c-1,0.4-2,0.1-3-0.1c-0.6-0.1-1.1-0.4-1.6-0.6
		c-0.1,0-0.3,0-0.5,0c0.1,0.1,0.2,0.3,0.3,0.4C71.2,98.1,71.4,98.2,71.8,98.3 M78.1,112.9c0.2,0.1,0.3,0.2,0.5,0.3
		c2.1,1.5,4.3,3,6.4,4.5c1.6,1.2,3.3,2.3,5.3,2.7c0.6,0.1,1.1,0.2,1.7,0.2c0.2,0,0.4-0.2,0.6-0.3c-0.1-0.1-0.3-0.2-0.4-0.3
		c-0.1,0-0.2-0.1-0.3-0.1c-1.5-0.8-3.1-1.5-4.5-2.4c-1.4-0.8-2.7-1.8-4-2.7c-0.6-0.4-1.1-0.9-1.7-1.4c-0.3-0.3-0.5-0.8-1-0.7
		c-0.2,0-0.5-0.1-0.8-0.2c-0.7-0.2-1.4-0.3-2.1-0.5c-0.1,0-0.1,0-0.2,0c0,0.1,0,0.1,0.1,0.2C77.8,112.5,77.9,112.7,78.1,112.9
		 M77.7,89.5c0.5,0.6,1.1,1.2,1.6,1.7c0.5,0.5,1,0.9,1.6,1.3c0.2,0.1,0.5,0,0.8,0.1c0-0.2,0-0.5-0.1-0.7c-0.1-0.3-0.4-0.6-0.5-0.8
		c-0.3-0.4-0.7-0.8-1-1.3c-0.1-0.1-0.2-0.1-0.2-0.1c0,0.1,0,0.2,0,0.3c0,0.1,0.1,0.1,0.1,0.2c0.2,0.2,0.4,0.5,0.5,0.7
		c0.1,0.1,0,0.2,0,0.3c0,0-0.1,0-0.1-0.1c-0.4-0.5-0.9-1-1.1-1.5c-0.3-0.6-0.2-0.9,0.4-1c0.4-0.1,0.4-0.2,0.2-0.5
		c-0.4-0.8-0.9-1.7-1.3-2.5c-0.1-0.2-0.3-0.4-0.5-0.6c0,0-0.2-0.1-0.2,0c-0.1,0-0.1,0.1-0.1,0.2c0.2,0.4-0.1,0.7-0.5,0.8
		c-0.5,0.1-1,0.2-1.6,0.3c-0.5,0-0.6,0.2-0.5,0.6c0,0.1,0.2,0.2,0.2,0.3C76.3,87.9,77,88.6,77.7,89.5 M88.4,97.4
		c0.1,0,0.2,0.1,0.3,0.1c0-0.1,0-0.2-0.1-0.3c-0.4-0.6-0.9-1.3-1.3-1.9c-1-1.6-2.1-3.2-3.1-4.8c-0.8-1.3-1.5-2.5-2.3-3.8
		c-0.4-0.8-0.9-1.5-1.3-2.3c-0.1-0.2,0-0.5,0-0.8c0-0.1,0-0.3,0-0.3c-0.3-0.3-0.6-0.6-0.9-0.9c-0.1-0.1-0.2-0.1-0.3-0.1
		c0,0.1-0.1,0.3-0.1,0.4c0,0.2,0.1,0.4,0.1,0.5c-0.2,0.5,0,0.8,0.2,1.1c0.4,0.6,0.8,1.2,1.2,1.9c0.7,1.4,1.4,2.8,2.1,4.2
		c0.3,0.5,0.4,1.1,0.8,1.6c0.9,1.1,1.9,2,2.8,3.1C87.2,95.8,87.8,96.6,88.4,97.4 M92.6,97.1c0-0.1-0.1-0.1-0.1-0.2
		c0-0.8-0.5-1.2-1.2-1.5c-1-0.4-1.8-1.2-2.4-2c-0.5-0.6-1-1.3-1.6-1.9c-0.1-0.1-0.2-0.1-0.3-0.2c0,0.1,0,0.3,0.1,0.4
		c0.2,0.3,0.4,0.6,0.6,0.9c1.1,1.6,2.1,3.3,3.2,4.9c0.9,1.3,1.8,2.5,2.5,3.9c0.3,0.6,1,1.1,1.5,1.6c0.1,0.1,0.2,0,0.4,0
		c0-0.1,0-0.1,0-0.2c-0.3-0.6-0.7-1.2-1-1.8C93.6,99.7,93.1,98.4,92.6,97.1 M5.2,17.6C5.9,16.9,7,17,7.9,16.7
		c0.5-0.1,1.1-0.1,1.6-0.2c0,0,0.1-0.1,0.1-0.1c-0.2-0.4-0.4-0.8-0.7-1.1c-0.6-0.5-1.4-0.3-2.1-0.2c-0.1,0-0.2,0.2-0.2,0.3
		c0,0.6-0.5,0.9-0.9,1.3c-0.3,0.2-1.5,0.2-1.8,0c-0.1-0.1-0.4-0.1-0.5,0c-0.4,0.3-0.9,0.7-1.2,1c-0.3,0.4-0.6,0.8-0.9,1.2
		c-0.1,0.1,0.1,0.3,0.2,0.5c0.1-0.1,0.2-0.1,0.3-0.2c0.3-0.2,0.6-0.4,0.9-0.5C3.4,18.3,4.2,18,5.2,17.6 M44.2,107.5
		c-0.1-0.1-0.2-0.3-0.3-0.3c-0.6-0.2-1.2-0.3-1.8-0.6c-0.3-0.1-0.4-0.1-0.4,0.2c-0.1,0.6-0.1,1.1-0.2,1.7c-0.1,0.6-0.3,1.1-0.6,1.6
		c-0.5,0.7-1.1,1.4-1.6,2.1c-0.7,0.9-1.5,1.9-2.2,2.8c-0.5,0.7-1.1,1.4-1.6,2.1c-0.2,0.3-0.3,0.6-0.4,0.9c0,0.1,0,0.3,0,0.4
		c0.1-0.1,0.2-0.1,0.3-0.2c0.3-0.5,0.6-1,1-1.4c0.9-1.2,1.9-2.4,2.9-3.6c1-1.1,1.9-2.3,2.9-3.4C42.6,108.9,43.4,108.2,44.2,107.5
		 M58.5,100c0.8,0.5,1.5,1,2.3,1.5c2,1.2,4.1,2.4,6.1,3.6c0.1,0,0.2,0,0.3,0.1c0-0.1-0.1-0.2-0.1-0.3c0-0.1-0.1-0.1-0.1-0.1
		c-1.3-1.1-2.5-2.1-3.8-3.2c-0.1-0.1-0.1-0.4-0.2-0.5c-0.1-0.2-0.3-0.5-0.5-0.5c-1-0.3-1.9-0.5-2.9-0.8c-0.6-0.2-1.1-0.3-1.7-0.5
		c-0.1,0-0.2,0-0.4,0c0.1,0.1,0.1,0.2,0.2,0.3C57.9,99.6,58.1,99.8,58.5,100 M30.8,123.4c0.5-0.5,1-0.9,1.5-1.4
		c0.3-0.3,0.6-0.6,0.9-0.9c0.1-0.1,0.2-0.2,0.3-0.3c-0.2,0-0.4-0.1-0.6,0c-0.9,0.2-1.5,0.9-2.2,1.5c-0.9,0.8-1.8,1.6-2.7,2.4
		c-1,0.9-2.1,1.7-3.1,2.6c-0.2,0.2-0.3,0.4-0.4,0.7c0.2-0.1,0.5-0.1,0.7-0.2c0.9-0.6,1.7-1.2,2.6-1.9
		C28.8,125.1,29.8,124.3,30.8,123.4 M43.2,110.5c0-0.1,0-0.1,0-0.2c0,0-0.1,0-0.1,0c-0.2,0.1-0.3,0.1-0.4,0.3
		c-1,1.1-1.9,2.1-2.8,3.2c0,0.1-0.1,0.1-0.1,0.2c0.1,0,0.1,0,0.2,0c0.8,0,1.7,0,2.5,0.1c0.3,0,0.5,0.1,0.4-0.3
		C42.7,112.8,43,111.7,43.2,110.5 M7.6,13.9c0.7-0.2,1.4-0.3,2.1,0c0.1,0,0.2,0,0.4,0c0-0.1-0.1-0.3-0.2-0.3
		c-0.5-0.5-1.1-0.9-1.6-1.3C8.1,12,7.7,11.9,7.6,12c-0.7,0.6-1.3,1.3-2,2c-0.1,0.1-0.1,0.2-0.1,0.3c0.1,0,0.3,0.1,0.4,0
		C6.5,14.2,7,14,7.6,13.9 M44.7,111.7c0.5-1.1,1-2.2,1.5-3.2c0.2-0.4,0-0.6-0.3-0.5c-0.3,0-0.7,0.3-1,0.4c0,0,0,0.1,0,0.1
		c-0.2,1-0.5,2-0.7,2.9c-0.2,0.7-0.3,1.5-0.4,2.3c0,0.1,0.1,0.2,0.1,0.4c0.1-0.1,0.2-0.2,0.2-0.3C44.4,113.1,44.6,112.4,44.7,111.7
		 M38.9,123c-0.8-0.5-1.6-1.1-2.5-1.6c-0.2-0.1-0.3-0.1-0.5-0.2c0.1,0.2,0.1,0.3,0.2,0.5c0.1,0.2,0.1,0.3,0.2,0.5
		c0.2,0.3,0.4,0.7,0.6,0.9c0.7,0.4,1.5,0.6,2.2,0.9c0.1,0,0.1,0,0.2,0c0-0.1,0-0.2,0-0.2C39.2,123.5,39,123.3,38.9,123 M42.7,34.9
		c-0.8-0.7-1.5-1.4-2.3-2c-0.2-0.2-0.5-0.3-0.7,0c-0.2,0.3,0,0.5,0.2,0.6c0.7,0.5,1.3,0.9,1.9,1.4c0.6,0.5,1.3,0.9,2,1.4
		c0.1,0,0.2,0,0.2,0.1c0-0.1-0.1-0.2-0.1-0.2C43.6,35.7,43.2,35.3,42.7,34.9 M28.8,117.2c-0.2,0-0.4-0.1-0.6-0.1c-0.1,0-0.2,0-0.3,0
		c0.1,0.1,0.1,0.2,0.2,0.3c0.5,0.4,0.8,0.8,1.6,0.7c0.6-0.1,1.2,0,1.7,0c0.1,0,0.2-0.1,0.2-0.2c0-0.1-0.1-0.2-0.2-0.2
		C30.7,117.5,29.8,117.4,28.8,117.2 M73.9,79.5c0,0.2,0.1,0.4,0.1,0.5c0.1-0.1,0.2-0.3,0.3-0.4c0.3-0.3,0.6-0.6,0.5-1
		c-0.1-0.5-0.1-1-0.8-1.2c-0.1,0-0.2-0.1-0.3-0.2c0,0.1-0.1,0.2,0,0.3C73.7,78.2,73.8,78.8,73.9,79.5 M87.5,113
		c0.1,0,0.3-0.1,0.4-0.1c-0.2-0.1-0.3-0.2-0.5-0.3c0,0-0.1,0-0.1,0c-0.6-0.1-1.1-0.2-1.7-0.3c-0.8-0.1-1.7-0.2-2.5-0.3
		c-0.1,0-0.2,0-0.2,0c0.1,0,0.1,0.1,0.2,0.1c0.1,0,0.2,0.1,0.3,0.1C84.7,112.5,86.1,112.7,87.5,113 M29.9,120.2
		c0.4-0.1,0.8-0.1,1.2-0.2c0.1,0,0.3-0.2,0.4-0.2c-0.1,0-0.2-0.1-0.3-0.1c-0.8-0.3-1.5,0.2-2.3,0.1c-0.1,0-0.2,0.2-0.2,0.2
		c0.1,0,0.2,0.1,0.2,0.1C29.2,120.1,29.5,120.2,29.9,120.2 M59.2,110.1c0.6,0.2,1.1,0.4,1.7,0.6c0.2,0.1,0.3,0.1,0.5,0.1
		c-0.1-0.2-0.2-0.3-0.3-0.5c0,0-0.1-0.1-0.2-0.1c-0.5-0.2-1.1-0.3-1.6-0.5c-0.1,0-0.2,0.1-0.3,0.1C59.1,110,59.1,110,59.2,110.1
		 M22.2,120c0.1,0,0.2-0.1,0.2-0.1c0.1,0,0.2-0.1,0.2-0.1c-0.1,0-0.2-0.1-0.3-0.1c-0.4-0.1-0.8-0.1-1.2-0.2c-0.3,0-0.4,0.1-0.4,0.3
		c0,0.2,0.3,0.4,0.4,0.4C21.5,120.2,21.8,120.1,22.2,120 M65.7,109.4c0.3,0.1,0.5,0.3,0.8,0.4c0.1,0,0.3,0,0.5,0
		c-0.1-0.1-0.2-0.3-0.3-0.4c-0.1-0.1-0.2-0.1-0.3-0.2c-0.4-0.2-0.7-0.3-1.1-0.5c-0.1,0-0.3,0-0.4,0c0.1,0.1,0.1,0.2,0.3,0.3
		C65.3,109.2,65.5,109.3,65.7,109.4 M82.6,95.5c0.1,0.1,0.3,0.3,0.4,0.4c0.2,0.1,0.3,0.3,0.5,0.4c-0.1-0.2-0.1-0.4-0.2-0.6
		c-0.2-0.6-0.8-0.8-1.2-1c-0.1,0-0.2,0-0.2,0c0,0.1,0,0.2,0.1,0.2C82.1,95.1,82.3,95.2,82.6,95.5 M45,81.4c0.4,0.2,0.8,0.4,1.3,0.6
		c0,0,0.1-0.1,0.2-0.1c-0.1-0.1-0.2-0.3-0.3-0.3c-0.3-0.2-0.7-0.3-1.1-0.4c-0.2-0.1-0.4-0.1-0.6-0.1C44.6,81.2,44.8,81.3,45,81.4
		 M89.8,112.6c-0.1,0-0.2,0-0.2,0c0,0.1,0.1,0.2,0.1,0.2c0.3,0,0.7,0.1,0.8,0c0.3-0.2,0.4-0.6,0.5-0.9c-0.1,0-0.2,0-0.3,0
		C90.4,112.1,90.1,112.3,89.8,112.6 M26.5,96.5c0.1,0,0.2,0,0.4,0c0-0.1,0-0.1,0-0.2c-0.5-0.4-1-0.8-1.5-1.2c0,0-0.1,0-0.2,0
		c0,0,0,0.1,0.1,0.1C25.6,95.7,26,96.1,26.5,96.5 M82.7,97.3c-0.1,0-0.3-0.1-0.4-0.1c-0.1,0-0.2,0-0.2,0.1c0,0,0,0.2,0.1,0.2
		c0.3,0.3,0.6,0.5,1,0.8c0.1,0.1,0.2,0,0.3,0c0,0,0-0.1,0-0.1C83.2,97.9,82.9,97.6,82.7,97.3 M38.3,79.2c0.3,0.1,0.6,0.1,0.9,0.2
		c0.1,0,0.2,0,0.2,0c-0.1-0.1-0.1-0.2-0.2-0.2c-0.5-0.2-1.1-0.3-1.6-0.5c-0.1,0-0.2,0-0.2,0c0,0.1,0.1,0.2,0.1,0.2
		C37.7,79,38,79.1,38.3,79.2 M83.4,100.2c0,0,0.1,0,0.1,0c0.1-0.2-0.7-1.4-1-1.4c0,0-0.1,0-0.2,0.1c0,0,0,0.1,0,0.1
		C82.8,99.3,83.1,99.7,83.4,100.2 M24.7,94.8c-0.4-0.4-0.7-0.8-1.1-1.1c-0.1-0.1-0.2,0-0.3-0.1c0,0.1,0.1,0.3,0.1,0.3
		c0.3,0.3,0.5,0.5,0.8,0.7C24.4,94.7,24.6,94.8,24.7,94.8 M17.1,120.2c-0.1,0.1-0.3,0.2-0.4,0.4c-0.1,0.1,0,0.2,0,0.4
		c0,0,0.2,0.1,0.2,0c0.2-0.2,0.4-0.4,0.5-0.7C17.3,120.3,17.2,120.2,17.1,120.2 M34.4,119.8c0-0.2-0.1-0.3-0.1-0.5
		c-0.1,0.1-0.2,0.2-0.3,0.3c-0.1,0.1-0.1,0.2-0.1,0.3C34,119.9,34.2,119.9,34.4,119.8 M78,95.6c-0.1,0-0.2,0-0.3-0.1
		c0,0.1,0,0.3,0.1,0.3c0.2,0.1,0.4,0.1,0.6,0.1c0,0,0-0.1,0-0.1C78.3,95.7,78.2,95.7,78,95.6 M78.5,102.3c0,0.1,0,0.2-0.1,0.3
		c0.2,0,0.3,0,0.5,0c-0.1-0.1-0.1-0.2-0.2-0.3C78.7,102.3,78.6,102.3,78.5,102.3 M76.3,78.5c0,0.1-0.1,0.2-0.1,0.3
		c0,0.1,0.1,0.1,0.1,0.2c0,0,0.1-0.1,0.1-0.1C76.5,78.7,76.4,78.6,76.3,78.5 M33.4,119.3c0-0.1,0-0.2,0-0.3
		c-0.1,0.1-0.2,0.1-0.3,0.2C33.1,119.2,33.2,119.3,33.4,119.3 M4.8,15.7c0-0.1,0.1-0.2,0.1-0.4c-0.1,0-0.2,0-0.2,0
		C4.7,15.5,4.7,15.6,4.8,15.7 M99.7,106.1c0.1,0.1,0.1,0.2,0.2,0.2c0,0,0.1,0,0.1-0.1C100,106.2,99.9,106.1,99.7,106.1 M36,28.6
		c0.1,0.1,0.2,0.1,0.2,0.2c0,0,0.1-0.1,0.1-0.1C36.2,28.6,36.1,28.6,36,28.6 M108.7,120.6c0,0.1-0.1,0.1-0.1,0.2c0,0,0.1,0,0.1,0.1
		C108.7,120.8,108.8,120.7,108.7,120.6 M48.2,108.3c0,0,0.1,0.1,0.1,0.1c0-0.1,0-0.2,0.1-0.3C48.4,108.2,48.3,108.2,48.2,108.3z"/>
	<path class="st0" d="M22.9,57.4c0.6,0.8,1.1,1.6,1.6,2.4c0.3,0.4,0.5,0.8,0.8,1.1c0.1,0.1,0.3,0.1,0.3,0.1c0.1-0.1,0.2-0.2,0.2-0.4
		c0-0.5-0.1-1-0.2-1.5c0-0.2-0.1-0.5-0.1-0.7c0-0.1,0.2-0.3,0.2-0.3c0.2,0,0.4,0.1,0.4,0.2c0.5,0.9,0.9,1.8,1.6,2.5
		c0.4,0.3,0.6,0.3,0.7-0.2c0-0.1,0-0.3,0.1-0.4c0.1-0.1,0.2-0.5,0.5-0.2c0.1,0.1,0.2,0.1,0.4,0.2c0-0.2,0-0.3,0.1-0.5
		c0-0.2,0-0.3,0-0.5c0.1,0.1,0.2,0.2,0.4,0.2c0.8,0.4,1.5,1.1,2.5,1.2c0.2,0,0.4-0.2,0.5-0.2c0.1,0,0.3-0.1,0.4-0.1
		c0,0.2,0.1,0.4,0.1,0.5c-0.2,0.6-0.7,0.7-1.2,0.7c-1,0.1-1.9-0.1-2.5-1c-0.2-0.3-0.3,0-0.3,0.1c-0.1,0.2-0.1,0.5-0.2,0.7
		c-0.4,0.9-1.2,1-1.8,0.7c-0.2-0.1-0.4-0.2-0.6-0.3c-0.3-0.1-0.5-0.2-0.8,0.1c-0.3,0.3-0.7,0.2-1.1,0.1c-1.1-0.5-1.9-1.3-2.6-2.4
		c-0.4-0.7-0.7-1.4-1.1-2.2c-0.1-0.1-0.1-0.4,0-0.4c0.2-0.1,0.5-0.3,0.7-0.2C22.3,56.9,22.6,57.2,22.9,57.4z"/>
	<path class="st0" d="M13.9,9.6c-0.2-0.5-0.2-1,0.1-1.5c0.2-0.3,0.5-0.4,0.7-0.6c0.1-0.1,0.2-0.1,0.4-0.2c0.8-0.5,2.1-0.6,2.8,0
		c0.2,0.2,0.2,0.5,0.2,0.8c0.1,1.5-0.9,2.8-2.4,3c-0.4,0.1-0.8-0.1-1.1-0.1c-0.3,0-0.6,0-0.9,0.1c-0.1,0-0.2,0.2-0.2,0.3
		c0.1,0.4-0.2,0.5-0.4,0.5c-0.1,0-0.3-0.2-0.4-0.4c-0.1-0.1-0.1-0.3-0.1-0.4c0-0.3,0.1-0.5,0.5-0.5C13.7,10.6,13.9,10.3,13.9,9.6
		 M16.4,9.3c-0.2,0.1-0.3,0.2-0.5,0.3c-0.1,0.1-0.1,0.2-0.2,0.2c0.1,0,0.2,0.1,0.3,0c0.2-0.1,0.5-0.1,0.7-0.3
		C16.8,9.5,16.9,9.2,17,9c0.1-0.3-0.1-0.6-0.4-0.7c-0.1,0-0.1,0-0.2-0.1c0,0.1,0,0.1,0,0.2C16.5,8.7,16.7,9,16.4,9.3z"/>
	<path class="st0" d="M25.2,32.8c0.2-0.1,0.6-0.4,0.7-0.3c0.2,0.2,0.4,0.6,0.5,0.9c0.2,0.4,0.3,0.8,0.4,1.2c0,0.1,0.1,0.1,0.2,0.1
		c0-0.1,0.1-0.2,0.1-0.2c0.1-0.4,0.1-0.9,0.2-1.3c0.1-0.2,0.3-0.4,0.5-0.4c0.4-0.1,0.5,0.1,0.4,0.5c-0.1,0.3,0,0.6,0.1,0.9
		c0.2,0.6,0.4,1.1,0.7,1.6c0.1,0.2,0.3,0.3,0.5,0.1c0.3-0.2,0.4-0.1,0.6,0.1c0.2,0.2,0,0.4-0.1,0.6c-0.5,0.6-1.6,0.4-2.3-0.4
		c-0.1-0.1-0.3-0.3-0.4-0.4c0,0.2,0,0.5,0,0.7c0,0.1,0.1,0.3,0.1,0.4c0,0.4-0.2,0.4-0.5,0.4c-1-0.3-1.4-1.1-1.5-2
		C25.2,34.5,25.2,33.7,25.2,32.8z"/>
	<path class="st0" d="M39.6,97.3c0.3,0.2,0.6,0.4,0.9,0.6c0.1,0.1,0.1,0.2,0.2,0.3c-0.2,0-0.3,0.1-0.5,0.1c-0.6-0.3-1.3-0.6-1.9-1
		c-1.3-1-2.5-2-3.8-3.1c-0.7-0.5-1.3-1.1-1.9-1.7c-0.2-0.2-0.4-0.4-0.4-0.6c-0.1-0.7-0.8-0.9-1.2-1.3c-0.8-0.8-1.7-1.5-2.5-2.2
		c-0.2-0.2-0.4-0.3-0.5-0.5c-0.1-0.1-0.1-0.3-0.1-0.4c0.1,0,0.3,0,0.3,0.1c0.6,0.5,1.2,1,1.8,1.5c1.5,1.4,3.2,2.6,5,3.7
		c0,0,0.1,0,0.1,0.1c0.2,0.2,0.3,0.4,0.5,0.6c-0.2-0.1-0.4-0.1-0.6-0.2c-0.4-0.2-0.9-0.5-1.3-0.7c-0.1,0-0.2,0-0.3-0.1
		c0,0.1,0.1,0.2,0.1,0.3c0.9,0.7,1.9,1.5,2.8,2.2c0.6,0.5,1.2,1.1,1.9,1.6C38.6,96.7,39.1,97,39.6,97.3z"/>
	<path class="st0" d="M20.1,43.5c-0.4-0.5-0.7-1-0.3-1.7c0.1-0.2,0.2-0.3,0.5-0.1c0.2,0.2,0.5,0.4,0.8,0.2c0.1-0.1,0.4,0.2,0.6,0.3
		c0,0-0.1,0.2-0.1,0.3c0,0.3,0,0.6,0,1c0,0,0.1,0.1,0.1,0.1c0.1-0.1,0.1-0.1,0.2-0.2c0.3-0.4,0.6-0.9,0.9-1.3
		c0.1-0.1,0.3-0.1,0.4-0.2c0,0.1,0.1,0.3,0.1,0.4c-0.1,0.2-0.2,0.5-0.4,0.7c-0.7,1.2-1.2,2.5-1.2,3.9c0,0.1-0.2,0.3-0.3,0.4
		c-0.1-0.1-0.4-0.3-0.4-0.4c0-0.4,0-0.9,0.1-1.3c0-0.3,0.1-0.6-0.2-0.8c-0.1-0.1-0.2-0.3-0.2-0.4C20.9,43.8,20.6,43.7,20.1,43.5z"/>
	<path class="st0" d="M27,30.7c-0.8,0-1.4-0.7-1.5-1.5c0-0.3,0.1-0.6,0.1-0.9c0-0.3-0.2-0.6-0.3-0.9c0-0.1-0.2-0.1-0.2-0.2
		c-0.1-0.2-0.2-0.5-0.1-0.7c0.1-0.3,0.4-0.2,0.7-0.1c0.2,0.1,0.2-0.1,0.2-0.3c0-0.5,0.1-0.9,0.2-1.4c0-0.1,0.2-0.2,0.4-0.3
		c0.1,0.2,0.3,0.3,0.3,0.5c0,0.9,0.1,1.8,0.5,2.7c0.1,0.3,0,0.5-0.4,0.5c-0.3,0-0.4,0-0.4,0.4c0,0.6,0.1,1.2,0.5,1.6
		C27,30.2,27,30.4,27,30.7z"/>
	<path class="st0" d="M30,25.9c0.1-0.2,0.2-0.3,0.3-0.4c0.1,0.1,0.2,0.2,0.3,0.3c1,1.3,1.2,2.9,1.1,4.5c0,0.2-0.2,0.4-0.3,0.4
		c-0.1,0-0.4,0-0.5-0.1c-0.7-0.5-0.6-1.3-0.9-1.9c-0.2-0.3-0.2-0.7,0.1-1.1c0.1-0.1,0.1-0.4,0.1-0.5C30.1,26.6,30,26.3,30,25.9z"/>
	<path class="st0" d="M28,83.9c-0.1-0.1-0.2-0.1-0.3-0.2c-1.6-1.6-3.2-3.3-4.5-5.2c-1-1.4-1.9-2.9-2.7-4.4c0-0.1-0.1-0.2-0.1-0.2
		c0-0.1,0-0.2,0-0.3c0.1,0.1,0.2,0.1,0.2,0.2c0.6,0.9,1.1,1.8,1.7,2.7c1.3,1.9,2.5,3.8,4.1,5.4c0.6,0.6,1.2,1.2,1.8,1.9
		c0.1,0.1,0.2,0.3,0.3,0.5C28.4,84.1,28.2,84,28,83.9z"/>
	<path class="st0" d="M33.3,33.8c0.2,0.5,0.4,1,0.5,1.5c0,0.2,0,0.5-0.2,0.7c-0.1,0.1-0.4,0-0.6-0.1c-0.4-0.2-0.6-0.5-0.8-0.9
		c-0.2-0.5-0.5-0.9-0.7-1.4c-0.1-0.2-0.1-0.3-0.1-0.5c0-0.2,0.1-0.4,0.3-0.5c0.1-0.1,0.4,0,0.5,0.1C32.7,32.9,33.1,33.2,33.3,33.8z"
		/>
	<path class="st0" d="M22.5,33.8c0.3,0.9,0.6,1.8,0.8,2.7c0,0.1,0,0.3-0.1,0.4c-0.2-0.1-0.5-0.1-0.5-0.2c-0.4-0.8-0.7-1.5-1.1-2.3
		c-0.2-0.4-0.3-0.9-0.4-1.3c0-0.2,0.1-0.6,0.2-0.6c0.3-0.1,0.6-0.1,0.7,0.4C22.2,33.2,22.4,33.5,22.5,33.8z"/>
	<path class="st0" d="M27.3,23.7C27.2,23,27,22.4,27,21.7c0-0.6,0.2-1.2,0.3-1.7c0-0.1,0.2-0.1,0.2-0.2c0.1,0.1,0.2,0.2,0.2,0.3
		c0.2,0.6,0.1,1.3,0.1,2c0.1,0.8,0.2,1.6,0.3,2.3c0,0.2,0.1,0.3,0,0.5c0,0.1-0.1,0.3-0.2,0.3c-0.1,0-0.3-0.1-0.4-0.2
		C27.6,24.5,27.5,24.1,27.3,23.7z"/>
	<path class="st0" d="M31.8,88.6c0.1,0.1,0.1,0.3,0.1,0.4c-0.1,0-0.2,0-0.3-0.1c-1.6-1-2.8-2.4-4.1-3.8c-0.7-0.8-1.4-1.7-2.1-2.5
		c-0.1-0.1-0.1-0.2-0.1-0.3c0.1,0,0.2,0.1,0.3,0.1c1.6,1.6,3.1,3.2,4.7,4.8C30.7,87.7,31.3,88.1,31.8,88.6z"/>
	<path class="st0" d="M16.9,47c0.2-0.4,0.4-0.7,0.6-1.1c0.1-0.2,0.3-0.4,0.5-0.1c0.1,0.2,0.3,0.4,0.3,0.6c-0.1,0.7-0.2,1.4-0.4,2.1
		c0,0.1-0.1,0.3-0.2,0.4c-0.2,0.2-0.4,0.4-0.7,0.2c-0.2-0.1-0.2-0.3-0.2-0.6C17,48,16.9,47.5,16.9,47z"/>
	<path class="st0" d="M17.7,33.5c-0.2-0.3,0-0.5,0.2-0.6c0.1-0.1,0.4,0,0.5,0.1c0.6,0.6,1,1.3,1.3,2.2c0.1,0.3-0.3,0.8-0.6,0.7
		c-0.1,0-0.4-0.1-0.4-0.2c0-0.8-0.6-1.4-0.9-2C17.7,33.7,17.7,33.6,17.7,33.5z"/>
	<path class="st0" d="M32.9,26.1c0.2,0.8,0.4,1.5,0.6,2.2c0,0.2,0.1,0.3,0.1,0.5c0,0.2,0,0.3-0.1,0.5c-0.1-0.1-0.4-0.2-0.4-0.3
		c-0.2-0.5-0.4-1.1-0.6-1.6c-0.2-0.6-0.3-1.1-0.5-1.7c0-0.1,0-0.3,0.1-0.4c0.2,0.1,0.4,0.1,0.5,0.2C32.8,25.6,32.8,25.9,32.9,26.1z"
		/>
	<path class="st0" d="M28.9,38.5c-0.1-0.4,0.1-0.8,0.5-0.9c1-0.2,2-0.2,2.9,0.2c0.1,0,0.2,0.2,0.3,0.3c-0.1,0.1-0.2,0.2-0.3,0.2
		C31.2,38.4,30.1,38.5,28.9,38.5z"/>
	<path class="st0" d="M29.5,16.8c0.7-0.1,0.5,0.5,0.7,0.8c0.2,0.6,0.3,1.3,0.5,1.9c0,0.2,0,0.4-0.1,0.6c-0.2-0.1-0.4-0.1-0.5-0.2
		c-0.6-0.8-0.9-1.7-0.8-2.7C29.3,17,29.4,16.9,29.5,16.8z"/>
	<path class="st0" d="M20.6,38.5c-0.1,0.7-0.2,1.4-0.3,2.1c0,0.1-0.2,0.2-0.3,0.3c-0.1,0-0.3-0.1-0.4-0.2c-0.6-0.6-0.4-1.8,0.2-2.2
		C20.1,38.2,20.4,38.2,20.6,38.5z"/>
	<path class="st0" d="M19.2,26.7c0.5-0.1,0.7,0.2,0.7,0.6c0,0.5,0.1,1.1,0.2,1.6c0,0.1-0.1,0.3-0.2,0.4c-0.2-0.1-0.4-0.1-0.5-0.3
		c-0.2-0.6-0.4-1.2-0.6-1.8C18.8,27.2,19,27,19.2,26.7z"/>
	<path class="st0" d="M24.2,39.1c0.1,0.6,0.1,1.3,0.1,1.9c0,0.1-0.2,0.3-0.4,0.3c-0.2,0-0.4-0.2-0.4-0.3c-0.1-0.6-0.3-1.1-0.3-1.7
		c0-0.4,0.3-0.5,0.6-0.4C24,39,24.1,39,24.2,39.1z"/>
	<path class="st0" d="M44.7,41c0.4,0.4,0.8,0.7,1.2,1.1c0.1,0.1,0.2,0.2,0.3,0.4c0,0.2,0,0.4-0.1,0.6c-0.2-0.1-0.4-0.1-0.5-0.2
		c-0.7-0.7-1.3-1.4-2-2.1c-0.1-0.1-0.1-0.2-0.1-0.3c0.1,0,0.3-0.1,0.4,0C44.1,40.6,44.4,40.8,44.7,41z"/>
	<path class="st0" d="M22.8,29.7c0.2,0.7,0.4,1.4,0.6,2c0,0-0.1,0.2-0.1,0.1c-0.2,0-0.4,0-0.4-0.1c-0.4-0.8-0.9-1.5-0.8-2.4
		c0-0.2,0.1-0.4,0.2-0.5c0.2,0.1,0.3,0.3,0.5,0.4C22.8,29.4,22.8,29.5,22.8,29.7z"/>
	<path class="st0" d="M34.4,38c-0.2-0.3-0.1-0.5,0.2-0.5c0.5,0,0.9,0.1,1.3,0.2c0.5,0.1,0.9,0.3,1.4,0.5c0.1,0,0.2,0.1,0.2,0.2
		c0,0.1-0.1,0.2-0.2,0.2c-0.3,0-0.6,0.1-0.8,0C35.8,38.6,35.1,38.3,34.4,38z"/>
	<path class="st0" d="M40.4,39.7c-0.5-0.3-1-0.6-1.5-0.9c-0.1,0-0.1-0.1-0.2-0.2c0.1,0,0.1-0.1,0.2-0.1c0.5-0.3,1,0,1.4,0.2
		c0.5,0.3,0.9,0.7,1.3,1.1c0.1,0.1,0,0.3,0.1,0.4c-0.1,0-0.3,0.1-0.4,0C41,40.1,40.7,39.9,40.4,39.7z"/>
	<path class="st0" d="M23.1,28c0.5-0.3,0.7,0,0.9,0.3c0.2,0.4,0.4,0.8,0.5,1.2c0.1,0.2,0,0.4-0.3,0.4c-0.3,0-0.6-0.1-0.7-0.5
		c-0.1-0.4-0.4-0.7-0.5-1.1C23,28.3,23.1,28.1,23.1,28z"/>
	<path class="st0" d="M23.9,25.9c-0.6,0-0.9-0.4-1-1.1c0,0,0-0.1,0-0.1c0-0.3,0-0.7,0.4-0.7c0.3,0,0.7,0.2,0.7,0.6
		C24,24.9,24,25.4,23.9,25.9z"/>
	<path class="st0" d="M21.4,26.7c0.1,0.2,0.2,0.3,0.2,0.5c0,0.2-0.2,0.4-0.3,0.6c-0.2-0.1-0.5-0.2-0.6-0.4c-0.2-0.3-0.3-0.6-0.4-0.9
		c-0.1-0.2-0.2-0.5,0.1-0.6c0.4-0.1,0.8,0.1,0.8,0.5C21.3,26.4,21.3,26.5,21.4,26.7z"/>
	<path class="st0" d="M12,12.8c-0.3,0-0.6,0-0.9-0.1c-0.2,0-0.3-0.2-0.4-0.3c0.1-0.1,0.2-0.4,0.3-0.4c0.3,0,0.7,0,1,0
		c0.2,0,0.3,0.2,0.4,0.3C12.4,12.4,12.2,12.6,12,12.8z"/>
</g>
</svg>
