<svg enable-background="new 0 0 234.8 113.5" viewBox="0 0 234.8 113.5" xmlns="http://www.w3.org/2000/svg"><path d="m199.9 9.6c1.1.1 2.2.2 3.3.4 1.1.3 2.2.7 3.3 1.1.7.3 1.4.6 2.1.9.3.1.7 0 1 .1.2 0 .3-.1.5 0 .8.4 1.5.3 2.3.1.7-.1 1.5-.1 2.2-.2h.4c1.5 0 1.7-.3 1.3-1.7 0-.1-.1-.3-.1-.4-.1-1.3-.1-2.6-.1-3.9 0-.5-.5-1 .1-1.4-.2 0-.4-.2-.5-.1-.6.2-1 .8-1.7.6-.2-.1-.4-.2-.5-.3-.3-.3-.5-.6-.7-.8-.2-.3-.3-.6.1-.8.6-.3 1.1-.5 1.6-.8.3-.2.6-.4.8-.6.2-.1.3-.3.5-.3s.4.1.6.2c-.1.1-.3.1-.4.2s-.3.3-.4.5c.2.1.5.2.7.2.6-.1 1.1-.3 1.6-.6.4-.3 1.3 0 1.7.5s.3 1.1-.2 1.5c-.6.5-1.4.8-2.1 1-.5.1-.7.2-.5.7.1.1.1.3.1.4.1 1.8.3 3.7.4 5.5 0 .1.2.3.2.2.5 0 .9-.1 1.3-.2.5 0 1-.2 1.4-.1.7.3 1.4.1 2.2.1.5 0 1 .1 1.5.1.7.1.7-.3.7-.8 0-.2 0-.3 0-.5.1.2.2.3.2.5 0 1.8.9 3.5.7 5.3-.1 1.1-.2 2.3-.1 3.5.1 2.4.3 4.8.5 7.2.1 1-.1 2-.3 3-.1.6-.1 1.2 0 1.8.6 2 1.2 4 1.2 6.1v9.2c0 2.5-.2 5-.2 7.5 0 3 .1 5.9.1 8.9s-.3 6-.4 9c-.1 2.2 0 4.3 0 6.5 0 .3.4.6.6.8.1.1.1.2.2.4-.1 0-.2-.1-.3-.1s-.2.1-.2.1c0 .1 0 .2.1.3.5.4.3.4-.2.4-.1 0-.3.4-.3.6 0 .3 0 .2-.3.2-.5 0-.9-.1-1.2-.6-.1-.2-.5-.3-.8-.4-1-.1-1.9-.1-2.9-.1-1.5 0-3 .1-4.5.1-.5 0-1.1-.2-1.6-.1-2 .1-4 .3-5.9.5-1 .1-2 .2-3.1.3-1.9.2-3.8.4-5.7.5-.5 0-1 0-1.5 0-1.8.2-3.5.4-5.3.5-.2 0-.3 0-.5 0-3 0-6 0-9 0-1.6 0-3.1-.1-4.7-.1-1.5 0-3 0-4.5 0-1.4 0-2.9.1-4.3.1-1 0-2-.1-3.1-.1-1 0-1 0-1 .9 0 .7.1 1.4.1 2.1 0 .3 0 .6-.1.9-.1.2-.4.4-.5.6-.1-.3-.4-.6-.4-.9 0-1 0-2.1 0-3.1 0-.2-.4-.4-.6-.5-.6-.1-1.2-.2-1.8-.3-.2 0-.4.2-.7.3-.4.2-.9.4-1.3.5-.9.1-1.8.1-2.6-.5-.2-.1-.5-.2-.7-.1-1.7.4-3.4.4-5.1.5-1.3.1-2.6.3-3.9.5-.8.1-1.6.2-2.3.3-.8.1-1.6.3-2.4.4-.6.1-1.1.2-1.6-.4-.4-.5-2.1-.7-2.8-.4-.2.1-.5.2-.7.1-1-.8-2.1-.2-3.1 0-1.1.1-2.2.4-3.2.5-1.3.2-2.6.3-3.8.4-.2 0-.5 0-.7-.1-1.3-.9-2.8-1-4.3-.8-2.2.3-4.4.3-6.7.4-1.3 0-2.6.1-3.9.1-1.2 0-2.3.3-3.5.1-2.4-.3-4.7-.4-7.1-.4-.9 0-1.8.2-2.7.2-.7 0-1.4-.2-2.1-.3-.2 0-.4-.1-.6-.1-1.6 0-3.2 0-4.7 0-.8 0-1.6.1-2.4.1-.9 0-1.8-.1-2.6-.3-1.2-.3-2.3-.3-3.5-.1-.9.1-1.9-.1-2.8-.1-.8 0-1.6 0-2.4 0-1.3 0-2.6 0-3.9.1-1.4.1-2.7.4-4.1.6-.3 0-.7.1-1 .1s-.7.2-.7.2c0 .4 0 .9.3 1.2.2.2.1.2 0 .4-.2.3-.3.7-.5 1.1-.1.3-.2.6-.3.9-.3-.1-.7-.2-.9-.4-1-.9-1-1.1-.2-2.1.1-.2.3-.6.2-.8s-.5-.3-.8-.3c-.8 0-1.6 0-2.4 0-1.7-.1-3.4-.2-5-.2-1.1 0-2.1.2-3.2.2-.8 0-1.5-.1-2.3-.1-.7 0-1.4-.1-2-.1-.5 0-.2.3-.2.5.2.5 0 .6-.4.6-1.2-.1-2.4-.2-3.6-.1-2.1.1-4.1.2-6.2.4-.3 0-.7.2-.9.5-.6.7-1.3.9-2.2.9-.8 0-1.5.1-2.3.1-.1 0-.2 0-.2 0-.7.9-1.7.5-2.5.6-2 .4-4.1.5-6.1.7-.4.1-.9.2-1.3.5-.5.4-1.2.5-1.9.6-1.5.2-3 .3-4.6.4-.9.1-1.2-.1-1.3-1 0-.1-.1-.3-.2-.4-.7-.3-1.5.1-1.8.8-.1.2-.3.3-.4.5-.2-.2-.5-.5-.3-.9.2-.3.2-.5-.2-.4-1.2.2-2.5.4-3.7.6-.1 0-.3.1-.4.1-1.9 0-3.8.3-5.6.6-1.7.2-3.2.1-4.7.1-.7 0-.9-.6-.9-1.1 0-2.7-.1-5.4-.1-8 0-1.5.3-2.9.5-4.4.1-.5.1-1 .1-1.5.1-1.1 0-2.2.1-3.3.1-1.5.4-3 .5-4.5.1-.9.2-1.9.3-2.8.1-3.2 0-6.4.3-9.6.2-2.6.1-5.1.2-7.7 0-1 .2-2 .2-3.1 0-.6-.1-1.1-.1-1.7 0-1.4 0-2.8 0-4.1 0-.8-.1-1.6-.1-2.4 0-.7.2-1.5.1-2.2-.3-4.5 0-9.1-.1-13.7 0-.6 0-1.1.2-1.7 0-.2.4-.5.5-.4.4.2.4-.1.4-.3.1-.7 0-1.3-.7-1.6-.2-.1-.3-.4-.4-.5-.1-.4-.1-.9-.2-1.4-.3-1.4.7-2.1 1.6-2.7 1.3-1 2.6-1.8 4-2.6 1-.6 2.1-.9 3.1-1.5 2.1-1.2 4.2-2.6 6.3-3.8 1.4-.8 2.7-1.7 4.2-2.4.5-.2 1.2-.2 1.7-.2.3 0 .5.2.4.6v.5c-.2.9.4 1.6.8 2.3.2.3.7.5 1.1.5 1.7.1 3.4.2 5 .3 1.4.1 2.8.3 4.2.4 2.1.2 4.1.8 6.1 1.4.3 0 .7.4.7.6.2 1.4.3 2.8.4 4.2 0 .3-.2.8-.1.9.5.5.3.8 0 1.4-.3.5-.2 1.2-.2 1.7 0 .1.3.3.5.3.8 0 1.6-.1 2.4-.1 1 0 2.1.2 3.1.2h2.1 4.1c1.4.1 2.6-.3 3.8-.8 1.5-.6 2.9-1.3 4.5-1.4.8 0 1.7-.1 2.5-.1.4 0 .8-.1 1.2-.1 1.7 0 3.5-.1 5.2 0 1.3.1 2.6.4 4 .5 1.9.2 3.8.6 5.5 1.4 1.1.5 2.1.3 3.2 0 .6-.2 1.3-.1 2-.2 1.3-.1 2.7-.1 4-.1.6 0 .7-.3.6-.9 0-.3.1-.7.1-1 .1-.9.1-1.8.1-2.7 0-.5 0-1 0-1.5 0-.1-.2-.2-.3-.3-.2.1-.6 0-1 0-.7-.1-.7-.6-.7-1.1.1-.6.4-.9 1-.8.2 0 .5-.1.5-.1 0-.4.4-.3.6-.4.7-.4 1.3 0 1.9 0 .2 0 .4.3.5.5.2.2.3.5.5.6.4.1.8.3.7.6-.1.4-.5.8-.8 1.1-.2.2-.7.1-1 0-.4-.2-.6 0-.6.4v5.5c0 .5.5.6 1.1.5.9-.2 1.8-.3 2.7-.3.8 0 1.6.2 2.4.4.9.2 1.8.2 2.7-.3 1.9-.9 3.9-1.6 6-1.9 1.7-.3 3.3-.7 5-.8 1.1-.1 2.2-.3 3.3 0s2.4.3 3.5.4c1.7.2 3.4.5 5 1.1.2.1.4.2.6.1 1.4-.5 2.8-.3 4.2-.4 1.5-.1 2.9-.2 4.4-.3h3.3c.7 0 1.4-.1 2-.3.9-.3 1.7-.1 2.5.2 1.3.5 2.6.5 3.9-.3 1.9-1.1 3.9-1.8 6-2.3.8-.2 1.6-.2 2.4-.3.7 0 .8-.3.8-1-.1-1.2 0-2.4 0-3.6 0-.4-.1-.6-.5-.4-.5.2-.9.2-1.3-.1-.3-.2-.6-.6-.6-.9 0-.2.5-.6.8-.6.8 0 1.2-.4 1.7-1 .6-.7 1.2-.8 1.7.2.1.3.2.6.3.8s.3.3.5.4.5.2.8.3c.5.2.4.6.2.9-.5.5-1.4.8-2.1.2-.1-.1-.2-.1-.4-.2v.4c0 1.3-.1 2.7-.1 4 0 .5.1.6.6.6 3.8 0 7.5.8 11.1 2 .9.3 1.7.9 2.5 1.2.3.1.7.1 1.1.1.1 0 .2-.1.4-.1 1.5-.1 3.1-.1 4.6-.1 1.1 0 2.1-.2 3.2-.1 1.4.1 2.7.4 4.1.3 1.4 0 2.7.6 4.1-.1 1.1-.5 2.2-1.1 3.3-1.4 1.8-.5 3.6-.9 5.4-1.3 1.4-.3 2.8-.5 4.3-.7.2-.2.7 0 1.1 0m-180.5-5.8c.2 0 .3.2.5.1.6-.1 1.3-.3 1.9-.5.2 0 .4-.3.5-.4-.2 0-.5 0-.7 0-.1 0-.2 0-.3 0-.7.3-1.3.5-2 .8-.1 0-.2-.2-.3-.1-.4.3-.8.6-1.2.9 0 0 .1.3.2.3.4 0 1.3-.7 1.4-1.1m124.1 58.7c-.1.3-.1.6-.2.9v.2c.4-.2 1-.2 1-.5.1-.4-.1-.9-.1-1.4-.2.2-.4.5-.7.8.1-.1 0-.1 0-.1.1-.8.8-1.6.3-2.4-.1-.2-.3-.4-.5-.5-.8 0-1.6-.1-2.4 0-1 .1-1.1.2-1.1 1.2 0 .5-.1.9-.1 1.4 0 .4.1.7.1 1.1.2-.2.4-.4.6-.6s.5-.2.7-.4c.1.2.2.5.2.7 0 .1-.1.3-.1.4.1.6.1 1.2.2 1.8 0 0 .2.1.2.1.2-.4.7-.9.6-1.1-.4-.9-.3-1.7-.2-2.6 0-.1.1-.4.2-.4s.4 0 .4.1c.1.4.3.8.3 1.1.1.4.3.3.6.2m-119.7-41.9c0-.1 0-.2 0-.3s0-.2 0-.3c-.1.1-.2.1-.3.2-.4.7-.7 1.4-1 2.1-.1.1.1.4.2.6.1-.1.2-.2.3-.4.2-.5.5-1 .7-1.4-.1.4-.3.8-.4 1.3 0 .1-.1.3-.1.4h.5c1.2-.2 2.5-.4 3.7-.7h.6c-.2.1-.4.3-.6.4-.1 0-.2 0-.3 0-.2.2-.5.3-.5.5-.3 1.4-.5 2.7-.7 4.1 0 .3.1.6.2.9.1-.2.3-.4.4-.6.2-.4.5-.8.5-1.2-.1-1.1.3-2 .6-3 0-.2.4-.3.6-.4.1.2.2.5.2.7-.1.4-.3.9-.4 1.3-.1.2 0 .4.1.6.1-.1.3-.2.4-.3.8-.9 1.6-1.8 2.5-2.7.8-.8 1.6-1.6 2.4-2.4.1-.1.3-.2.3-.4 0-.5.3-.6.7-.8.1-.1.3-.1.4-.2.9-.9 1.7-1.8 2.6-2.7.8-.8 1.7-1.5 2.6-2.3.2-.2.5-.5.5-.8.1-1 .1-2 .2-3.1 0-.7 0-1-1-1s-1.9-.1-2.9-.1c-.9-.1-1.7-.2-2.6-.4-1.3-.3-3.1.4-3.8 1.4-1.1 1.6-2.2 3.2-3.3 4.8-.9 1.3-1.6 2.8-2.2 4.3-.5.7-.8 1.4-1.1 1.9m-8.6 19.3c.2 0 .3.1.5.1 0 0 0-.1.1-.2-.2 0-.4.1-.5 0-1.2.1-2.4.2-3.6.2-1.1 0-2.1.6-3.2.1-.1 0-.2.1-.4.1-1.2.1-2.4.1-3.6.2-.1 0-.2-.2-.3-.3l.3-.3c1.3-.2 2.5-.4 3.8-.5.5-.1.9-.4.8-.9-.1-.6-.1-1.3-.1-1.9 0-.8 0-1.6 0-2.4 0-.2 0-.4.1-.6 0-.4 0-.9.2-1.3.1-.2.6-.2.8-.3.3-.3.4-.1.4.2 0 .7-.1 1.5-.1 2.2 0 1.5.1 3.1.1 4.6 0 .1.2.3.3.3 1.4-.1 2.7-.2 4.1-.3.1 0 .3-.2.3-.3.1-.4.1-.8.1-1.2 0-2 0-4.1 0-6.1 0-.2-.2-.4-.3-.4-.6 0-1.2 0-1.7.1-1.8.3-3.6.5-5.5.9-1.1.2-2.2.4-3.3.7-.1 0-.2.3-.2.5 0 .7 0 1.4.1 2.1.3 2.2-.5 4.3-.4 6.4.1 2.9-.1 5.8-.1 8.7 0 1.2.1 2.3.1 3.5 0 1.3-.1 2.6-.1 3.9v3c0 .8.2 1 1 .8 1.2-.2 2.4-.5 3.6-.7.9-.1.9-.1.9-1.1 0-2.4 0-4.9 0-7.3 0-.7-.2-1.5.9-1.5.1 0 .1-.1.2-.2-.1 0-.1-.1-.2-.1-.6 0-1.2 0-1.8 0-.7.1-1.4.3-2.1.4-.4 0-.7 0-1.1-.1-.1 0-.2-.3-.3-.4.2-.1.3-.1.5-.2h.6c.8-.1 1.6-.3 2.3-.4.6 0 .9-.2.9-.9 0-2.6 0-5.2 0-7.8 0-.4.2-.6.5-.6.3.1.8-.1.8.6 0 2.5.1 4.9.1 7.4 0 .9.1 1 1 .7h.4c.8-.1 1.7-.4 2.5-.4s.7-.6.7-.9c.1-2.3.1-4.7.2-7 0-.3 0-.5 0-.8-.5-.2-.4-.3-.3-.3m195-3.9c-.2-.3-.4-.6-.6-.9-.2-.2-.5-.5-.6-.4-.6.2-.5-.2-.5-.5.2-.6-.1-.9-.5-1.2-.8-.6-1.6-1.2-2.4-1.6-1-.5-1.9-1.3-3.2-.8-.1 0-.2-.1-.3-.1s0-.2-.1-.2c-.4-.2-.7-.4-1.1-.5 0 0-.2.4-.3.6-.2.3-.6.3-.8-.1-.5-.9-1.6-.9-2.2 0-.1.2-.5.6-.6.1-.1-.6-.5-.5-.8-.4-.4 0-.7.2-1.1.2-.7.1-1.1.2-1 1 0 .2-.2.4-.3.6-.1-.2-.2-.4-.3-.6 0-.1 0-.2 0-.2-.1-.1-.3-.3-.3-.3-.7.4-1.7.2-2.1 1.1-.1.1-.3.2-.5.2-.3.1-.7.2-1 .3-.4.2-.9.5-1.3.9-1.3 1-2.6 2-3.9 3.1-.9.8-1.9 1.6-1.7 3.1.1.5.2.6.7.6 1.4 0 2.8.1 4.2.1 2.3.1 4.6.3 6.9.4 2.1.1 4.3.1 6.4.1 3.2.1 6.4.1 9.6.1.1 0 .3-.2.3-.3-.1-1.5.4-3.1-.5-4.4.4.2.4-.1.3-.3-.2-.6-.5-1.2-.7-1.8 0-.1-.1-.2-.2-.2-.1.1-.1.2-.2.3 0 .1 0 .2.1.3.2.5.4 1.1.6 1.7m-56.5-10.3c-.4 0-.9 0-1.3 0-.5 0-1 .1-1.1.7 0 0-.2 0-.3 0-.3-.5-.8-.7-1.4-.7-1.4 0-2.8.1-4.1.1-.7 0-1.1.3-1.3 1 0 .2-.2.3-.3.4 0-.2-.1-.4 0-.5.2-.6 0-.7-.5-.7-1.1.1-2.3.1-3.4.1-1.5 0-3 0-4.5-.1-.5 0-1.1-.3-1.6-.5-.2-.1-.3-.1-.5-.1-.5 0-1 .1-1.6.1-1.9.2-3.9.5-5.8.5-3 .1-6 0-9 0-3.6 0-7.2.1-10.8.4-2.4.2-4.8 0-7.3-.1-.2 0-.5-.1-.5.3 0 .1-.1.2-.2.3-.1-.1-.2-.1-.3-.2-.1-.5-.5-.4-.8-.4-1.5.1-3 .2-4.6.3-1.5.1-3.1.1-4.6.1-.2 0-.3 0-.5 0-1.5.4-2.9.1-4.3-.1-.4-.1-1.3-.5-1.1.7 0 .1-.3.3-.4.2-.5 0-1.1-.2-1.6-.2-.4 0-1.1.1-1.1.1 0 .6-.1 1.4.2 1.8.8.9.9 1.7.5 2.8-.1.2-.2.6-.6.3-.2-.1-.6-.2-.4.4.2.5 0 1.1 0 1.7-.1 1-.3 1.9-.3 2.9-.1.8 0 1.6 0 2.4-.1.9-.1.9.8 1.1.2.1.5.3.6.5.1.4-.1.5-.5.5-.4.1-.9.2-1 .9 0 .8-.1 1.6-.1 2.5v4.9c0 1 0 1 1 1.4.2.1.4.4.6.6-.2.1-.4.3-.6.4-.1.1-.3 0-.4 0-.3.1-.6.2-.6.7v1.9c0 .2.1.4.2.5l1.2.6c.7.4 1.7.1 2.1 1 0 0 .2.1.2.1.9 0 1.9-.1 2.8-.1 1.3-.1 2.6-.5 4-.5 3.6-.1 7.2.2 10.7.4 3.9.1 7.8 0 11.7-.1 1.3 0 2.6-.1 3.9-.1h4.5c4 0 7.9 0 11.9.4 2.6.2 5.2 0 7.7-.1 1 0 1.9-.1 2.9-.1 2.2-.1 4.3-.2 6.5-.3 2.3-.1 4.6-.1 6.9-.1.3 0 .7 0 .8-.4.1-1.3.1-2.6.1-3.9.1-1.8.2-3.6.3-5.4.1-1.5.2-3 .3-4.5.1-1 .2-2 .3-2.9.2-1.8.4-3.6.5-5.4 0-.4 0-.8.2-1.1.2-.5.1-.8-.3-1s-.3-.3 0-.4c.2-.1.4-.4.5-.6.2-1.4.4-2.9.5-4.3.1-.5-.2-.9-.7-1.2-.4-.2-.8-.3-1.1.1-.1.1-.2.1-.3.2-1-.3-1.8-.2-2.7-.2m58.2 9.7c.5 1.2.7 2.6 1 3.9.4 2 .3 4 .6 6 .1.8.1 1.7.2 2.6 0 .1.2.2.3.2h.5c-.1.1-.3.3-.4.4-.2.3-.6.5-.6.8-.1.6.1 1.3.1 1.9s-.1 1.3-.1 1.9v.2c0-.1-.1-.1-.1-.2-.1-1-.2-2-.3-3 0-.2-.1-.5-.1-.7-.1-.1-.2-.2-.3-.3-.1.2-.2.3-.2.5.1.7.2 1.4.2 2.1.1 2.4.1 4.7.1 7.1 0 .1 0 .3.1.4.1.3.6.7-.1.8 0 0-.1.1-.1.2v2.1c.1 1.2.3 2.5.4 3.7.1 2.1.8 4.1 1.2 6.2.1.7.5 1.5 0 2.3-.2.3-.2.7-.3 1v1.7c0 .4 0 .7-.4.9-.4.3-.4.6.1.8.2.1.4.1.6.1h9c.4 0 .8-.1 1.2-.1.1 0 .1-.1.1-.1-.2-.5 0-1 .1-1.4.1-1.3.1-2.5.1-3.8.1-1.7.1-3.4.1-5 .1-1.8.3-3.7.4-5.5 0-1.2-.1-2.5-.1-3.7 0-1.7.1-3.4.1-5.1 0-1.2-.1-2.5-.1-3.7 0-2.2.1-4.3.1-6.5 0-1.2.1-2.4.1-3.7 0-1.5-.1-3.1-.1-4.6 0-.2-.1-.4-.2-.6-.1.2-.2.4-.2.6v.3c0 .1-.1.2-.1.3-.1-.1-.3-.2-.3-.3-.1-.5-.2-1.1-.1-1.5.3-1.2.3-2.3-.3-3.4-.2-.4-.2-.7.3-.7.4 0 .4-.1.4-.4-.1-1-.1-2-.1-3-.1-1.6-.3-3.3-.4-4.9-.1-2.3-.2-4.6-.3-6.9 0-.6-.8-1.5-1.5-1.4-.1 0-.3.2-.3.2.1.6-.3.5-.6.4-1.4-.1-2.8-.3-4.2-.4-1-.1-2 0-3 0-.5 0-1-.2-1.5-.2-.2 0-.4.1-.5.1.1.1.2.3.3.4s.2.1.3.2c.7.6 1.4 1.1 2 1.7 1.2 1.2 2.3 2.5 3.5 3.8 1.1 1.3 2.1 2.7 2.6 4.4.2.8.3 1.6.6 2.4.3.7.8 1.3 1 2.1.4 1.7.7 3.3 1 5 .3 2.1.4 4.1.5 6.2 0 .9-.2 1.7-.2 2.6-.1 1.6-.3 3.1-.3 4.7.1 2.9-.2 5.7-.4 8.5 0 .2-.1.3-.1.5-.1-.2-.2-.3-.3-.5 0-.1 0-.2 0-.3 0-2.9.1-5.7.1-8.6.1-2 .2-4.1.2-6.1 0-1.6-.3-3.1-.2-4.7.1-2.1-.6-4-1.5-5.8-.7-1.7-1.6-3.3-2.8-4.7-.6-.7-1.4-1.3-2.3-1.6-.3-.1-.6-.2-.9-.4.3-.1.6-.1.9-.2.1 0 .2 0 .3.1 1.1.7 2.2 1.3 2.8 2.4.4.7.9 1.3 1.3 1.9 0 .1.2.1.3.1 0-.1.1-.2.1-.3-.5-1.1-.9-2.1-1.4-3.2-.2-.4-.4-.7-.5-1.1-.1-.3 0-.6-.2-.8-.6-1-1.2-2-2-2.9-1.3-1.5-2.7-2.9-4.2-4.3-.8-.7-1.7-1.3-2.7-1.8-1.4-.7-2.9-1-4.2-1.7-1.4-.6-2.8-.8-4.3-.9-1.4 0-2.8.1-4.2.3-.7.1-1.4.3-2 .5-.5.2-1 .6-1.5.8-.2.1-.5.1-.6 0-.2-.7-.5-.7-1.2-.5-1.1.4-2.3.6-3.4 1-.7.3-1.4.9-2.1 1.1-2.3.8-4.3 2.2-6 3.9-1 1-2.1 2-2.4 3.4-.2.6-.8.8-1.2.8-.3 0-.8-.5-.6-1.1.3-.9.4-1.9 1.1-2.7l3.1-3.1c.1-.1.3-.2.5-.3s.3-.2.5-.3c-.2-.1-.4-.2-.6-.2-.8-.1-1.6-.2-2.5-.3s-1.7-.2-2.6-.1c-1.2 0-2.5.2-3.7.3-.4 0-.8-.1-1.1 0-.2 0-.4.1-.7.2.2.1.4.3.6.4.1.1.2.2.2.2.8.9 1.6 1.8 2.3 2.7.5.7 1 1.4 1.4 2.2.3.5.5 1.2.7 1.7.1.1.1.3.2.4-.1-.1-.2-.2-.3-.2s-.1-.1-.2-.1c-1.4-1.8-2.6-3.7-4.1-5.5-.7-.8-1.2-2-2.7-1.6 0 0-.2-.2-.2-.3.3-.5.1-.9-.5-1.1-.2-.1-.9.5-.8-.4 0-.1-.5-.3-.8-.4-1.4-.4-2.7-.9-4.1-1.2-1.8-.4-3.6-.6-5.4-.8-2-.2-4 0-6 .4-1.9.4-3.7 1-5.3 2-1.7 1-3.4 2.1-4.9 3.4-2 1.8-3.7 3.9-5.4 6 0 .1 0 .3.1.3.5.1 1 .2 1.5.1.9 0 1.8-.2 2.7-.2h3.2c.6 0 1.3.1 1.7-.5.3-.4.3-.3.5 0 .1.2.5.3.7.2.5 0 1-.2 1.5-.2 1.3-.1 2.6-.2 4-.3s2.8-.1 4.2-.1c.5 0 1 .1 1.4-.1.2-.1 0-.8.1-1.2 0-.8.5-1.4 1.1-1.4 1.3 0 2.2 1.3 1.7 2.6-.3.8-.2 1.4.4 2 0 0 .1.1.1.1.3.5.7.9.2 1.6s-.1 1.6.7 1.8c1.2.4 2.3.8 3.5 1.2 2.4.7 4.4 2.1 5.9 4.1.2.2.4.4.7.6 0-.3 0-.7 0-1 0 0-.1-.1-.1-.1 0-.1 0-.3.1-.4.1 0 .2.1.3.1.5.2.6.6.4 1.1s.1.6.5.5c1.3-.2 1.8.3 1.5 1.6-.1.2-.2.4-.4.6-.1-.2-.4-.4-.4-.7-.1-.4.1-.8-.1-1.1-.1-.2-.7 0-1 0-.8-.2-.5.2-.4.6.3 1 .7 1.9.9 2.9.3 1.2.4 2.4.6 3.6.2 1.4.5 2.7.7 4.1.2 2 .3 4 .4 6 .1 2.1.1 4.2.1 6.3 0 .6-.1 1.2 0 1.7.1.7.2 1.3.4 2 .4 1.6.3 3.2.3 4.9 0 .2-.1.5-.2.5-.4 0-.3.3-.3.5 0 2.5.1 5.1.1 7.6v.3c.5 1.5.5 3 .5 4.6 0 .4-.2.7-.7.6-.4 0-.6.2-.6.5 0 .4.3.5.6.5h6.6c.6 0 .7-.3.7-.8-.1-.7-.1-1.4-.3-2.1s-.4-1.4-.7-2.2c-.1-.2-.1-.4-.1-.6 0-1.2.1-2.5.1-3.7.1-2.7.2-5.5.3-8.2 0-2.2 0-4.4 0-6.7s0-4.5 0-6.8c0-.3 0-.5 0-.8-.2-1.7-.4-3.4-.5-5.1-.1-.7 0-1.5 0-2.2 0-1.2-.2-2.4 0-3.5.5-2.5 1.2-4.9 2.9-7 1-1.2 2.1-2.3 3.6-3 1.4-.7 2.8-1.3 4.2-1.9 1.9-.8 3.8-1.3 5.8-.3.2.1.6.2.8.1.8-.5 1.7-.6 2.5-.5 1.4.2 2.8.6 4.1 1.1 2.1.8 3.7 2.5 5.2 4.1.4.5.8 1.1 1.1 1.7.6.7.9 1.7 1.3 2.8m-147-21.3c-1.5.3-3 .6-4.5.9-.8.2-.9.4-.4 1 .1.1.1.2.1.3-.1 0-.2.1-.3 0-.8-.4-1.5 0-2.1.3-1.5.9-2.9 2-4.3 2.9-2.3 1.5-4.3 3.3-6.1 5.3-.6.6-1.2 1.1-1.8 1.8-1.3 1.5-2.5 3-3.7 4.5-.1.2-.3.3-.5.4-.1 0-.2 0-.2 0 0-.1 0-.2 0-.2.6-1 1.2-2.1 1.9-3.1 1-1.7 2.3-3.2 3.7-4.6.1-.1.1-.2.2-.4-.2 0-.3 0-.5 0-.1 0-.2.1-.2.2-.6.7-1.2 1.3-1.9 2-.9.9-1.8 1.8-2.7 2.7-.6.6-1 1.3-1 2.2 0 5-.1 10-.1 15 0 2.9-.1 5.9-.1 8.8-.1 2-.2 3.9-.3 5.9-.1 1.9-.1 3.7-.1 5.6s-.1 3.8-.1 5.8c0 1.6.1 3.2.1 4.8 0 .5-.1 1-.1 1.5.1 1.2.2 2.3.3 3.5.1 1.1.7 1.7 1.8 1.7 1.8-.1 3.7-.2 5.5-.3.4 0 .8 0 1.1-.1.1 0 0-.5 0-.8 0-.1 0-.2 0-.3 0-.4.1-.8.1-1.3 0-1.5-.2-2.9-.1-4.4.1-2.1.3-4.1.4-6.2 0-.1-.1-.2-.1-.3-.1.1-.3.2-.3.3-.1.6-.2 1.2-.3 1.9 0 .4-.1.7-.1 1.1-.1-.4-.1-.8-.2-1.2 0-.2 0-.3 0-.5.2-1.3.8-2.5.8-3.9 0-1.7.2-3.4.2-5.2 0-1.1 0-2.2 0-3.3.1-1.8.2-3.6.3-5.4 0-.7-.2-1.4-.1-2 .1-1.3.3-2.6.4-4 .1-1.2 0-2.4 0-3.6 0-.4 0-.7-.4-.8-.3-.1-.3-.3 0-.5.6-.4.7-1.3.2-1.8-.6-.7-.7-1.4-.4-2.3.4-1.1 1.1-2.1 1-3.4 0 0 .2-.1.4-.1s.5 0 .6-.1c.5-.6 1-1.2 1.4-1.9.9-1.6 1.5-3.3 2.7-4.7 1-1.1 2.1-2.1 3.5-2.7 1.1-.4 2.2-.9 3.5-1 1.2-.1 2.5-.4 3.7-.5.8-.1 1.6 0 2.4.1 1.1.1 2.2.2 3.2.4 1.9.5 3.8 1 5.2 2.5 0 0 .2 0 .2.1 0-.1 0-.2 0-.2-.1-.3-.2-.6-.3-.8-.4-.9-.1-1.5.8-1.7.4-.1.7-.3.6-.8 0-.4.2-.8.3-1.2 0-.1.3-.1.3-.1.5.6 1.1.6 1.8.6.6 0 1 .4.8.9-.4.7.1.5.4.5h6c.2 0 .4.1.6.1s.5 0 .6-.1c.1-.2.2-.5.1-.7-.3-.6-.7-1.3-1-1.9-.3-.5-.6-1.1-1-1.5-1.3-1.6-3.1-2.5-5-3.4-1.3-.6-2.6-1-4-1.3-1.6-.4-3.2-.7-4.8-.9-1.5-.2-3-.1-4.6-.2-1.1.1-2.2.1-3.5.1m30.1 59.9c0 2.4-.1 4.7-.1 7.1 0 .3.1.6.4.6 1.5.1 3 .2 4.5.3 1.1 0 2.2-.1 3.3-.1 1.3 0 2.7.2 4 .2 2.9.1 5.8-.1 8.8.2 1.6.2 3.2-.1 4.7-.1 1.4 0 2.8.1 4.2.1.8 0 1.6-.1 2.4.2 1 .3 1.9.3 2.8.1 1.9-.4 3.8-.6 5.7-.6h2.2c.4 0 .6-.1.5-.5-.1-.9-.1-1.8-.1-2.7 0-.4 0-.9-.2-1.2-.8-1.2-.5-2.4-.2-3.7.2-.7.5-1.4.5-2.1.1-1.1 0-2.2 0-3.3 0-1.9.1-3.8.1-5.6 0-.8.2-1.7.3-2.5 0-.5-.1-.8-.7-.8-.5 0-1 .1-1.4.1-.9 0-1.9 0-2.8 0-.5 0-.7.2-.9.7-.2.7-.8 1.2-1.5 1.3s-1.2-.3-1.6-.9c-.1-.2-.2-.4-.4-.5-.1-.1-.3-.2-.4-.3 0 .2-.1.3-.1.5 0 .6 0 1.1.1 1.7.1.4.3.7.4 1 .1.2.2.5.2.7 0 .7-.2 1.4-.2 2.1-.1 1.4-.1 2.9-.1 4.3v5.2c0 1.8-.1 3.6-.1 5.4 0 .4-.2.8-.4 1.1-.2.4-.6.3-.6-.1-.1-.7-.2-1.5-.3-2.3 0-.8 0-1.6 0-2.4s-.1-1.7-.1-2.5c-.1-1.4-.4-2.8-1.1-4.1-.9-1.5-1.8-3.1-2.7-4.6-.2-.4-.5-.8-.8-1.2-.1-.1-.4-.1-.6-.1.1-.1.3-.3.3-.4s-.1-.2-.2-.3c-1-.7-2.1-1.3-3.4-1.3-3.3 0-6.5.1-9.8.1h-.1c-.2.1-.6 0-.3.5.1.2 0 .5-.4.6-1.9.2-3.7.9-5.6 1.3-2.1.5-3.7 1.6-5.1 3.1-.6.7-1.3 1.4-1.9 2.1-.2.2-.3.5-.3.8-.2.7.4 1.2.7 1.8 0 .1.1.2.1.3-.1 0-.2 0-.2-.1-.2-.3-.5-.6-.7-.9-.1-.2-.2-.3-.3-.4-.4.1-.5.2-.5.4-.1.5 0 1.1 0 1.7m114-11c-1.5-.7-3-1.4-4.4-2.2-.5-.2-.6 0-.7.3-.1.1-.2.3-.3.4-.1-.2-.4-.3-.4-.5-.1-.4-.3-.6-.7-.6-.8 0-1.6 0-2.4 0-.3 0-.5 0-.5.4.1.5-.4.3-.5.3-.4-.6-1.1-.5-1.7-.5-.9 0-1 .1-1.1 1 0 .1-.1.2-.1.3-.1-.1-.2-.1-.3-.2s-.2-.3-.3-.4c-.2-.4-.3-.5-.8-.3-1.2.5-2.5.8-3.7 1.3-1.1.4-2.2.8-3.1 1.4-1.5.9-2.6 2.3-3.7 3.7-.6.7-1.2 1.4-1.2 2.4-.1 1.7-.2 3.5-.3 5.2 0 1.8.1 3.5.1 5.3 0 .5.1.7.6.6 1.5-.1 3-.2 4.6-.3 3-.1 6.1-.2 9.1-.3 1.2 0 2.4-.2 3.5-.3 1.7-.2 3.4-.4 5.1-.5 1.4-.1 2.9-.2 4.4-.3.7 0 1.4-.1 2-.1.1 0 .2-.2.2-.2-.1-.8-.4-1.5-.5-2.3-.2-1.9-.4-3.7-.5-5.6-.1-1.2 0-2.5 0-3.7 0-.4-.1-.9-.2-1.3-.5-1.3-1.2-2.2-2.2-3m-182.6-7c0-.3 0-.6-.1-.9-.2-1.1-.3-1.1.8-1.1h2.6c.1 0 .2-.3.1-.4-.3-.3-.6-.6-.8-.9-.1-.1-.2-.1-.3-.2v.5c0 .1 0 .2.1.2-.1 0-.2-.1-.2-.1-.1-.1-.2-.2-.2-.3 0-.2 0-.5.1-.7.2 0 .4 0 .5.1.5.4 1 .9 1.5 1.3.1.1.2.1.4.2 0-.2 0-.4-.1-.5-.9-1-1.7-2-2.6-2.9-.7-.7-1.4-1.3-2.1-2s-1.3-.7-2 0c-1 1.1-2 2.2-2.9 3.3-.5.6-.9 1.3-.8 2.3.2 1.2.2 2.4.3 3.7v4.5c0 1.2-.1 2.3-.1 3.5 0 1.3-.1 2.7-.1 4-.1.9.3 1.8.6 2.6.5 1.2 1 2.4 1.5 3.6 0 .1-.2.3-.2.3-.5-.2-.5.1-.5.4 0 .6 0 1.3-.1 1.9 0 .3-.1.5-.1.8 0-.3 0-.6-.1-.8 0-.1-.2-.2-.3-.3-.2.5-.7 1.1-.6 1.6.4 2 .4 4 .2 6-.1.7 0 .8.7.9.7 0 1.3.2 2 .3h.3c.4-.1.8-.2 1.2-.3h2.1c1.9-.2 3.9-.4 5.8-.7.8-.1 1.7-.2 2.5-.5.6-.2 1-.3 1.6-.1s1.3-.1 1.3-.6c0-1.1.1-2.3.1-3.4 0-.8-.1-1.7-.1-2.5.1-1.9-1.1-3.1-2.3-4.3-.1-.1-.4 0-.5.1-.3.2-.4.2-.3-.2.1-.6-.3-.9-.8-1.1s-1-.2-1.5-.4c-.2-.1-.4-.3-.6-.4.1-.1.2-.3.3-.4.5-.3 1.2-.5 1.6-.9 1.3-1.3 2.7-2.7 3.7-4.4.3-.5.3-.9.1-1.3-.5-.8-1-1.7-1.5-2.5-1.4-2.1-2.7-4.3-4.1-6.4-.4-.6-.7-.5-1.1.1-.1.2-.2.4-.4.5-1.7 2.1-2.9 4.5-3.8 7-.1.2-.3.4-.4.5-.1-.2-.4-.4-.4-.6 0-.9 0-1.7 0-2.6 0-.3.2-.6.2-.9 0-1.3-.1-2.6-.1-3.9 0-.1-.1-.3-.1-.7m12.5 1.8c0-1.9.1-3.8.1-5.8 0-.7.1-1.5.1-2.2 0-.5 0-1 0-1.5 0-1.1.1-2.1.1-3.2 0-.5-.4-.9-.6-1.3-.9-1.3-1.9-2.6-2.9-3.8-.8-1-1.3-2.1-2.5-2.7-.1 0-.1-.2-.2-.3.1 0 .2-.1.3-.1 1.4-.2 2.8-.3 4.2-.6.7-.1 1.7-.1 1.8-1 .1-.7.2-1.7-.2-2.3-.5-.8-.5-1.4-.2-2.2.5-1.2.6-2.4.6-3.6 0-.9.1-1.8.1-2.7 0-.1.1-.2.1-.3.3-1 .1-1.8-.5-2.2-1.1-.7-2.3-1.4-3.5-2-1-.5-1.6-.4-2.4.4-1.8 1.9-3.7 3.8-5.5 5.6-.3.5-.9.9-.9 1.7 0 .4-.5.7-.8 1-.4.4-.9.7-1.2 1.1-.6.9-1.1 1.8-1.8 2.6-.5.7-.8 1.4-.7 2.2.1 1 0 2.1 0 3.1 0 .3-.2.5-.1.8.3 1.7.2 3.3-.5 4.8-.1.1-.1.3-.2.4-.1-.2-.2-.3-.2-.5 0-.7 0-1.4 0-2.1 0-.1 0-.3.1-.4 0 .1 0 .2.1.3 0 .1.1.2.2.3 0-.1.1-.3.1-.4 0-.4-.1-.7-.1-1.1 0-.1 0-.2 0-.3-.1.1-.2.1-.2.2-.6 1.1-.6 2.3-.5 3.5 0 .1.2.4.3.4.7-.2.6 1.2 1.4.6 0 .1 0 .2.1.3.2.3.4.6.6.9.1.1.2.2.4.2.8.4 1.2 1.6 2.4 1.1.1 0 .2.1.2.2 0 0 0 .2-.1.2-.7.2-.2.5 0 .6.6.5 1.2.9 1.7 1.4 1.7 1.6 3.2 3.4 4.7 5.2 1 1.2 1.9 2.4 2.5 3.8.9 2 2.1 3.8 3.2 5.7.1.1.2.1.3.2 0-.1.1-.2.1-.3-.2-1.6-.1-3.7 0-5.9m100.6 15.9v7c0 1.1 0 1.1 1 1.4.8.2 1.6.4 2.4.3 1.2-.1 2.4-.5 3.6-.6 1.4-.2 2.8-.3 4.2-.4 2.3-.1 4.6-.2 6.9-.3.5 0 1.1 0 1.6-.1 1.7-.5 3.4-.2 5.1 0 .7.1.8 0 .8-.7 0-1.1 0-2.2 0-3.3 0-.4 0-.9-.2-1.3-.4-.8-.4-1.7-.3-2.6 0-.2.2-.4.3-.6.2-.3.5-.6.5-.9 0-1.3-.2-2.6-.2-3.8 0-1 0-2.1 0-3.1 0-.7-1-1.3-1.6-.9-.1.1-.5 0-.5-.2-.3-.4-.7-.6-1.1-.7-2.1-.1-4.2-.2-6.3-.3-2.6-.1-5.2 0-7.8.4-1.7.2-3.2 1.1-4.5 2.1s-1.7 2.6-2.5 3.9c-.9 1.6-1.6 2.9-1.4 4.7m-69.9-8.5c.1-.6.2-1.2.2-1.9 0-.2-.1-.5-.2-.5-.6-.2-1.3-.3-1.9-.4-.7-.1-1.3-.1-2-.1-1.1 0-2.1-.1-3.2.1-1 .2-2 .6-3.1 1-2.3.9-4.3 2.2-5.5 4.5-.4.8-.6 1.7-1.5 2.2 0 0 0 .1.1.2 0 .1.1.3 0 .4-.5 1-1 1.9-1.5 2.8-.1.1-.3.1-.5.2-.1 0-.2.1-.2.2v.4c0 .1-.2.2-.2.4 0 1.1-.1 2.3-.1 3.4 0 .9.1 1.8.1 2.7 0 .2.1.3.1.5.1-.1.2-.2.4-.2.1-.1.3-.1.5-.1 0 .2.1.4.1.6 0 .1 0 .3-.1.4-.3.3-.1.4.2.5s.6.1.9.1h.7c.2 0 .5 0 .7-.1.4-.1.8-.1 1.2-.2h2.9c1.3 0 2.6-.3 3.9-.1 1.7.3 3.5.2 5.2.2.3 0 1 .2 1-.6.1-1.7.3-3.4.4-5 .1-.9.2-1.8.3-2.7.2-1.2.3-2.4.5-3.6.1-.6.2-1.2.2-1.9.1-1.2.3-2.2.4-3.4m37.7-42.1h3.2c1.2 0 2.5.1 3.7.1 2.1.1 4.3.1 6.4.1h3.2c.8 0 1.5.1 2.3.1 1.2 0 2.3-.2 3.5-.3 1.1-.1 2.2-.1 3.3-.1.4 0 .4-.1.2-.4-.3-.5-.5-1-.8-1.4-1.3-1.7-2.7-3.3-4.4-4.6-.8-.6-1.6-1.1-2.5-1.4-.6-.2-1.2-.2-1.8-.7-.7-.5-1.6-.7-2.5-.8-1.1-.2-2.2-.2-3.3-.4-1.5-.3-3.1-.5-4.7-.4-.4 0-.8-.2-1.2-.1-1.7.2-3.4.5-5 .8-2.4.5-4.7 1.3-6.8 2.5-2.6 1.4-5 3-7 5.3-.4.5-.7 1.1-1.1 1.6-.2.3-.1.5.3.4 3.1-.1 6.2.2 9.3-.1 2-.2 3.8-.1 5.7-.2m-14.8 47.5c.1-.6.1-1.3.3-1.8s.6-.9.7-1.4c.1-.6.1-1.2.1-1.8-.1-1.3.1-2.6.4-3.8.2-.7.3-1.3.4-2 0-.1-.2-.3-.4-.3-.8-.1-1.6-.1-2.4-.2-.6-.1-.5.3-.5.6 0 .2 0 .5-.1.6-.1.2-.4.3-.5.5-.4.5-1 .6-1.5.5-.5-.2-.6-.7-.7-1.2 0-.3.1-.9-.5-.9-1.7.1-3.3.2-5 .3-.1 0-.3.1-.4.2.1.1.2.2.3.3.3.2.2.5 0 .5-.8 0-.9.6-1.2 1.1-.6.8-1.5 1.2-2-.1 0-.1-.1-.2-.1-.2v.3.6c.1.8.4 1.7.4 2.5 0 1 .4 1.7.9 2.4.9 1.3 1.7 2.7 2.5 4 .1.1.1.2.2.3.1-.1.2-.2.2-.4 0-.8 0-1.6 0-2.4 0-.1-.1-.2-.1-.4-.1.1-.2.2-.3.3-.1.2-.1.4-.2.6-.1-.2-.3-.3-.4-.5 0-.1-.1-.1-.1-.2-.8-2-.7-4-.7-6.1 0-.1.2-.2.3-.4.1.1.2.2.2.3-.1 1.7.2 3.3.4 5 0 .2.1.3.2.5.1-.2.3-.4.3-.5-.2-1.2.4-2.2.6-3.2.2-.9.2-1.8-.5-2.6-.1-.1-.1-.3 0-.4 0-.1.3-.1.3-.1.4.5.9 1 1.1 1.6.2.9.1 1.8 0 2.7-.1 1.9-.4 3.9-.5 5.8-.1 2-.2 4-.3 6 0 .8.2 1.6.3 2.4 0 .1.1.3.2.3.3 0 .3 0 .3.3s-.1.5-.1.8c0 .1.1.3.2.3 1.2.2 2.3.4 3.5.4 1.4 0 2.9-.1 4.3-.1.6 0 .9-.2.8-.9-.1-.6 0-1.3 0-1.9.1-1.2.2-2.4.2-3.6 0-.1-.1-.2-.1-.2-.1 0-.3 0-.3.1-.1.2-.2.4-.3.5h-.2c-.1-.5-.4-.9-.4-1.4 0-1.2.1-2.3.2-3.6m-15.2-34.2c0-.2.1-.4.1-.6.1-.5.1-1.1.1-1.6.2-1.4.2-1.4-1.2-2-.4-.2-.9-.4-1.2-.7s-.4-.1-.5.1c-.2.6-.6.4-.8.1-.3-.8-1-.6-1.6-.8-.3-.1-.5 0-.4.4 0 .1-.1.3-.1.4-.1-.1-.4-.1-.4-.2-.3-.8-1-.8-1.7-.7-.2 0-.4.4-.6.6-.1.1-.1.3-.2.5-.2-.1-.4-.2-.5-.4-.3-.7-.5-.8-1.3-.5-.4.1-.7.2-.5.7 0 .1 0 .2-.1.3-.1 0-.3 0-.4-.1-.5-.4-1-.4-1.6-.2-.3.1-.5.2-.8.3-3.1.7-5.8 2.3-8.1 4.4-1.2 1.1-2.3 2.4-3.4 3.6-.4.4-.7.8-1 1.3-.1.1 0 .5.1.5 1.5.1 3 .3 4.5.3 1.2 0 2.4-.2 3.6-.2 2.4-.1 4.8-.2 7.3-.3 1.7-.1 3.4-.2 5.1-.3 1.5-.1 3-.2 4.5-.4.3 0 1 .2 1-.6 0-1.3.1-2.5.1-3.9m-.2 9.8c0-1.1.1-2.3.1-3.4 0-.4-.1-.5-.5-.5-1.4.1-2.8.3-4.2.4-1.5.1-2.9.2-4.4.3s-2.9.2-4.4.3c-1.4.1-2.9.1-4.3.1-2.7 0-5.3-.1-8-.1-.2 0-.5-.1-.5.3 0 1.3-.1 2.5-.1 3.8 0 1 0 2.1-.2 3.1-.2.7.2.7.6.8.4 0 .7-.1 1.1-.1h3 1.4c.9 0 1.7.1 2.6.1.7 0 1.4-.2 2.1-.2 1.5-.1 3-.2 4.5-.1 1.7.1 3.3.3 5 .4 1.9.1 3.7 0 5.6 0 .1 0 .4-.2.4-.3.1-.5.1-1 .1-1.6.1-1.1.1-2.1.1-3.3m-6.7 20c-.1 1.3-.3 2.7-.4 4-.1.6-.1 1.2-.1 1.8-.2 1.7-.4 3.4-.5 5.1v.4c-.1 1.4-.3 2.8-.4 4.2 0 .1.1.3.2.3.7 0 1.3 0 2-.1 1.6-.4 3.3-.5 5-.5h1.2c.9.1 1.7-.3 2.6 0 .4.1 1.2.1 1.5-.2.4-.4.7-.5 1.2-.3.2.1.4-.1.6-.2-.1-.2-.1-.4-.2-.6s-.3-.5-.3-.7c0-.3.1-.7.1-1 0-1 0-2.1-.1-3.1-.2-1.3-.4-2.7-.9-3.9-.5-1.3-1.2-2.5-2-3.6-1.1-1.4-2.2-2.8-4-3.5-.3-.1-.5-.3-.8-.5-1.1-.5-2.1-1.2-3.4-1-.4 0-.7.2-.8.7-.1.7-.1 1.4-.1 2.1-.2.2-.3.3-.4.6m112.5-20.4v1.7c0 .5.1.7.7.7 3.1-.1 6.1-.1 9.2-.1 5.8-.1 11.7-.1 17.6-.1h.1c.5 0 .8-.4.7-.9 0-.1-.1-.2-.1-.4-.1-1.3-.1-2.7-.1-4 0-.4 0-.8-.1-1.3-.4 0-.7.1-1.1.1-.1 0-.2 0-.3 0-2.3 0-4.7 0-7 0-.2 0-.4 0-.5 0-1.2-.1-2.4-.2-3.5-.3-1.2 0-2.4.2-3.6.1-2.3-.1-4.5-.2-6.8-.5-1.5-.2-3-.1-4.5-.2-1 0-1 .1-.8 1.1v.6c-.1 1.2 0 2.3.1 3.5m-166.3-24.2v5.2c0 .7-.1 1.5-.1 2.2 0 .5.3.9.8.9.7 0 1.5.1 2.2.1.2 0 .3.1.5.2-.2.1-.3.2-.5.2-.8.1-1.6.1-2.4.1-.5 0-.6.1-.6.6v2.4c0 1.5-.1 3-.1 4.5 0 .4.1.7.5.7.8 0 1.6-.1 2.4-.1.2 0 .5-.2.6-.4.1-.6.1-1.1.2-1.7.1-1.2.2-2.4.3-3.5.1-1.5.5-2.9-.1-4.4 0-.1 0-.1 0-.2 0-.2 0-.5.1-.7 0 .2 0 .4.1.6 0 .1.2.2.3.3 0-.1.1-.2.1-.3.1-.5.1-1 .1-1.4 0-.1-.1-.3-.1-.4-.1.1-.1.3-.2.4-.1.2-.1.4-.2.7 0-.3 0-.5 0-.8.2-.9.6-1.9.7-2.8.1-1.8.1-3.6.2-5.4 0-.8.1-1.5.3-2.3 0-.2.4-.4.4-.6.1-1.1.1-2.2.2-3.3 0-.1 0-.2 0-.3-.1.1-.2.1-.2.2 0 .3.1.6.1.8-.1.7-.1 1.4-.2 2.1 0 .1 0 .3-.1.4 0-.1-.1-.2-.1-.3 0-2.8.1-5.5.1-8.3 0-.1 0-.2 0-.3.3-.4 0-.3-.2-.3s-.3.1-.5.1c-1.3.6-2.5 1.2-3.8 1.8-.2.1-.4.4-.4.6-.1 1.7-.1 3.4-.2 5.2 0 1.8-.1 3.6-.1 5.4 0 .9.1 1 1 .8.4-.1.8-.1 1.3 0 .2 0 .3.3.5.4-.1.1-.2.2-.4.3-.9.1-1.7.3-2.5.6m166.7 30.9c0 .9.1 1.8.1 2.7 0 .5.3.3.6.2.9-.5 1.9-1.1 2.8-1.5 2.3-.9 4.6-1.6 7.1-1.7.6 0 1.3-.1 1.9-.1 1.7 0 3.5-.1 5.2.1 1.2.1 2.4.6 3.6 1 1.5.4 2.8 1 4 2.1.7.7 1.5 1.3 2.3 1.9.1.1.2.1.3.2 0-.1.1-.3.1-.4 0-1-.1-2.1-.1-3.1 0-1.2 0-2.4 0-3.6 0-.8 0-1.2-1.1-1-.3.1-.6 0-.9 0-.7 0-1.5-.2-2.2-.1-1.5.1-3 .3-4.6.4-1.9 0-3.8-.1-5.8-.1-.3 0-.7-.3-.8.3-.2 0-.3-.1-.5-.1-.2-.1-.4-.3-.6-.2-2 .3-4.1.5-6.2.4-1.7-.1-3.3 0-5 0-.5 0-.6.3-.6.7.2.4.3 1.1.4 1.9m-11-7.2c-.2-1.2-.4-2.4-.5-3.6-.1-.5-.3-.5-.7-.4-.6.1-1.2.3-1.8.3-1.6 0-3.1-.1-4.7-.1-1.5 0-3-.1-4.5-.1-.3 0-.6 0-.6.5v6.6c0 .1.3.4.4.4 1.2.1 2.5.2 3.7.3 1.8.1 3.7.1 5.5.1 1 0 1.9-.1 2.9-.1.1 0 .4-.3.4-.4.1-1.2 0-2.3-.1-3.5m-121.2 12.7v.6c0-.2-.1-.4-.1-.6 0-1.6.1-3.3.1-4.9 0-.2-.1-.4-.2-.6-.2.2-.4.3-.4.5v2.4c0 .9-.1 1.8-.1 2.7v2.1c0 .1.1.2.1.2.1 0 .2 0 .2-.1.3-.3.6-.6 1-.8.7-.6 1.5-1.2 2.3-1.7 3.5-2.1 7.4-3 11.5-3h1.2 3.5c.7 0 1-.2.8-.9 0-.1 0-.4 0-.4.3-.1.6-.1.8-.1.1 0 .2.4.2.5 0 .6.3.7.8.8 1.1.1 2.1.2 3.1.4.9.1 1.1 0 1.1-.9 0-.3 0-.7 0-1 0-.5-.3-.6-.7-.6s-.7 0-1.1 0c-2.5-.1-5-.2-7.5-.3-1.2 0-2.5.2-3.7.2-1.8.1-3.5.1-5.3.1-2.1 0-4.2-.1-6.2-.1-.3 0-.6.1-.7.3-.2.4-.3.8-.3 1.2-.3 1.4-.4 2.6-.4 4m116.8 23h3.7c.2 0 .6 0 .4-.3-.5-1.1-.2-2.2-.3-3.3-.1-1.7-.3-3.5-.4-5.2 0-.6 0-1.2 0-1.8 0-.2-.1-.5-.2-.7-1-2-2.3-3.7-4.3-4.7-.2-.1-.5-.2-.7-.1-.1 0-.2.4-.2.6v10.2c0 .3.1.7.1 1 0 .9-.1 1.8-.1 2.7 0 .5-.1 1.3.2 1.6.4.2 1.1 0 1.8 0m-2.3-40.9c1.7-.1 3.2.5 4.9.7.2 0 .4.1.6.1 0-.2 0-.5-.1-.7-.4-.9-.9-1.7-1.4-2.6-1.2-2.1-3-3.8-5.1-5-1.1-.6-2.3-.8-3.6-.8-.8 0-1.3.5-1.3 1.4v6.1c0 .4.1.5.5.5 1.8.1 3.6.2 5.5.3m-.4 14.2c.4 0 .8 0 .8-.6 0-.2.1-.4.1-.6.1-.6.7-1 1.2-.8.2.1.3.2.4.3-.1.1-.2.2-.3.2-1 .2-.5 1-.7 1.6-.1.2.4.6.6.7 1.9 1.3 4 2.1 5.3 4.1.1.1.2.1.3.2 0-.1.1-.2.1-.4 0-.4-.1-.8-.1-1.2-.1-2.3-.1-4.5-.1-6.8 0-.1 0-.3 0-.4-.1-.2-.3-.4-.4-.4-1.2.1-2.4.2-3.5.2-.8 0-1.7 0-2.5 0-.2 0-.4 0-.6 0-1.3-.2-2.6-.4-3.8-.5-.6-.1-1.2-.1-1.8-.1-.1 0-.4.2-.4.3-.1.8-.1 1.7-.1 2.5 0 .2.2.5.4.5.7.2 1.5.3 2.3.4.7.3 1.7.6 2.8.8m-155.7 7.6c.2-.1.4-.2.6-.3-.2 0-.4-.1-.6-.1-.9.1-1.8.2-2.7.3-1.2.1-2.5.2-3.7.3-.1 0-.2.1-.3.1.1.1.2.1.2.2.2.1.4.3.4.4.1.9.1 1.9.1 2.8v7.2c0 .4.1.5.5.5.7-.1 1.4-.2 2.1-.4.8-.1 1.6-.4 2.4-.4.5 0 .7-.2.7-.7-.1-3.1-.1-6.2-.1-9.3 0-.1-.1-.2 0-.3.1-.2.2-.3.4-.3m54-2.4c0-1 .1-1.9.1-2.9 0-.1-.2-.3-.3-.3-1.2.2-2.4.3-3.6.5-.2 0-.5.3-.5.5-.1.6-.1 1.2-.2 1.8 0 .6-.1 1.1-.1 1.7 0 .1-.1.2-.2.3-.1-.1-.2-.2-.2-.3 0-.9.1-1.7.1-2.6 0-.3 0-.5 0-.8-.3 0-.5 0-.8.1-.5.2-1.1.3-1.6.6-.9.5-1.6.9-1.5 2.1s0 2.4 0 3.6c0 .1-.1.2-.1.3-.1-.1-.3-.1-.3-.2 0-.5-.1-1 0-1.5 0-.9.1-1.7.1-2.6 0-.1-.3-.3-.3-.3-.6.4-1.1.8-1.7 1.2-.4.3-.8.8-1.3 1.1-.6.4-.9.8-.9 1.5 0 2.2.1 4.4 0 6.6 0 1 .1 2-.5 2.9-.1.1 0 .2 0 .4.1 0 .3 0 .3-.1l.6-1.2c1.2-2.9 2.3-5.9 4.8-8 .2-.2.3-.6.3-.9 0-.6-.1-1.1-.1-1.7s.2-1.2.3-1.9c0-.1.1-.2.2-.3 0 .1.1.2.1.3v3.3c0 .3-.1.7.5.3.3-.3.7-.4 1-.6 1-.5 2.1-.9 3.2-1.4.3-.1.4-.3.4-.7-.1-.9-.1-1.8-.1-2.7 0-.2.1-.3.2-.5.1.2.2.4.3.5v.3 1.9c0 .3.1.7.3.9.6.4 1.5-.3 1.5-1.2m139.4-3.2c0-.2.1-.4.1-.6.1-.2.2-.4.2-.6.2.2.7.4.7.6 0 .9 0 1.8-.1 2.7s.1 1.4 1 1.7c.3.1.5.1.5-.4 0-1.6.1-3.2.6-4.8 0-.1-.1-.4-.3-.4-1.9-.7-3.8-1.2-5.8-1.3-1.2-.1-2.4.1-3.6.1-.8 0-1.5.1-2.3.1-.5 0-.9.2-.9.9 0 1.6-.2 3.3-.4 4.9 0 .5.2.7.7.6.4-.1.8-.1 1.1-.2.5-.1 1.1-.1 1.1-.8.1-.8.1-1.6.2-2.4.1-.6.1-1.3.1-1.9 0-.1.1-.1.2-.2.2.3.6.5.6.8 0 1.3 0 2.5-.1 3.8v.4c.4 0 .9 0 1.3-.2.2-.1.4-.4.4-.6.1-.7.1-1.5.2-2.2 0-.6 0-1.2.2-1.8 0-.3.2-.8.6-.5.3.2.4.6.4.9 0 1.2-.2 2.5-.2 3.7 0 .1.3.4.4.4.7 0 1.5-.1 2.2.1.6.1.5 0 .6-.4.2-.6.3-1.5.3-2.4m-41.8 5.6c.1-.1.2-.2.2-.2.1-1.4.1-2.9.2-4.3 0-.5.2-1 .3-1.4 0-.1.2-.2.4-.2 0 0 .2.2.1.3-.1 1.9-.3 3.7-.4 5.6 0 .4 0 .7.5.6.5 0 .4-.3.4-.6.1-1.6.2-3.1.3-4.7 0-.2.2-.3.3-.5.1.2.3.4.3.5 0 .9-.1 1.7-.1 2.6 0 .5-.1 1-.1 1.5-.2 1.2.1 1.8 1.3 2.1.1 0 .3-.1.3-.1.1-.3.1-.5.1-.8.1-1.5.1-3 .1-4.5 0-.5.2-1 .2-1.5 0-.2-.1-.5-.3-.5-1.6-.5-3.3-1-5-1-.9 0-1.1.3-.9 1.2.1.2.2.5.4.7.4.5.4 1 .3 1.6-.2.9-.2 1.8-.3 2.8v.5c-.1-.2-.3-.3-.4-.5-.1-.1-.1-.4-.2-.5-.3-.3-.7-.4-1.1-.7-.6-.5-.8-.4-1.1.2-.1.2-.4.3-.5.4-.5-.8-.9-.5-1.3.1-.1.1-.2.1-.3.2-.6.4-1.8.2-1.9-.3-.2-.7-.7-.9-1.3-.9-1.2 0-2.3 0-3.5 0-.8 0-1.6-.1-1.8.9 0 .1-.2.1-.3.2-.2.2-.4.4-.6.6-.1.1 0 .3 0 .5.1-.1.3-.1.4-.2s.2-.2.3-.3.3-.1.4-.1c0 .1-.1.3-.1.4-.2.3-.5.5-.7.8 0 0 .1.3.1.3.4-.1.8-.3 1.2-.4 1.5-.5 3.1-.4 4.7-.5 1.4-.1 2.9.1 4.3.1h4.1c.4-.3.7-.1 1 0m-145.4-48.7c0-.5.1-1.1.1-1.6 0-.7.1-1.4.1-2 0-.2 0-.3 0-.5-.2 0-.5 0-.7 0-.8.3-1.7.6-2.5 1-.5.2-.9.6-1.2 1-.2.3-.1.8-.2 1.3-.1 1 .1 1.9-.2 2.8-.5 1.9-.4 3.8-.6 5.8 0 .2-.1.5.3.5 1.3-.2 2.7-.4 4-.6.1 0 .3-.3.4-.5.2-2.4.4-4.7.5-7.2m2 66.6c0-.1.1-.2.1-.4.1-1.2.2-2.5.3-3.7.1-1 .2-2 .3-3 .2-1.3.4-2.6.5-3.9.1-.7-.1-1.5-.1-2.2 0-1.2.1-2.3.1-3.5 0-.9.1-1.9.1-2.8 0-.1-.2-.3-.3-.3-.6.1-1.2.2-1.8.2-.7 0-.8.3-.8.8.1 1.9.2 3.8.3 5.6.1 2.5.1 4.9.1 7.4.1 4-.1 8 .3 11.9 0 .4.2.5.6.5.5 0 .4-.3.4-.5 0-1.8 0-3.9-.1-6.1m-7 .7c0 1.2-.1 2.3-.1 3.5 0 .4.2.5.5.4l3.3-1.5c.4-.2.8-.5.9-.9.2-.7.2-1.5.2-2.3 0-1.3-.2-2.7-.2-4 0-1.2.1-2.4.1-3.7 0-.1-.1-.3-.1-.4-.1 0-.2.1-.4.1-1.2.4-2.3.8-3.5 1.1-.5.1-.7.3-.7.8v4.3c0 .9.1 1 1 .7.6-.2 1.2-.2 1.8-.3.1 0 .4.2.4.2-.1.3-.2.5-.3.7-.1.1-.3.2-.4.3 0-.1-.1-.1-.1-.2 0-.5-.1-.4-.4-.2-.2.1-.4.2-.7.2-1 .1-1.3.3-1.3 1.2m-.8-65.4c.1-1.1.3-2.1.4-3.2 0-.1-.3-.2-.3-.2-.3.3-.6.5-.7.8-.2.9-1 1.1-1.6 1.4-.1 0-.3-.1-.4-.2-.2-.2-.3-.4-.5-.7-.2.2-.3.5-.5.7-.5.4-1 .6-1.5 1-.2.2-.5.4-.5.6-.1 1.6-.1 3.1-.1 4.7 0 .3.1.7.1 1 0 .5-.1 1-.1 1.5 0 .2 0 .4.4.3 1.2-.3 2.4-.5 3.5-.8.4-.1 1.1 0 1.2-.6.1-1.1.2-2.2.3-3.3.1-1 .2-1.9.3-3m68.3 43.7c.2.1.4.2.6.2 1.7-.2 3.5-.4 5.2-.5.8-.1 1.6-.1 2.4-.1 1.4-.1 2.8-.3 4.2-.2 1.2 0 2.5.3 3.7.4 1.1.1 2.3.2 3.4.3 1.8.1 3.5.2 5.3.3 2.1 0 4.1-.1 6.2-.1 1.3 0 2.6.3 3.9.2 1.8 0 3.5-.3 5.3-.4.7 0 1.5.1 2.2.1l5.4-.3c2-.1 4.1-.1 6.1-.1h.3c.1-.1.2-.3.3-.4-.1 0-.3-.1-.4-.1-1.6-.1-3.2-.1-4.8-.2-2.8-.2-5.6-.2-8.3-.2-.7 0-1.5.1-2.2.1-3.6.1-7.1.1-10.7.1-.1 0-.2 0-.3 0-1.6.6-3.4.3-5 .3-2.3.1-4.7-.4-7-.4-3.4 0-6.8.1-10.2.3-.7 0-1.3.2-2 .3-1 .1-1.9.3-2.9-.1-.1-.1-.3 0-.5 0-.3 0-.3.2-.2.5m-63.2 6.6c0-.4-.1-.8-.1-1.2 0-.8.1-1.6 0-2.4-.1-.5-.2-.9.5-.9.1 0 .1-.1.2-.2-.1 0-.2-.1-.2-.1-.4 0-.8 0-1.1.1-1.2.2-2.5.4-3.7.7-.1 0-.2.2-.2.2.1.4.3.8.3 1.3.1 1.5.1 3 .1 4.5 0 1.3-.1 2.7-.1 4 0 .4.3.6.7.5 1-.2 2.1-.4 3.1-.7.4-.1.7-.3.7-.9-.1-1.6-.1-3.2-.2-4.9m-4.4-10.6v4.9c0 .5.2.7.7.6 1-.2 2-.3 3-.5.2 0 .5-.2.5-.3.1-1.2.2-2.4.3-3.5 0-1.7 0-3.3 0-5 0-.4 0-.8-.2-1.1-.1-.1-.6 0-1 0-.1 0-.2 0-.3 0-1 .2-2 .4-3 .5-.4 0-.3.3-.3.5.1 1.2.2 2.5.3 3.9m160.4 4.3c0-.2 0-.6-.1-.7-1.2-.8-2.5-1.5-3.8-2.2-.1-.1-.4 0-.5.1-.2.2-.3.4.1.7.2.2.4.6.4.9-.1 1.5-.1 3-.4 4.5-.2 1.1.2 1.7 1.1 2.1.2.1.5.2.7.3 0-.2-.1-.4-.1-.6 0-.1 0-.2 0-.3 0-1.7.1-3.3.1-5 0-.3.2-.6.3-.9.1.3.3.6.3.9 0 2-.1 3.9-.1 5.9 0 .2.1.5.2.6 1.2 1.3 2.3 2.6 3.5 3.9.1.1.1.1.2.1 0-.1.1-.2.1-.3 0-.3-.1-.7-.1-1 0-2.1 0-4.2 0-6.3 0-.5-.2-1-.3-1.4 0-.1-.2-.2-.3-.3-.1.1-.2.2-.2.3v.5c-.1.9-.2 1.8-.3 2.7-.1.5-.1 1-.3 1.5 0 .1-.2.2-.3.3-.1-.1-.2-.2-.2-.3 0-1 .1-2 .1-3-.1-1 .5-2.1-.3-3 0 .2.1.1.2 0m-166.7-33.6c-.1 1-.1 2-.2 3 0 .7-.1 1.5-.1 2.2-.1.8.1 1 .9.8 1-.2 2-.5 3-.7.2-.1.5-.1.7-.1.5-.2.4-.7.4-1.1 0-1.5.1-3 .2-4.6 0-.5-.1-1.2 0-1.6.3-.8-.2-.6-.6-.6-1.2.2-2.3.4-3.5.7-.5.1-1 .3-.8 1 .1.2 0 .6 0 1m7.3 4.7c.7 0 1.4-.1 2.1-.1 1.2 0 1.3-.2 1.3-1.4 0-.8 0-1.5 0-2.3 0-1.2.1-2.4.1-3.7 0-.1 0-.2 0-.3.1-.7.1-.7-.6-.7-1 .1-2.1.2-3.1.4-.4.1-.9 0-1 .6-.1.4-.1.9-.1 1.4v2.6c0 1-.1 2-.1 3 0 .5.3.6.7.6.2 0 .4-.1.7-.1m-7.5 51.1c-.6.1-1.3.3-1.9.4-1 .1-1 0-1 1s.1 2 .1 3.1c0 .4.2.6.6.6 1-.2 2-.3 3-.5 1.3-.3 2.6-.5 3.9-.8.2 0 .4-.3.4-.5 0-.8-.1-1.6 0-2.4.1-.7-.2-1.7 1-1.8.1 0 .2-.2.3-.3-.2 0-.3-.1-.5-.1-.8.2-1.5.4-2.3.6-1.1.1-2.3.4-3.6.7m132.6-66.3c-.6.1-1.2.2-1.8.2-1.1 0-2.2-.2-3.3-.2-1.2 0-2.4.1-3.7.1-.1 0-.2.1-.3.1.1.1.1.2.2.3 1.7 1 2.9 2.5 4.3 3.9.5.5.9 1.1 1.2 1.8.2.5.3 1 .3 1.5 0 .3.1.5.4.3.1 0 .1-.3 0-.4-.4-.7-.2-1.3.2-1.9 1.2-1.7 2.6-3.3 4.2-4.6.2-.2.5-.4.7-.6 0 0 0-.3-.1-.3-.7 0-1.4-.1-2.3-.2m-129.6 58.5c-.3 0-.5.1-.8.1-.9.1-1.7.3-2.6.4-.5.1-.6.2-.2.5.1.1.1.2.1.4.1 1.2.1 2.4.1 3.5 0 .4.1.8.2 1.1 0 .6.4.7.9.6 1.3-.3 2.6-.7 3.9-1.1.3 0 .6-.2.6-.3 0-1 .1-2-.1-3s0-1.7.9-2.2l.3-.3c-.1 0-.3-.1-.4-.1-.9.2-1.9.3-2.9.4m38.7-51.9c1.5-1.6 3.2-3 5.1-4.1.1-.1.2-.2.2-.3-.1 0-.2-.1-.3-.1-.7.1-1.4.2-2.1.3-1.5.2-2.9.3-4.4.6-.5.1-1 .2-1.5.5-.4.3-.7.7-1.1 0-.1-.1-.3-.2-.5-.1-.1 0-.1.3-.1.4v1.5c0 .3 0 .6.1.9.2-.2.4-.4.7-.5.1 0 .1-.1.2-.1h.5c0 .1-.1.3-.1.4-.6 1.2-1.1 2.4-.2 3.7.2.3.4.4.7.1.8-1.1 1.7-2.1 2.8-3.2m113.1 11.4c-.1-.2-.1-.5-.2-.7-.1.3-.3.5-.4.8-.2 1.7-.4 3.3-.6 5-.2 1.9-.6 3.7-.6 5.6-.1 2.2 0 4.3-.3 6.5-.1.9.1 1.8.1 2.7 0 .8-.1 1.6-.1 2.4 0 .3.1.6.2.9.1-.3.3-.6.4-.8 0-.1.2-.1.3-.1s.2.2.3.2c.1.1.3.1.4.2 0-.1.1-.2.1-.4 0-.4-.3-.9-.1-1.2.4-.8.1-1.5-.2-2.2-.1-.2-.4-.6.2-.3 0 0 .2-.2.2-.3.1-1.9.1-3.8.1-5.7s-.1-3.8-.1-5.7c.2-2.3.2-4.6.3-6.9m-142.7 14.9c0 .4-.1.9.6.9.6 0 1.2-.2 1.8-.1.7.1.9-.3.9-.9 0-1.4.1-2.8.1-4.2.1-1.1.2-2.2.3-3.2 0-.3.1-.6.1-1 0-.3-.1-.4-.4-.3-.8.1-1.5.2-2.3.2-.5 0-.9.3-.9.8 0 1.4-.1 2.8-.1 4.1-.1 1.1-.1 2.3-.1 3.7m-.1 8.2v3c0 .5.2.7.7.6s1.1 0 1.6-.2c.2-.1.6-.3.6-.5.1-1.3.2-2.5.3-3.8 0-.1-.1-.2-.1-.3-.1 0-.2.1-.2.1-.1.1-.3.3-.3.5-.2.5-.4 1.1-.6 1.7 0 .1-.1.2-.2.3 0-.1-.1-.3-.1-.4.2-.6.4-1.3.6-1.9s.6-1.1.7-1.7c.2-.9.1-1.9.2-2.8 0-.4.1-.9.1-1.3 0-.3 0-.6-.4-.5-.7.1-1.3.2-2 .3-.5.1-.7.4-.7.9v3.3c-.1.9-.1 1.7-.2 2.7m77.9-38.2c.1-.1.2-.1.3-.2.3-.2.6-.4.8-.6-.4-.1-.7-.1-1.1-.2h-.1c-.7 0-1.4-.1-2-.1-.2 0-.3.2-.5.3s-.3.2-.5.3c0-.7-.6-.4-.9-.5-1.8-.1-3.6-.2-5.4-.3-.1 0-.2.1-.3.2.1 0 .1.1.2.1.9.5 1.7 1 2.4 1.7.8.7 1.4 1.4 1.7 2.5.2.6.4 1.3.6 1.9.1.2.3.4.5.4.1 0 .3-.2.4-.4.3-.5.4-1 .7-1.4.9-1.2 2-2.4 3.2-3.7m-66.6-11.4c.8 0 1.5.1 2.3.1.1 0 .2.1.3.1.7.1 1.4.3 2.1.4.8.1 1.6.1 2.4.2 1.7.2 3.3.4 5 .5.5.1.8-.3.5-.8-.2-.3-.5-.6-.8-.7-1.9-.4-3.9-.9-5.8-1.1-2.1-.2-4.2-.2-6.3-.3-.6 0-1.1-.1-1.7-.1-.1 0-.2.1-.3.2.1.1.1.2.2.2.1.1.2.2.2.2 0 .1.1.2.1.2-.1 0-.2 0-.3 0-.5-.3-1.1-.6-1.6-.9-.1-.1-.3-.1-.4-.2 0 .2.1.4.1.5 0 .2.1.5.1.7 0 .4.1.6.6.6 1.1.2 2.1.2 3.3.2m179.2 50.3c0 .4-.1.9-.1 1.3-.1.7-.2 1.3-.3 2 0 .4 0 .7.4.9.8.4 1.7.8 2.5 1.2.6.3 1.1.8 1.6 1.2.2.1.3.3.5.4.1-.2.2-.4.2-.6 0-1 0-2 0-3 0-.3 0-.7-.1-1 0-.3 0-.7-.2-.9-.8-.8-1.7-1.6-2.6-2.4-.4-.3-.8-.6-1.2-.8-.1-.1-.4 0-.5 0-.2.5-.2 1-.2 1.7m-135.3 4.6c.5.2.9.4 1.4.5.1 0 .4-.3.4-.5s-.1-.5-.1-.8c0-.7.1-1.4.1-2.2 0-.4-.1-.8-.1-1.2 0-.2.3-.4.4-.6.1.2.2.4.2.6 0 1.2-.1 2.4-.1 3.7 0 1.2.4 1.8 1.6 2.1.1 0 .3-.2.3-.2 0-.4-.1-.7-.1-1.1 0-.7 0-1.4.1-2.1.2-1 .4-2 1.1-2.8.1-.1.2-.3.3-.4-.2-.1-.4-.1-.5-.2-.7-.1-1.3-.1-2-.1s-1.4-.1-2.1-.1c-.2 0-.6.3-.6.5-.2 1.5-.5 3.2-.3 4.9m-2.2-5.5c-1.3 0-2.5.1-3.8.1-1 0-1.1.2-1.2 1.2 0 .8 0 1.6-.2 2.4-.1.7 0 .9.7.9h.7c.1 0 .4-.1.4-.3.1-.3.1-.6.1-1 .1-.8.1-1.5.1-2.3 0-.2.1-.4.2-.5.1.2.2.3.2.5-.1 1-.2 2.1-.2 3.1 0 .2.2.5.3.5.6.1 1.2.2 1.8.3.1 0 .4-.2.4-.3.1-.4.1-.8.2-1.2.1-.9.3-1.7.4-2.6.2-.2.1-.5-.1-.8m32.6 4.2c-.3 0-.6-.1-.9-.1-1.6-.1-3.1-.2-4.7-.3-.4 0-.7.1-.6.6.1.6.3 1.2.4 1.9.2.8.4 1.7.7 2.5.1.4.3.5.6.2 1.4-1.5 3-2.6 4.9-3.3.6-.2.5-.7.5-1.2-.1-.2-.6-.2-.9-.3m-84.4-52.9c1.3-.6 2.6-1.3 3.9-1.9.4-.2.7-.4.6-.9 0-.1.1-.2.1-.3.1-.1.3-.2.4-.3-.2-.1-.4-.2-.5-.2-.8.3-1.6.5-2.3.9-.5.4-1.1.5-1.6.8-1.6.9-3.3 1.5-4.9 2.3-1.4.7-2.7 1.6-4.1 2.3-1.2.5-2.3 1.4-3.7.9-.3-.1-2 1.3-2.1 1.6v.4c.1 0 .2-.1.3-.1.5-.4.9-.8 1.4-1.2.2-.2.2-.4.4-.1.5.6 1 .4 1.6 0 .2-.2.6-.3.8-.4 1.2-.5 2.3-1 3.5-1.5s2.3-1 3.5-1.5c.9-.3 1.7-.5 2.7-.8m166.3 55.4c0-1.2.1-2.4.2-3.6 0-.3.2-.6.4-.8.1-.1.4-.1.6-.1 0 .2-.1.3-.1.5v.5c-.1 1.1-.2 2.3-.3 3.4v1.4c0 .1.1.3.2.4.1-.1.2-.1.3-.2.2-.2.4-.5.6-.6 1-.5.8-1.4.8-2.2 0-1.3 0-2.5 0-3.8 0-.5 0-1 0-1.5-.4.1-.9.2-1.3.4-.2.1-.4.1-.6.3-.5.4-1.2.6-1.2 1.4v2.4c0 1.3-.1 2.7-.1 4 0 .3-.1.6-.1 1 0 .2.2.4.4.6.1-.2.2-.3.3-.5s.1-.4.1-.6c-.2-.7-.2-1.5-.2-2.4m-58.4 2.1c.1.2.1.4.3.5.5.4.7 1 .7 1.6 0 .4.1.9.3 1.2.4.8.9 1.5 1.3 2.3 0 .1.1.1.1.2.1-.1.2-.1.2-.2 0-.3 0-.5 0-.8 0-.7.1-1.3.1-2 0-1-.1-2-.1-2.9s0-1.9 0-2.8c0-2 0-2-2-1.8h-.1c-.1.1-.3.2-.3.4-.1 1.2-.2 2.4-.3 3.5-.1.2-.2.4-.2.8m-99-50.5c.3-.6.8-1.2.8-1.8.1-1.5.4-2.9.7-4.4 0-.2-.2-.5-.3-.6-.5-.1-.9-.1-1.4-.2-.8 0-.9-.2-.9.9 0 .7-.1 1.4-.1 2-.1 1.2-.3 2.4-.4 3.6-.1.7-.2 1.3-.3 2s-.2 1.4-.3 2.1c0 .1 0 .3.1.4.1-.1.1-.2.2-.4.4-.8.8-1.6 1.2-2.4.1-.3.4-.7.7-1.2m163.8 40.4c-.1.1-.2.3-.2.4-.1.9-.1 1.8-.1 2.7 0 .3-.1.6-.1.9-.1.7-.1 1.4-.1 2.1 0 .5.2.7.7.4s1.1-.5 1.7-.7c.1-.1.3-.2.3-.4.1-1.9.2-3.8.3-5.6 0-.5-.3-.6-.6-.5-.7.2-1.2.5-1.9.7m7.2-27.7c.5-.2.9.1.9.6 0 .3 0 .6-.1.9h1 .1c.2-.1.5-.2.5-.2-.1-.4.5-.9-.1-1.1-1-.3-1.9-.9-3-.9-1.5 0-2.9.2-4.2 1-.4.2-.8.4-1 .7-.2.5-.2 1.1-.3 1.6s.1.5.4.3c.6-.2 1.2-.5 1.8-.8.2-.1.3-.5.4-.8s0-.7.1-1c0-.1.3-.2.4-.3.1.2.2.4.3.6 0 .3 0 .6-.1.8-.1.4.1.5.4.4.6-.1 1.2-.1 1.7-.3.4-.1.8-.3.7-.9-.1 0 0-.3.1-.6m-159.9-10.5c-.1.3-.3.6-.3.9-.1.5-.1 1.1-.2 1.6 0 .1-.1.2-.2.3 0-.1-.1-.2-.1-.3 0-.5.1-1 .1-1.5 0-.1 0-.2-.1-.2s-.2 0-.2.1c-.5.5-1 1-1.4 1.6-.1.1-.1.2-.2.3.1 0 .2.1.3.1.5.1 1 .2 1.4.4.9.4 1.8 1 2.6 1.5.3.2.6.3.7-.3s.1-1.2.2-1.8c0-.1-.1-.1-.2-.2-.1.1-.2.2-.2.3-.1.4-.1.7-.2 1.1 0 .1-.1.2-.2.2 0-.1 0-.2 0-.3.1-.9.2-1.8.3-2.8 0-.2-.1-.3-.1-.5-.1.2-.3.3-.3.5-.1.6-.2 1.2-.3 1.8 0 .1-.1.2-.1.3-.1-.1-.2-.3-.2-.4.1-.7.2-1.4.3-2 .1-.7.2-1.4.3-2.1 0-.1-.1-.2-.1-.3-.1 0-.3.1-.4.1-.5.4-.8.9-.8 1.6v2.2c0 .1-.1.2-.2.3-.1-.1-.2-.2-.2-.3 0-.7 0-1.4 0-2.1 0-.2 0-.3 0-.5.4.2.2.2 0 .4m133.7 19.8c-.3-.7-.6-1.5-.9-2.2-.1-.4-.4-.6-.8-.6-.1 0-.4-.2-.5-.4s0-.5 0-.7c0-.1 0-.3-.1-.4-.1.1-.3.1-.4.2s-.2.2-.3.3c-.2.2-.5.3-.7.5-.2-.3-.4-.6-.5-.9s-.1-.7 0-1.1c.1-.5-.2-.7-.6-.9-.7-.3-1.4-.5-2-.8-.4-.2-.5 0-.5.4v1.1c0 .5.9 1.1 1.3 1 .1 0 .1-.2.1-.4.1-.3.1-.7.2-1 0-.1.3-.1.3-.1.5.4.8.8.6 1.5-.1.3 0 .7.2.9.4.4.9.7 1.3 1.1.7.7 1.5 1.4 2.1 2.2.4.6.6 1.3 1 1.9.1.1.3.2.4.3 0-.1.1-.2.1-.2-.1-.4-.2-1-.3-1.7m-155.9 50.4c.1-1.3.2-2.5.3-3.8 0-.1-.1-.2-.1-.3-.1.1-.2.1-.3.2-1 .9-2 1.6-3.2 2-1.2.3-1.4 1-1.3 2.1.1.5.2.6.6.5 1.3-.3 2.6-.5 4-.7m108.8-62c-2.3 0-4.7-.1-7-.1-1.1 0-2.3-.1-3.4-.1-1.6 0-3.2 0-4.8 0-.1 0-.3.2-.3.3-.1.5.1.9.7.8.7-.1 1.4-.1 2.1-.1 2.5-.1 5-.1 7.5-.1 1.7 0 3.3.1 5 .1.2 0 .4-.1.7-.2-.2-.2-.3-.4-.5-.6m-117 63.2c.5-.1 1.1-.2 1.6-.2.8 0 .9-.2.8-.9-.1-.5.1-.8.6-.9.1 0 .2-.2.4-.3-.2 0-.4-.1-.5-.1-2.7.8-5.4 1.3-8.1 1.6-.1 0-.3.1-.3.2-.1.7.5 1.2 1.2 1.1 1.4-.1 2.8-.2 4.3-.5m71-57.8c0-1.1.2-1.3-1.2-1.8-.1 0-.2-.1-.2-.1-1.2-.5-2.4-1-3.7-.9-.1 0-.3.1-.4.2-.1.6-.1 1.1-.1 1.7s.4.6.8.7c.4 0 .8.2.7-.5 0-.3.1-.7.3-1 0-.1.2-.2.2-.2.1 0 .3.1.3.2.1.5.1.9.2 1.4.1.3.2.6.4.8.7.5 1.4 1 2.1 1.4.1.1.2.1.4.2.1-.1.2-.3.2-.4-.1-.6-.1-1.1 0-1.7m-53.9-14.3c0-.4 0-.8.1-1.2.2-1.8.4-3.7.5-5.5 0-.4.1-.8.1-1.2 0-.1-.2-.3-.3-.3-.4 0-.8.1-1.2.1v.1.8c0 .4 0 .6.4.7v.2c0 .2.1.4.1.6-.3 2.2-.7 4.5-.9 6.7-.2 1.4-.2 2.7-.3 4.1 0 .1.1.2.2.3 0-.1.1-.1.1-.2.1-.5.3-1 .4-1.5.4-1.2.6-2.4.8-3.7m62.6 9.8c-1.2-.1-2.3-.3-3.5-.2-.9 0-1.7-.1-2.6-.3-.7-.2-1.3-.2-2-.3-.3 0-.7.1-1 .3-.1 0-.1.2-.1.4 0 0 .1.2.2.2.3 0 .6 0 .9-.1.8-.3 1.6-.1 2.3.3.4.2.8.3 1.2.3.3 0 .6-.1.9-.1.9.1 1.8.3 2.8.3 1.1 0 2.2-.2 3.3-.2 1.4-.1 2.8-.1 4.2-.2.3 0 .6-.2.8-.3.1 0 .1-.1.2-.2-.1 0-.2-.1-.2-.1-.4 0-.9.1-1.3.1-2 .1-4 .1-6.1.1m-7.8 35.6c.1-.2.1-.4.3-.6.1-.2.4-.3.5-.4-.2 0-.4-.1-.6-.1s-.3 0-.5 0c-.5-.1-.6.1-.4.6.2.4-.1.7-.4.9-.2.1-.6 0-.7-.1-.3-.3-.5-.8-.7-1.2-.1-.1-.2-.2-.2-.3-.1.2-.2.3-.2.5 0 .9.1 1.8.1 2.7 0 .2.2.5.3.6.8.5 1.6 1 2.2 1.8.1.2.3.4.5.5.1-.4.2-.7.2-1.1 0-.1-.2-.2-.2-.2-.5.3-.3-.1-.3-.3 0-1.2.1-2.1.1-3.3m108.4-4.1c0 1.6-.1 3.2-.1 4.8 0 .2.1.5.2.5.5.1 1.6-.9 1.5-1.4-.3-1.1-.2-2.3-.1-3.4.1-.7.2-1.4.2-2.1 0-.1-.2-.3-.3-.3-.5.1-1.1.2-1.5.5-.2.1 0 .7 0 1.1.1 0 .1 0 .1.3m-46.5-42.7c.3-.1.6-.3.8-.4.1 0 .1-.2.2-.3-.1 0-.2-.1-.3-.1-.5-.1-1-.2-1.5-.4-.9-.4-1.8-.3-2.7-.1-.8.1-1.7.3-2.6.1-.7-.1-.7.2-.8.5s-.3.8.4.8c.2 0 .4.1.6.1h3.5c.9 0 1.6-.1 2.4-.2m-32.9 10.7c-.1-.5-.4-.6-.9-.6-2.1.1-4.1.2-6.2.3-.5 0-1-.2-1.4-.1-.3 0-.6.4-.7.7-.1.4.3.5.7.5 2.6-.1 5.2-.1 7.9-.1.3-.1.6-.1.6-.7m98.4 6c.2.1.5.2.7.3.1 0 .2 0 .3-.1.2-.6-.2-2-.7-2.4-.8-.6-1.6-1.1-2.5-1.6-.4-.2-.8-.3-1.2-.4 0 0-.2.2-.2.3.4.4.6.8.3 1.3-.1.2-.1.5 0 .7s.4.4.6.6c.1-.2.3-.3.4-.5.1-.3.2-.6.3-.8h.4c.1.4.1.8.1 1.2s.1.6.5.8c.3.1.6.3 1 .6m-74.5-17.9c-1.1.1-2.2.2-3.3.3-1.3.1-2.6.2-3.9.3-.1 0-.2.1-.2.1.1 0 .1.1.2.1.8.2 1.6.7 2.6.5.8-.2 1.7.1 2.5.1 1 0 1.9-.2 2.9-.1.7 0 .5-.5.7-.8-.2-.2-.4-.4-.7-.5-.2 0-.4 0-.8 0m-92.8 23.3c-.7.2-1.5.3-2.2.5-.1 0-.2.2-.3.3-.1.3-.2.6-.2.9s.1.7.2 1c0 .1.2.1.3.2 0-.1.1-.2.1-.3.1-.5 0-1 .2-1.4.1-.2.4-.4.5-.5v.7c-.1.8-.1 1.6-.2 2.5 0 .1.2.2.3.4.1-.1.2-.2.3-.4.2-.9.3-1.8.4-2.7 0-.1.2-.2.3-.3.1.1.2.3.2.4-.1.6-.3 1.1-.3 1.7-.1.9-.1 1.8-.1 2.7 0 .2.2.3.3.5.1-.2.2-.5.2-.7 0-.1-.1-.3-.1-.4 0-.2-.1-.4-.1-.6.2-.8.4-1.6.5-2.3.1-.6.2-1.2.2-1.7 0-.2 0-.4 0-.6-.1-.1-.2 0-.5.1m-17.2 13.5c.4-.6.8-1.2.7-2-.1-.6-.1-1.1-.1-1.7 0-.2 0-.4-.1-.6-.2-.8-.7-1.3-1.5-1.6-.2-.1-.3-.1-.5-.2.1.2.2.3.3.5.1.3.4.6.3.9-.1 1.8-.3 3.6-.4 5.4 0 .1-.1.2-.1.4s-.1.4-.1.5c.2-.1.3-.2.5-.3.6-.7.4-1.5.6-2.3.1-.7.2-1.4.3-2.1 0-.2.1-.5.2-.7 0 .2.1.4 0 .7-.1.8-.3 1.7-.4 2.5 0 .2.1.4.3.6m16.8 24.3c0-1.4.1-2.8.1-4.2 0-.4.1-.9.1-1.3 0-.1 0-.3-.1-.4-.1.1-.2.1-.3.2-.7.6-1.3 1.3-2 2-.3.3-.3.5 0 .8.3.2.3.4.2.8-.1.6-.2 1.3.5 1.7.1 0 .2 0 .2.1 0-.1 0-.2 0-.2-.3-.6-.1-1.2.1-1.8.1-.2.1-.5 0-.6-.3-.7.2-1.1.5-1.6 0 0 .1-.1.1-.1 0 .1.1.1.1.2v1.4c0 .8 0 1.6-.2 2.4-.1.5-.3.8.2 1.1.2.1.4.3.6.4-.1-.3-.1-.6-.1-.9m10.9-58.5c-1.3 0-2.6 0-3.9 0-.5 0-.7.3-.7.7 0 .5.2.5.6.5s.8-.1 1.2-.1c1.4-.1 2.7-.1 4.1-.1.6 0 1.2.2 1.7-.2.2-.2.5-.3.7-.5-.3 0-.5-.1-.8-.1-.9.1-1.9.2-2.9-.2m-22 42.1c0 .7-.1 1.5-.1 2.2v2.3c0 .2.1.4.1.6.1-.1.3-.3.3-.4.2-1.4.5-2.9.7-4.3.1-.8.3-1.6.4-2.5 0-.3.5-.9-.2-1.1-.3-.1-.7.1-1.1.2-.1 0 0 .5.1.7 0 .2.1.5 0 .7-.1.4-.2.9-.2 1.6m121.7-32.6c.3 0 .6.2.8.1.3 0 .8-.2.8-.3 0-.3.3-1-.3-1-1.7-.1-3.4-.1-5.1 0-.6 0-.5.6-.5 1 0 .1.3.3.5.4.3.1.7.1 1 0 .9-.5 1.8-.1 2.8-.2m-31.9 36.7c.1 0 .3.1.4.1 1 0 2 0 3 .5.3.2.4-.1.3-.3-.1-.5-.1-1 .1-1.5.2-.4 0-.5-.5-.5-.3 0-.5-.1-.8-.1-.6 0-1.3-.1-1.7.2-.3.3-.5 1-.8 1.6m60.9-48.9c-.4 0-.8-.1-1.2 0-.2 0-.3.3-.5.5.1.1.3.3.4.3 1.1.1 2.2.2 3.3.3.2 0 .3 0 .5.1 1.1.3 2.2.2 3.2-.2.1 0 .1-.2.2-.3-.1 0-.2-.1-.2-.1-.4 0-.8 0-1.1 0-1.6-.2-3-.4-4.6-.6m-26.7 11.6c-.1.7.2.8.8.7.3 0 .6-.1.9-.1.7-.1 1.5 0 2.2-.2.6-.1 1.3-.3 1.5-1 .1-.4.1-.6-.4-.6-.4 0-.8 0-1.1 0-.2 0-.4.2-.4.3-.1.5-.4.6-.8.5-.4 0-.8-.2-1.1-.2-.5.1-1.2-.1-1.6.6m73-11.5c.5-.5.5-.6-.1-.9-.3-.1-.6-.3-1-.3-1 0-2 0-2.9 0-1-.1-1.1.3-1.1 1.1 0 .5.2.4.6.3.8-.3 1.5-.8 2.4-.3.1.1.3.1.4 0 .2-.2.5-.5.2.1 0 0 .1.1.2.1.4 0 .8 0 1.3-.1m-222.1 65c0-.9-.1-1.8-.1-2.7 0-.4.1-.7.6-.8.1 0 .2-.2.3-.2-.1-.1-.2-.3-.4-.3-.4 0-.7 0-1.1.1 0 .2 0 .4.1.6-.1 1.9-.2 3.8-.3 5.6 0 .1.2.3.3.4.3-.3 1 .1.9-.6-.1-.6-.2-1.3-.3-2.1m171.3-64.2c.6 0 1.2-.1 1.8-.2.2 0 .3-.2.5-.4-.2-.1-.4-.3-.6-.3-.5 0-1 0-1.6 0-1.3 0-2.6.1-3.9.1-.3 0-.5.2-.7.3.2.2.5.3.7.5h.1c1.2.2 2.4.1 3.7 0m-149.9 17c.1-.1.1-.3.2-.4.5-.4.6-.8.5-1.5-.2-.7-.2-1.5-.1-2.2.1-1.1.3-2.2.4-3.4 0-.1-.1-.2-.2-.4-.1.1-.3.2-.3.3-.2 1.3-.3 2.5-.4 3.8-.1.5-.2 1.1-.2 1.6-.1.7-.1 1.4-.2 2 0 .1.1.2.2.4 0 .1 0 0 .1-.2m114.5-5.6c1.8 0 3.6-.1 5.4-.2.2 0 .4-.2.4-.3 0-.2-.2-.6-.3-.6-1 0-2-.1-3 .2-1.1.3-2.2.4-3.3.5-.2 0-.4 0-.6.1-.1 0-.2.1-.3.1.1.1.2.2.3.2zm-14.6 34.8c-.3-.1-.4.1-.3.4.1 1.1.1 2.1.2 3.2 0 .2.2.5.4.6.1.1.4.1.6.1 0 0 .1-.3.1-.4.1-1 .1-1.9.1-2.9s0-1-1.1-1m-10.4 1.8c.3 0 .7.2 1 .1.8-.1.5-.7.5-1.1.1-.5-.2-.5-.6-.5-.6 0-1.1-.1-1.7-.1-.3 0-.7-.1-.8.4-.3.9-.1 1.2.8 1.2zm-50-33.5c-.2.3-.5 1.7-.3 1.8.3.1.6-.1 1-.2h.1c1.2-.1 1.7-.8 1.3-2 0-.1-.2-.2-.3-.2-.6.2-1.2.4-1.8.6m-34.1 29.1v.9.4c.1-.1.3-.2.3-.3.2-.7.3-1.5.4-2.2.1-.3 0-.6.1-.9 0-.1.2-.3.2-.4.1.1.2.3.2.4 0 .4-.1.8-.1 1.2 0 .1.1.2.1.4.1-.1.3-.1.4-.2.2-.2.3-.5.5-.7.1-.1.2-.3.1-.4-.3-.6-.7-1.1-1.3-1.2-.4-.1-.8 0-.8.6.2.8 0 1.5-.1 2.4m13.9-40.3c.5-.3 1.2 0 1.4-.9.2-.6 0-.6-.4-.6-.7 0-1.5.1-2.2 0-.5-.1-.6.1-.6.4-.2.9.1 1.1.9 1.1zm12.7 16.2c.1.1.3.2.4.2.7-.4 1.5-.9 2.2-1.4.4-.3.4-.8.2-1.2-.3-.5-.6-.2-.8 0-.1.1-.2.1-.3.2-1.1.4-2.1.7-1.7 2.2m2.2-6.2c-.2.5-.5.9-.8 1.4-.1.1-.2.3-.3.4.1-.2.1-.3.2-.5v-.1c0-.2 0-.3.1-.5-.2.1-.3.1-.5.2-.7.7-1.5 1.4-2.2 2.1-.1.1-.1.4-.1.5.2 0 .3 0 .5-.1.7-.3 1.3-.7 2-1 .4-.2 1-.2.9-.9 0-.1.2-.1.2-.2.3-.2.6-1 .4-1.3 0-.1-.2 0-.4 0m-33-1c0 .9-.1 1.7-.1 2.6 0 .2.1.3.1.5.1-.2.4-.3.4-.5.1-.8.2-1.6.3-2.4.2-1.1.4-2.1.6-3.2 0-.1-.1-.2-.1-.4-.3.2-.9 0-1 .6 0 .8-.1 1.8-.2 2.8m70.2 36.4c0 1.5-.1 3-.1 4.5 0 .1.1.2.1.3.1 0 .2 0 .2-.1.3-.7.7-1.4 1-2.1.1-.1 0-.3 0-.4-.6-.9-.7-1.8-.6-2.8 0-.2-.2-.3-.3-.5-.1.2-.1.3-.2.5s-.1.4-.1.6m88.5-28c-.1.2-.2.5-.3.7 0 .1 0 .3.1.4.1-.1.3-.1.4-.2.4-.4.8-.8 1.1-1.3.3-.3.6-.6.7-.9.2-.7.4-1.4.5-2.1 0-.1 0-.2-.1-.3 0 0-.2 0-.2.1-.1.1-.2.3-.3.4-.7 1.1-1.3 2.1-1.9 3.2m-160.4-9.6c0 .2-.1.5-.1.7-.1 1-.3 1.9-.4 2.9-.1.8-.2 1.6-.3 2.4v1.4c0 .1.1.2.1.3.1-.1.3-.2.4-.3s0-.3 0-.5c.1-1.2.2-2.4.3-3.6s.3-2.5.4-3.7c0-.1-.1-.2-.1-.4-.1.1-.2.2-.3.3zm47.3 31.1c-.3-.2-.7-.3-.7.2-.2 1.4-.3 2.8-.4 4.2 0 .2 0 .3.1.5.1.4.3.4.5.1s.2-.7.3-1.1c.1-.7.2-1.5.3-2.2-.1-.6-.1-1.1-.1-1.7m-42.3-45.1c.7-.9 1.4-1.8.9-3-.1-.3-.5-.5-.8-.5-.4 0-.4.3-.2.6v.3c-.2.9-.4 1.7-.5 2.6-.1.3 0 .6 0 .9.2-.2.3-.4.5-.6 0-.1 0-.1.1-.3m42.9 18.2c.1-.4.1-.8.2-1.1.2-.7 0-1-.7-1-.2 0-.4 0-.6 0-.1 0-.4.1-.4.3-.1.6-.1 1.2-.1 1.8 0 .1.1.2.2.2.5 0 .9-.1 1.4-.2m-53.4-25.4s.1-.1.1-.1c1.3-.5 2.7-.9 4-1.4.2-.1.4-.5.3-.8 0-.3-.3-.3-.6-.1-.4.3-.9.5-1.4.7-1 .5-1.9.9-2.9 1.4-.1 0-.1.2-.1.3.2-.1.3 0 .6 0m45.2 22.1v.7.4h.4c.6-.2 1.3-.3 1.9-.6.2-.1.3-.6.4-.9 0 0-.2-.2-.3-.2-.5 0-1-.1-1.4 0-.4 0-1-.1-1 .6m87 31.7c-.5 0-1 .1-1.5.1-.1 0-.1.1-.2.1.1.1.1.1.2.1 1.6.1 3.2.1 4.8.1.8 0 1.5.3 2.3-.1.1-.1.3 0 .4-.1-.1-.1-.2-.3-.4-.3-.1-.1-.3 0-.4 0-.5 0-1 .1-1.4.1-1.2.1-2.5 0-3.8 0m-53.1-41.6c.3-.1.7-.3 1-.4.1 0 .2-.2.2-.2 0-.1-.1-.3-.2-.3-.9-.1-1.8-.2-2.8-.3-.1 0-.2.4-.4.6.3.2-.1.8.5.7.4 0 .8.1 1.2.1.2 0 .3-.1.5-.2m103.8 12.4c-.1.7.6.3.8.6.2-.2.5-.4.5-.6.1-.4 0-.8.2-1.2.2-.5-.1-.5-.4-.6-.2 0-.4 0-.5-.1-.5-.2-.7.1-.7.5s.1.8.1 1.4m-134.1-.2c.1 1.1.3 1.3 1.4 1.1.1 0 .3-.1.3-.2 0-.6 0-1.3 0-1.9 0 0-.1-.1-.1-.1-.4 0-.9 0-1.3.2-.1.2-.2.5-.3.9m20.9-13c-.3 0-.6 0-.8 0-.1 0-.1.5 0 .5.2.2.5.3.7.4.5.1.9 0 1.4 0 .3 0 .7 0 .9-.2s.2-.6.3-.9c0 0-.2-.2-.2-.2-.7.2-1.4.3-2.3.4m6.3-.4c-.5 0-1 .1-1.4.1-.5 0-.8.3-1 .7-.2.3-.1.4.3.4.6 0 1.2-.1 1.8 0 1.1.2 1 .2 1-.8-.1-.4-.2-.5-.7-.4m-73 59.2c-.2-.2-.4-.5-.4.1 0 1.2-.1 2.3.4 3.4.1.2.2.3.3.4.1-.2.3-.4.4-.6s.1-.5.1-.7c.2-.9-.4-1.6-.8-2.6m39.5-46c.3-.1.6-.2.8-.3.5-.2.9-1.2.6-1.7-.1-.1-.7.1-1 .1-.1 0-.2.1-.3.1-.4.2-.8 1.6-.5 1.9 0 .1.2 0 .4-.1m79.3 39.4v.7c0 .1.1.2.2.3.1-.1.2-.1.2-.2.2-.6.5-1.1.5-1.7.1-.9-.1-1.8-.1-2.7 0-.1-.1-.2-.1-.3-.1.1-.2.1-.3.2s-.1.3-.2.4c0 1.1-.1 2.1-.2 3.3m50.6-38c.2-.4.4-.8.6-1.2 0-.1 0-.2-.1-.2-.5-.1-1.5.6-1.6 1.1 0 .5-.1.9-.1 1.4v.5c.2-.1.3-.1.5-.2.5-.2.6-.7.7-1.4m-82.3 31.5c-.4 0-.7.1-1.1.2-.2 0-.4.2-.5.4-.4 1.1-.4 1.1.7 1.1h.1c.5 0 1 0 .9-.7 0-.4 0-.7-.1-1m-47.6-31.1c-.1 0-.3 0-.3 0 0 .4-.1.8 0 1.2.1.5.5.1.7.1s.4-.1.6-.2c.5-.3.7-.7.4-1.3-.3-.7-.6-.1-1 0-.1 0-.2.1-.4.2m127.1-.1c-.2.3-.4.5-.5.8-.1.5-.2 1.1-.2 1.7 0 .1.3.2.3.2.3-.3.8-.6 1-1s0-.9 0-1.4-.2-.6-.6-.3m-96.9-23.8c-.1.3-.2.6-.2.9 0 .4.2.6.6.4.1-.1.3 0 .5 0 0 0 0 .2.1.3 0 .1.2.1.2.1.2-.3.7-.4.5-.9-.2-.9-.4-1-1.7-.8m10.9 58c.2-.1.5-.2.7-.2.6-.1.8-.3.5-.9-.1-.2.1-.4.2-.6.1-.1.2-.2.3-.3-.2-.1-.4-.2-.5-.2-.9 0-1.5 1.2-1.2 2.2m-17.8-47.9h2.1c.1 0 .4-.1.4-.2 0-.2 0-.5-.2-.6s-.4-.2-.7-.2c-.7.1-1.5.2-2.2.3-.2 0-.4.2-.5.3.2.1.4.1.6.2.1.1.3.1.5.2m-60.1 31.6c.2-.1.5-.3.7-.4.1 0 .1-.3 0-.3-.4-.3-.8-.6-1.1-.8-.4-.3-.6-.2-.5.3v.9c0 .3.1.6.2.9.2-.2.4-.4.7-.6m192.9-35.3c-1.1.1-2.3.3-3.4.4-.2 0-.3.1-.5.2.2.1.3.2.5.2 1 .1 2.1.1 3.1.1.2 0 .5-.1.5-.2 0-.2-.1-.4-.2-.7m-56.5 17.3v.5c-.1.4.1.6.4.4.2-.1.6-.3.6-.5 0-.6-.1-1.2-.3-1.8 0-.1-.2-.2-.3-.2s-.4.1-.4.1c.1.5.1.9 0 1.5m-93.2-4.5c0 .3-.1.7.1.9.4.4 1.8.1 2.1-.4.2-.4.1-.5-.3-.5-.6-.1-1.2-.1-1.9 0m-13.1 9c.2.5 0 1-.3 1.5v.3s.2.1.3 0c.4-.5.9-1 1.2-1.5.1-.3-.2-.7-.3-1.1-.2.2-.5.4-.7.6-.1-.1-.2 0-.2.2m73.4-9.5c-.5 0-1.1-.1-1.6-.1-.1 0-.3 0-.4-.1.1.2.1.4.2.6.1.1.3.1.5.1 1 0 2-.1 3-.1.1 0 .2-.1.3-.1.1-.1.2-.2.4-.3-.2 0-.3-.1-.5-.1-.6 0-1.2.1-1.9.1m-31.9 1c.8 0 1.6-.1 2.4 0 .7.1.8-.5 1.1-.8 0 0 0-.3-.1-.3-.3 0-.7 0-1 0-.1 0-.1.3-.1.4-.1.1-.1.3-.4.3-.7-.1-1.4 0-2.2 0-.1 0-.2.1-.3.1.1 0 .1.1.2.1.1.1.2.1.4.2m122.3-12.9v.4c.4.1 1 .3 1.3.1s.4-.8.6-1.2c-.1 0-.2-.1-.2-.1-.5.1-1 .1-1.4.3-.2 0-.2.2-.3.5m-95.4 50.3.6.3c0-.2-.1-.4-.1-.6 0-.8 0-1.5 0-2.3 0-.1 0-.3 0-.4-.2.1-.5.2-.5.3zm-106.3-8.6c0-.2-.1-.4-.1-.6-.1.2-.3.4-.3.6v4.7c0 .1 0 .3.1.4.1-.2.2-.3.2-.5 0-1.5 0-3 .1-4.6m142.7-32.7c.1-.1.3-.2.4-.3.1-.3.3-.7.3-1 0-.1-.4-.4-.5-.3-.3.2-.6.4-.8.7-.1.1-.1.2-.1.3-.2.6-.1.7.7.6m50.5 9.7c-.3-.4-.6-.8-.9-1.1-.1-.1-.2-.1-.4-.2 0 .1 0 .2.1.3.2.5.3 1.1.6 1.6.1.3.3.5.5.8.3.3.5.1.5-.2-.1-.4-.2-.7-.4-1.2m-46.9-2.8c0 .6.1 1.3.1 1.9 0 .5.3.3.5.3 0-.2.1-.3.1-.5 0-.3-.1-.7-.1-.9.3-.8.3-.8-.6-.8m-52.4 32.1c-.2 0-.6 0-.6.1-.1.3-.1.6 0 .9 0 .1.3.2.5.1.3 0 .7 0 .9-.2s.2-.5.2-.8c-.3-.1-.6-.1-1-.1m-5.1.6c.2-.2.4-.4.6-.6.1-.1 0-.4 0-.4-.5 0-1 0-1.4.1-.1 0-.1.6-.2.9s.1.4.4.3c.2 0 .4-.2.6-.3m-31.5-35c.6.2 1.2.4 1.8.6.2.1.4 0 .6-.1-.1-.1-.2-.3-.4-.3-.6-.3-1.3-.5-2-.8-.2-.1-.3-.1-.5-.1.2.3.3.5.5.7m16.1 33.4c0 .3.1.6.1 1 0 .1.1.1.2.2.4-.4.8-.7 1.2-1.1 0 0-.2-.4-.2-.4-.5 0-.9.1-1.3.3m-76.2-53.1c-.2.1-.4.2-.5.4-.1 0-.1.1-.1.2.1 0 .2.1.2.1.8-.3 1.6-.6 2.3-.9.1 0 .1-.3.2-.4-.1 0-.2 0-.4 0-.1 0-.2.1-.3.1 0-.1 0-.2.1-.3 0-.1 0-.2 0-.2-.1 0-.2 0-.2.1-.4.3-.8.6-1.3.9m36.2 68c-.2 1.1-.3 2.2-.5 3.3 0 .1.1.3.2.4.1-.1.2-.1.2-.2.1-1.1.3-2.3.4-3.4 0-.1 0-.2 0-.3-.1 0-.2.1-.3.2m56.1-12c0-.8 0-.8-.7-.5-.2.1-.5 0-.7.2-.1.1-.2.3-.2.5 0 .1.1.4.2.4.4-.1.9-.3 1.4-.6m-14.3-49c0-.9 0-1.8 0-2.8 0-.1-.1-.2-.1-.3-.1.1-.2.1-.2.2-.1.2-.1.3-.1.5 0 .8.1 1.7.1 2.5v.4c.1 0 .2-.2.3-.5m-38.5 23c.1-.4-.2-.4-.4-.3-.4.1-1 1.3-.7 1.7.1.1.4.1.5 0 .1-.4.3-.9.6-1.4m162-33.8c-.3.2-.6.3-.9.5-.1.1-.2.3-.1.4s.3.2.4.2c.4-.2.9-.4 1.3-.7.1-.1.2-.2.4-.4-.2-.1-.4-.2-.6-.2-.1 0-.3 0-.5.2m7.2 26.8c.1.3.3.7.4 1 .1.1.2.2.3.3 0-.1.1-.3.1-.4-.2-.8-.4-1.5-.7-2.3 0-.1 0-.1-.1-.2-.1.1-.2.1-.2.2-.1.4 0 .9.2 1.4m-122.6 34.9c-.1.2-.1.3-.2.5.2 0 .3-.1.5-.1.4-.2.7-.4 1.1-.6.2-.1.3-.3.5-.5.1-.1.1-.3.2-.5-.2 0-.4 0-.6.2-.6.3-1 .6-1.5 1m18-3.8c.1-.2.3-.5-.2-.5-.6 0-1.1.4-1.1 1.1 0 .1.3.2.4.2.3-.2.5-.5.9-.8m100.7-58.1c.4.1.8.3 1.2.4.2.1.5 0 .7 0-.1-.2-.1-.6-.3-.7-.6-.3-1.1-.2-1.6.3m-202.2 47c-.1.1-.2.3-.2.3.4.7.2 1.5.1 2.2 0 .1.1.2.2.3.1-.1.2-.2.2-.3 0-.8 0-1.6 0-2.5 0 0-.1 0-.3 0m64.7 11.5c.2.3.1 1 .7.5.2-.2.3-.5.3-.8 0-.1-.2-.4-.2-.4-.2 0-.5.1-.7.2-.1.1-.1.3-.1.5m-58.8-24.8c0 .6-.1 1.1-.1 1.7 0 .1.1.3.1.4.1-.2.2-.3.3-.5.1-.6.1-1.2.1-1.8 0-.2-.1-.4-.1-.6-.1.2-.2.3-.3.5.1.1.1.2 0 .3m67.3-29.5c.1.2.1.5.2.6s.4.3.6.2.4-.4.3-.6c0-.2-.3-.4-.5-.5-.1.1-.4.2-.6.3m4.5 63.2c0 .3-.1.7-.1 1 0 .1.1.2.2.2.1-.1.2-.2.2-.2.1-.6.1-1.3.1-1.9 0-.1-.1-.2-.1-.3-.1.1-.2.2-.2.3 0 .3 0 .6-.1.9m-52.9-54.8c0-.2 0-.5 0-.7 0-.1-.2-.3-.2-.3-.2.1-.4.2-.4.3 0 .4.1.8.1 1.3 0 .1.2.2.3.2s.2-.2.2-.3c.1-.1 0-.2 0-.5m-23.6-9.8c.1 0 .3-.1.4-.1.1-.1.2-.2.3-.2-.1-.1-.3-.3-.4-.2-.5.2-1 .4-1.5.7-.1 0-.1.2-.2.3.1 0 .3.2.3.1.4-.2.7-.4 1.1-.6m136.7 1.3v.7c0 .1.1.1.2.2 0 0 .1 0 .1-.1.1-.7.2-1.4.3-2.1 0-.1-.2-.2-.3-.3 0 .1-.1.2-.1.2-.1.5-.1.9-.2 1.4m4.4 17.7c.1 0 .2.1.3 0 .2-.2.4-.4.6-.6.1-.1.2-.2.3-.3 0 0-.1-.2-.1-.2-.4.1-.8.1-1.2.3-.2 0 0 .5.1.8m-142 19.5c-.2.1-.5.1-.5.2v2c0 .1 0 .2.1.2.1-.1.2-.2.2-.3 0-.5.1-1.2.2-2.1m25.7-18.8c0 .2.1.5.1.7 0 0 .2.1.3.1.1-.1.3-.3.3-.5s-.1-.5-.2-.7-.3-.2-.4-.4c0 .3 0 .5-.1.8m89.2 35.3c.1.2.1.6.5.4.2-.2.4-.5.6-.8-.2-.1-.4-.3-.5-.3-.3.2-.4.4-.6.7m24.7-55.5c.3-.1.6-.2.9-.4.1 0 0-.3 0-.4-.4.1-.8.1-1.2.2.1.1.2.3.3.6m-3.7-1.3c0 .2 0 .4-.1.6.4 0 .8 0 1.1-.1.1 0 .1-.2.2-.4-.1-.1-.3-.2-.4-.2-.1.1-.4.1-.8.1m21.9 76.7c0-.2 0-.4 0-.5s-.2-.2-.3-.3c-.1.1-.2.2-.2.3 0 .2-.1.5 0 .7s.3.4.4.6c.1-.3.1-.6.1-.8m-123.9-12.5c0-.1 0-.1 0-.2s-.1-.3-.2-.4c-.1.1-.2.2-.2.3-.1.4-.2.8-.3 1.2 0 .1.1.2.1.3.1-.1.2-.2.3-.3.1-.2.2-.5.3-.9m168.4-63.7c.1-.1.2-.2.3-.3s.2-.2.2-.3-.1-.2-.2-.3c-.2 0-.6-.1-.6 0-.1.2-.2.5-.2.7-.1.1 0 .7.5.2m-147.2 21.2c-.3.1-.6.3-.9.4.3 0 .6.1.8.1h.1c.3 0 .7 0 1-.1-.3-.1-.6-.2-1-.4m8.4-1.7c.2-.2.5-.3.7-.5-.3 0-.5-.1-.8-.1h-.1c-.2.2-.4.4-.4.6 0 .4.3.2.6 0m-39.6 18.2c0-.2-.1-.3-.1-.5-.1.1-.2.1-.2.2-.1.5-.1.9-.1 1.4 0 .1.1.2.2.3.1-.1.2-.2.2-.3 0-.3-.1-.7 0-1.1m159.3-15h.3c.2 0 .4-.1.5-.1-.2-.2-.3-.3-.5-.4-.1-.1-.3 0-.4 0-.2 0-.3.1-.5.2.3.1.4.2.6.3m-178.7 61.2c.3-.1.6-.1.9-.2-.3-.1-.6-.1-.9-.2-.1 0-.1 0-.2 0-.1.1-.3.1-.4.2 0 .1 0 .2.1.3.1 0 .3 0 .5-.1m70.1-72.5c.1.2.2.4.3.6 0-.1.2-.2.1-.3-.1-.4-.1-.7-.2-1.1 0 .3-.1.5-.2.8m-31.6 46.7c-.3.1-.6.3-.8.4-.1 0-.1.2-.1.2.3 0 .6 0 .9-.1.1 0 .1-.3 0-.5m-43.4-21c0 .1.1.2.1.3s.1.2.1.3c.1-.1.2-.2.2-.3 0-.3-.1-.5-.1-.8 0-.1 0-.2-.1-.4-.1.1-.1.2-.2.3.1.2 0 .4 0 .6m-5.8-6.6c0-.1-.1-.3-.1-.4 0-.2-.1-.4-.1-.6-.1.2-.1.4-.2.7v.5c0 .2.1.3.1.5.1-.3.2-.4.3-.7m30.5-7v.9c0 .1.1.1.2.1 0 0 .1-.1.1-.1.1-.3.1-.7.1-1 0-.1-.2-.2-.3-.3-.1 0-.1.1-.1.4m-38.3 45.6h.3c.1-.4.1-.9.1-1.3 0 0-.1-.1-.2-.1-.1.1-.1.1-.1.2 0 .4 0 .7-.1 1.2m33.4-35.6s.1.1.1.1h.3c0-.2.1-.4.1-.6-.2 0-.4 0-.6 0 .1.2.1.4.1.5m-11.9-13.8c.2-.1.3-.2.5-.2-.1-.1-.2-.2-.3-.2-.3 0-.5.1-.8.1.2.1.3.2.6.3m33.1 40.7c0-.2 0-.4 0-.5-.1.1-.3.2-.4.3s-.1.1-.2.2-.2.1-.2.2c.1.1.2.2.3.2.1-.2.3-.3.5-.4m-21.2 7.7c0-.2 0-.5-.1-.7-.2.1-.3.3-.5.4-.1.1 0 .2-.1.3.3.1.5.1.7 0m-19.6-41.2c.2 0 .3.1.5.1.1 0 .3-.2.4-.2-.1-.1-.3-.1-.4-.2-.2 0-.4 0-.7 0 0 .1 0 .2.2.3m4.3 19c.1 0 .2 0 .3.1 0-.2 0-.4 0-.6 0-.1 0-.2 0-.3-.1 0-.3.1-.3.1-.1.2 0 .4 0 .7m29.8.2v.5h.3c0-.2 0-.4 0-.6.1 0-.2 0-.3.1m-44.2-36.9c-.2-.1-.4-.3-.6-.4-.1.1-.1.2-.2.3.2.1.5.1.8.1m44.1 42.6c0-.3.1-.6.1-.9 0-.1 0-.3-.1-.4 0 .1-.1.3-.1.4 0 .3-.5.6.1.9m-42.9-43.6c.1 0 .3 0 .4-.1 0-.1 0-.2.1-.3-.2 0-.5.1-.7.1 0 .1 0 .2.2.3m42.7 41.4c.1.1.2.1.3.2 0-.3.1-.5.1-.8 0 0-.1-.1-.2-.1 0 0-.1.1-.1.1 0 .1-.1.3-.1.6m8 9.9c-.1 0-.3 0-.4.1s-.2.2-.2.3c.1 0 .2.2.3.1.3-.2.5-.4.7-.6-.2 0-.3 0-.4.1m-42.1 1.1c.1.1.2.2.2.3.1-.1.2-.2.2-.3 0-.3-.2-.5-.2-.7-.1.1-.2.3-.2.7m0-18c0 .2.1.4.1.7.1-.2.2-.4.3-.5 0-.1-.2-.2-.4-.2m34.4 32.3c0-.3.1-.6.1-.9 0-.1-.2-.1-.3-.2 0 .1-.1.2-.1.2.1.3.1.6.3.9m84.2-20.5c.3-.4-.1-.4-.3-.5-.1 0-.3.1-.4.2.1.1.3.2.4.3zm-131.4 10.1v1s.1 0 .1-.1c0-.3.1-.7.1-1 0-.1-.1-.1-.2-.2.1 0 .1.1 0 .3m46.9-6.6c.1-.2.2-.4.3-.6-.1 0-.2-.1-.2-.1-.1.3-.2.6-.3.9 0-.1.1-.1.2-.2m-28.7-20.6c-.1-.1-.2-.3-.3-.4-.1.1-.2.2-.2.2.1.2.1.3.2.5.1-.1.2-.1.3-.3m-17.8 31.6c-.2.1-.4.2-.6.3.2 0 .4 0 .6-.1h.2c.1 0 .2 0 .4-.1 0-.1-.1-.2-.1-.2-.1.1-.3.1-.5.1m37-28.9c0-.2-.1-.4-.1-.6v.6.4c0 .1.1.2.2.3 0-.1 0-.2 0-.3s0-.3-.1-.4m9.3 29.2c0-.1 0-.3 0-.4-.1 0-.3 0-.3 0-.1.2-.1.4-.1.5.1 0 .2 0 .4-.1m-45.8 7.2c.2-.1.3-.2.5-.2-.1-.1-.1-.2-.2-.2-.2 0-.5.1-.7.2.1 0 .2.1.4.2m18.6-41.8c-.1.1-.3.2-.4.3v.2h.7c-.1-.1-.1-.3-.3-.5m132.7 21.2c.1-.1.2-.2.3-.2-.2-.1-.5-.1-.7-.2-.1 0-.1.1-.2.2.2 0 .3.1.6.2m-136 14.2c0 .3 0 .6-.1.8h.1c.1-.2.1-.5.1-.7.1 0 .1-.1-.1-.1m135.5-71.8c-.2.1-.3.2-.5.3.2.1.4.2.6.2 0-.1 0-.3-.1-.5m-151.5 27.8c0-.1-.1-.1-.2-.1v1.1h.1c.1-.3.1-.7.1-1m-.2 36.9c.1.2.1.4.2.6 0 0 .1-.1.1-.1 0-.2.1-.4.1-.6-.1-.1-.2 0-.4.1m46.8-9.9c.1.2.1.3.2.5.1-.1.2-.1.2-.2 0-.2-.1-.4-.2-.6-.1 0-.2.1-.2.3m-33.6-27.5c0 .1.1.1.1.2.1-.1.3-.2.4-.3 0-.1 0-.2-.1-.3-.1 0-.3.1-.4.4m-6.4 19.6c.2 0 .5.1.7.1 0 0 .1-.1.1-.2-.2-.1-.4-.1-.7-.1 0 0-.1.1-.1.2m6.2-12c-.1 0-.2 0-.2.1 0 .3-.1.6-.1.9 0 0 .1 0 .2.1 0-.2.1-.5.1-.7s0-.2 0-.4m-12.8 33.2c0-.1-.1-.2-.1-.3-.1.1-.1.2-.2.3v.5c0 .1.1.2.1.3 0-.2.1-.2.2-.3 0-.1 0-.3 0-.5m17.2 2.5c0 .1 0 .1 0 0 .1.2.1.3.1.4.1.1.3.2.4.3-.1-.2-.3-.5-.4-.7 0 0 0 0-.1 0m30-28.7c.1.2.1.4.2.6.1-.1.2-.3.2-.4s-.2-.2-.4-.2m-34-16.4c0-.1 0-.2 0-.3-.1.2-.3.4-.3.6 0 0 .2.2.3.3-.1-.2 0-.3 0-.6m196.5 19.5c-.1 0-.2-.1-.3-.1 0 .1-.1.2 0 .2.1.2.3.3.4.5 0-.3.1-.5-.1-.6m-197.1-14.7c.1.2.2.3.2.5.1-.1.2-.2.2-.3-.2-.1-.3-.3-.4-.2m5.8 2.7c0-.1-.1-.1-.1-.2-.1.1-.2.2-.2.3v.8h.1c.1-.3.1-.6.2-.9m195.7-32.2c0 .1-.1.3-.1.4.1 0 .3.1.4.1-.1-.1-.1-.3-.3-.5m-206.8 75.4c0 .4.3.1.4.2.1 0 .2-.1.3-.1-.1-.1-.2-.2-.4-.2-.1-.1-.2 0-.3.1m-.2-18.1c.1 0 .2-.1.3-.1s.2-.1.3-.1c-.1-.1-.1-.2-.2-.3-.1 0-.2 0-.3.1s-.1.2-.1.4m2-53.1c-.2.1-.3.2-.5.3.1.1.2.2.2.2.2-.1.3-.3.3-.5m4 41.3c0-.1 0-.2 0-.3-.1 0-.3.1-.3.2-.1.1-.1.2-.1.4.1-.2.2-.2.4-.3m-.2 5c0-.1.1-.2.1-.4 0-.1-.1-.2-.1-.3-.1.1-.2.2-.2.3-.1.2 0 .3.2.4m143.8.6c.2-.1.4-.1.5-.2v-.2c-.2.1-.3.2-.5.4m-107.3 16c-.1 0-.2-.1-.3-.1v.5c.1 0 .2-.1.3-.4m160.1-10.5c-.1 0-.2-.1-.3-.1.1.1.1.3.2.3.1.1.3 0 .4 0-.1 0-.2-.1-.3-.2m-195.9-44.7c0-.2-.1-.4-.1-.6-.1.1-.1.1-.2.2 0 .3.1.4.3.4m-13.8 21.6v.6s.1.1.1.1.1-.1.1-.1c.2-.1.1-.5-.2-.6m.2 3.1c0 .2.1.4.1.6l.2-.2c0-.3-.1-.4-.3-.4m74.9-11.9c.2-.1.3-.1.5-.2-.1-.1-.2-.2-.3-.2-.1.1-.2.2-.2.4m-26.2 43.6c0-.2.1-.4.1-.6-.1 0-.2.1-.2.1 0 .2 0 .4.1.5m-41.4-47.5c-.1-.2-.2-.4-.3-.6-.1 0-.2.1-.1.1.1.2.1.4.2.6 0 0 .1 0 .2-.1m5.8.7v.7c0 .1.1.1.1.2 0-.1.1-.2.1-.2 0-.3-.1-.6-.2-.7m-6 14.1c-.2.1-.3.2-.5.3.1 0 .2.1.2.1.2-.1.2-.2.3-.4m144.5-35.5c.1.1.2.3.3.4l.2-.2c-.1 0-.3-.1-.5-.2m-133.7 38.6c-.1.1-.2.2-.3.3 0 0 .1.2.1.2.1-.1.2-.2.2-.5m108.9-17.3c.2.1.4.2.5.3 0 0 .1-.1.2-.2-.2 0-.4-.1-.5-.1 0 0 0 0-.2 0m-36.5-17.1c.1-.1.2-.2.3-.4-.1 0-.2-.1-.3-.1 0 .2-.1.3 0 .5m-90.3 27.3c0-.2.1-.3.1-.5 0 0-.1-.1-.1-.1s-.2 0-.2.1c.1.2.1.4.2.5m48.3 37.2c0 .1 0 .2.1.3.1-.1.3-.1.3-.2s-.1-.3-.1-.4c-.2.1-.2.2-.3.3m0 .8c.1.1.1.2.2.3.1-.1.2-.3.2-.4-.1 0-.2 0-.4.1m-35.4-29.8c.1-.2.1-.3.2-.5-.1 0-.2 0-.2 0-.1.2-.1.3 0 .5m12.9 16.8.2.2c0-.2.1-.4.1-.5 0 0-.1-.1-.2-.1 0 0 0 .1-.1.4m116.9.1c-.1-.2-.1-.3-.2-.5-.1.1-.1.2-.2.3.2.1.3.2.4.2m-126.5 13.5c-.5-.2-.2.2-.3.3 0 .1 0 .2.1.3.1-.1.2-.3.2-.6m-9.1-43.2c-.1-.1-.2-.2-.4-.3 0 .1-.1.1-.1.2.1 0 .3.1.5.1m30.4-3.6c.1-.1.2-.1.3-.2 0-.1-.1-.2-.2-.3 0 .1-.1.2-.1.5m18.5 36.8c-.2-.1-.3-.1-.5-.2 0 .1 0 .1-.1.2.3 0 .4.1.6 0m-42.7-36.8c0-.2-.1-.3-.1-.5h-.1c.1.2.1.4.2.5m33.5 34.1c0-.2-.1-.3-.1-.5-.1 0-.1 0-.2.1.1.2.2.3.3.4m-29-15.2c0-.2.1-.3.1-.5-.1 0-.1 0-.2 0 .1.3.1.5.1.5m-17.8 19.4c.1.1.2.1.2.2 0-.2 0-.3 0-.5-.1.1-.2.1-.2.3m37.4-29.4c.1.1.2.2.2.3 0 0 .1-.1.1-.1-.1-.1-.2-.2-.3-.2m-29.8 49.1.2-.2c-.2 0-.4 0-.6 0 .1.1.2.1.4.2m38.6-12.7v.3c.1-.1.3-.1.3-.2s-.1-.2-.2-.3c.1 0 0 .1-.1.2m-27.8-38c0-.2-.1-.3-.1-.5-.1 0-.1 0-.2.1.1.1.2.3.3.4m28.4 37c.1.1.2.2.4.3l.2-.2c-.2-.1-.3-.1-.6-.1m-33.3-38.9c-.1-.1-.2-.3-.2-.4 0 .1-.1.2 0 .3 0 .1.1.1.2.1m38.9-15.7c.2 0 .4-.1.5-.1-.1 0-.1-.1-.2-.1s-.2 0-.3.2m-39.4 27c-.1 0-.2-.1-.3-.1 0 .1 0 .2.1.3.1 0 .2-.1.2-.2m-15.1 37.7v.4c.1 0 .2-.1.3-.1-.1-.2-.2-.2-.3-.3m9.2-8.9c.2 0 .3 0 .5-.1v-.1c-.1 0-.3 0-.5.2m5.6-35.8s.1.1 0 0h.1c0-.2-.1-.3-.1-.5h-.1c0 .2 0 .3.1.5m5.4-1.7c.1.1.2.1.2.2 0-.2 0-.3 0-.5 0 0-.1.1-.2.3m-18-8.2c-.1-.1-.1-.2-.2-.3 0 .1-.1.2-.1.2.1.2.2.2.3.1m12.5 35.2c.1 0 .2-.1.2-.1 0-.1-.1-.2-.1-.3 0 .1-.1.2-.1.4m-3-55.2c-.1-.1-.2-.1-.3-.2 0 .1-.1.1-.1.2zm27.8 24.6c0 .2.1.3.1.5.1 0 .1 0 .2-.1-.2-.1-.2-.3-.3-.4m9.9 39.1c-.1.2-.2.3-.3.5 0 0 0 .1.1.1l.3-.3c0-.1 0-.2-.1-.3m109-39.9c-.1 0-.1 0 0 0-.2.1-.2.3-.3.4.1 0 .1 0 .2.1 0-.1.1-.2.1-.5m-143.1 3.1v.2c.1-.1.2-.2.4-.3-.1 0-.2 0-.4.1m24.4-.2c-.1.1-.2.1-.3.2v.2c.1-.1.2-.2.3-.4m-37.8-3.4c.1 0 .2 0 .3-.1 0-.1-.1-.2-.1-.3-.1.1-.1.2-.2.4m27.9-21.4c-.1-.1-.1-.3-.2-.4 0 0-.1.1-.1.1.1.1.2.2.3.3m195.9 51.7c.1 0 .2 0 .3-.1 0-.1-.1-.2-.1-.3-.1.2-.1.2-.2.4m-204.1-30.7c0-.2-.1-.4-.1-.6v.6c-.1 0 0 0 .1 0m-12.8 8.3c-.1.1-.1.2-.2.2.1 0 .2.1.2.1s0-.1 0-.3m29.6 36.4v.2c.1-.1.2-.2.2-.3-.1-.1-.1-.1-.2.1m10.9-13.4.2.2c0-.1.1-.2.1-.3-.1 0-.2 0-.3.1m-10-19.8c.1-.1.3-.2.4-.3 0 0-.1-.1-.1-.1-.1.1-.2.2-.3.4m39.4.8c-.1-.1-.2-.1-.3-.2 0 .1-.1.1-.1.2zm-69.7 17.1v.3c.1-.1.2-.1.2-.2-.1-.1-.1-.2-.2-.1m10.6-10.5c0-.2 0-.3 0-.5 0 0-.1 0-.1.1s0 .2.1.4m-.3 3.1c.1-.1.1-.2.2-.3-.1 0-.1-.1-.2-.1zm1.7-45.8c-.1.1-.1.1-.2.2.1 0 .2.1.3.1-.1-.1 0-.2-.1-.3m28.2 44.1c0-.2-.1-.3-.1-.5-.1 0-.1 0-.2.1 0 .1.1.3.1.4.1 0 .1.1.2 0m-.7 20.6c0-.1 0-.2 0-.3 0 .1-.1.1-.1.2v.4c.1-.1.1-.1.1-.3m-33.8-8.3c0 .1.1.2.1.3.1 0 .1 0 .2-.1-.1 0-.2-.1-.3-.2m36.9-26.4c0 .1-.1.1-.1.2.1 0 .2-.1.4-.1-.1-.1-.1-.1-.3-.1m-2.1 11.6c.1-.1.1-.2.2-.4-.1 0-.1 0-.2-.1zm-34.8 16.5c.1-.1.1-.1.2-.2-.1-.1-.2-.1-.2-.2zm-5.5-38.1.2.2s.1-.1.1-.1c-.1-.1-.2-.2-.3-.1m30.1 22.5c0-.1-.1-.2-.1-.3-.1 0-.1 0-.2.1.1 0 .2.1.3.2m10.2.4c0 .1.1.1.1.2.1-.1.1-.2.2-.3-.1-.1-.2-.1-.3.1m-34.2-24.1c0-.1 0-.1 0-.2-.1 0-.3.1-.4.1.2 0 .3.1.4.1m62.6 32c-.1 0-.2-.1-.3-.1v.2c.1 0 .2 0 .3-.1m-68.4-36.2c0 .1-.1.2-.1.3h.2c0-.1 0-.3-.1-.3z"/><path d="m218.9 95.3c.3-.4.5-.8.8-1.3.1-.2.2-.7.6-.3.4.5 1 .7 1.5.5s1-.6 1.3-1c.4-.6.7-1.4 1-2.1.3-.9.3-.9 1.1-.6.5.2 1 .4 1.4.6.6.2.7.2.7-.4 0-.2 0-.4 0-.7.1-.3.1-.8.3-.8.5-.1 1.1-.1 1.6 0 .7.1 1.3.3 1.9.6.5.2.7.1.7-.5 0-.4 0-.9.2-1.2.1-.3.5-.6.8-.6.5-.1 1.1-.1 1.7-.1.1 0 .2.1.2.1 0 .3 0 .6-.2.8-.1.1-.5.1-.7.2-.6.1-1 .2-1 .9 0 .4-.1.8-.1 1.2 0 .5-.2.6-.7.5-.9-.3-1.8-.5-2.7-.8-.7-.2-.9-.1-1 .6-.1.6-.2 1.1-.3 1.7 0 .2-.2.4-.3.6-.1-.1-.3-.2-.4-.3-.4-.4-.8-.8-1.2-1.1-.5-.4-1-.2-1.2.4-.1.4-.3.8-.4 1.2-.1.6-.4 1.2-.9 1.6-.4.3-.4.6.1.8.4.1.7.3 1.1.5.1.1.2.3.3.4-.1 0-.3 0-.4-.1-.6-.2-1.2-.5-1.9-.7-.4-.1-.6.2-.6.5v1.6c0 .2-.2.4-.3.6-.2-.1-.3-.1-.5-.2-.7-.4-1.4-.8-2-1.2-.4-.3-.6 0-.7.3-.1.4-.2.8-.3 1.2s-.5.5-.8.3-.6-.4-.3-.8c.1-.1.2-.2.2-.2.2-.3.6-.6.6-.9s-.4-.6-.6-.9c-.1-.1 0-.3 0-.4.2-.8.4-1.5.7-2.3 0-.1.1-.1.1-.2.1.1.1.1.1.2.3.4.4 1.1.5 1.8z"/><path d="m175.1 93.2c-.4.5-.9.3-1.2 0s-.5-.8-.8-1.1c-.2-.2-.4-.4-.6-.7-.1.2-.3.4-.4.6-.2.8-.6 1-1.2.4-.3-.3-.5-.3-.6.1-.1.2-.4.3-.6.3-.4-.1-.5-.4-.4-.8.2-.4.4-.9.6-1.3.1-.2.4-.2.6-.4v.6c0 .1-.1.1-.1.2 0 .2.1.5.1.7.1-.2.3-.3.4-.5.2-.3.3-.6.5-.8s.6-.3.9-.4c0 .3 0 .5.1.8v.2c.1-.1.2-.1.3-.2.5-.5 1-1 1.5-1.5.1-.1.4.1.4.1v2.1c0 .1-.3.2-.5.3-.1.1-.3.1-.4.2.1.2.2.4.3.5.4.3.8.4 1.1.6z"/><path d="m226.3 103c.1-1 .3-2.1.4-3.1 0-.2.1-.3.2-.5.1.1.2.3.2.4l.6 1.5v.1c-.6 1.1.1 2.2-.1 3.3-.1.4 0 .9-.4.8-.3 0-.7-.5-.8-.8-.2-.5-.1-1.1-.1-1.7z"/><path d="m27.6 103.2c-.4-.4-.3-.7 0-.9.8-.6 1.5-1.2 2.3-1.8.4-.4.7-.8 1.1-1.2.1-.1.2-.4.4-.5.1-.1.4-.1.5-.1 0 .2 0 .3-.1.5-.2.5-.4.9-.5 1.4 0 .1-.2.3-.2.3-1-.5-.7.5-1.1.8-.3.3-.3 1.1-.9.3 0 0-.3.1-.4.2-.1.3-.2.6-.2.8-.1.6-.4.6-.9.2z"/><path d="m198.6 90.2c.4-.2.7-.4 1.1-.4.2 0 .3.5.5.8.1.1.2.2.3.3s.1.2.1.4c-.1 0-.3 0-.4 0-.8-.3-1.1-.2-1.3.8-.2.8-.9 1.3-1.5.9-.3-.1-.6-.3-.3-.8.5-.6 1-1.3 1.5-2z"/><path d="m177.5 91.2c-.2 0-.4.1-.4 0-.1-.2-.3-.6-.3-.7.9-.8.5-2 .9-2.9.1-.2.1-.6.5-.4.3.1.3.3.3.7-.1.8.1 1.6.2 2.4h.3c.2 0 .4-.1.7-.1 0 .4 0 .9.1 1.3-.1 0-.2 0-.3-.1-.2-.1-.4-.3-.6-.4-.3-.2-.6-.5-.9-.5-.7-.2-.2.5-.5.7z"/><path d="m230.3 100.3c.3-.1.6-.2.8-.3h.4c-.1.2-.1.4-.2.4-.5.4-1 .7-1.4 1.1-.2.2-.4.5-.5.8-.1.5 0 1 0 1.5 0 .2-.3.4-.5.7-.2-.2-.5-.4-.6-.6-.1-.5-.1-1-.2-1.5 0-.1.1-.2.1-.3h.1c.1.1.1.2.1.3.1-.1.1-.2.2-.4 0-.3.1-.7 0-1-.2-.4 0-.5.3-.6.4.1.9.1 1.4-.1z"/><path d="m205 94.2c-.6-.9.1-1.7.3-2.5h.3c.1.2.1.5.1.7 0 .3-.1.6-.1.9 0 .1.1.2.2.2s.2-.1.2-.1c.2-.3.4-.7.6-1 0-.1.2-.1.3-.1s.1.2.1.2c-.1.7-.2 1.3-.4 2 0 .1-.5.3-.6.2-.4 0-.7-.2-1-.5z"/><path d="m136.9 89.9c0 .3-.1.6-.1.8 0 .6.1 1.3.1 1.9 0 .2-.2.3-.3.5-.1-.1-.2-.2-.3-.3-1.2-.9-.7-2.6 0-3.6.1-.1.3-.2.5-.3.1.2.1.3.2.5 0 .2-.1.4-.1.5z"/><path d="m71.7 92.8c-.5-.2-.8-.2-.9.4 0 .2-.3.4-.5.4s-.4-.2-.5-.4c-.4-.6-.1-1.1.2-1.6.2-.2.3-.4.5-.5.1-.1.3-.2.5-.2.1.2.1.4.2.6 0 .1 0 .3-.1.4.2 0 .3-.1.5-.1.2-.1.4-.2.6-.3-.1.2-.1.5-.2.7 0 .2-.2.4-.3.6z"/><path d="m233 107.5v1.8c0 .3-.2.6-.4.8 0 0-.4-.1-.6-.3-.1 0-.1-.2-.1-.3 0-.3 0-.6 0-.9 0-.2-.1-.4-.1-.6.2-.5.4-1 .6-1.4.1-.1.4-.2.6-.2v.6z"/><path d="m118.7 92.6v.9.4c-.2 0-.5 0-.6-.1-1.1-1-1-2.2.1-3.2.1-.1.3 0 .4 0 .1.1.1.2.1.4z"/><path d="m160.5 91c.2-.1.4-.3.6-.4 0 .2.1.4.1.6v1.9c0 .5-.2.8-.6.9s-.8-.5-.7-1c.1-.7.3-1.3.6-2z"/><path d="m157 91.5c.4-.1.7-.3.5.4-.3.7-.3 1.5-.4 2.2 0 .2-.2.3-.3.5-.2-.1-.5-.2-.6-.4-.4-.4 0-1.7.4-2.3 0-.1.2-.2.4-.4z"/><path d="m229.9 90.7c1 1 2 1.9 2.9 2.8.1.1.1.1.1.2-.1 0-.2.1-.3 0-.5-.2-1-.4-1.4-.7-.6-.6-1.2-1.2-1.8-1.9-.1-.2-.1-.7.5-.4z"/><path d="m152.7 91.3c.3.1.4.1.1.5s-.4 1.1-.6 1.6c-.1.3-.1.6-.2.9-.1.2-.3.4-.4.5-.2-.2-.5-.4-.6-.7-.1-.8.2-1.5.8-2 .3-.3.6-.5.9-.8z"/><path d="m103.2 93.4c.2-.9.7-1.5 1.4-2.1.2-.1.4-.2.6-.3 0 .2.1.5 0 .7-.2.5-.4 1-.6 1.4-.5 1-.7 1-1.4.3z"/><path d="m120.3 92.7c-.4-.9.1-2.1.9-2.5h.3c.1.1.2.3.2.4 0 .6-.1 1.2-.2 1.7-.1.3-.3.6-.4.8-.3 0-.5-.1-.8-.4z"/><path d="m226.2 92.3c1.2 1.1 2.3 2.2 3.9 2.7.1 0 .2.1.2.2-.1 0-.2.1-.3.1-1.3-.3-2.5-.7-3.4-1.6-.3-.3-.6-.6-.8-.9-.1-.2-.1-.4-.1-.7.1 0 .3.1.5.2z"/><path d="m66.8 91.1c-.1.7-.3 1.4-.5 2-.1.2-.3.5-.7.2s-.9-.5-.6-1c.3-.6.8-1.1 1.3-1.6.3-.1.5 0 .5.4z"/><path d="m201.1 95.4c.1.6.1 1.1.2 1.7 0 .7.1 1.4.1 2v.3c-.1 0-.3.1-.4 0-.4-.4-.8-.7-.6-1.4.2-.8.2-1.7.3-2.6 0-.1.1-.2.1-.3.2.1.2.2.3.3z"/><path d="m165.4 93.3c-.4-.6 0-2.1.6-2.3.1 0 .5.1.5.2 0 .6.1 1.2 0 1.8 0 .6-.4.7-1.1.3z"/><path d="m216.9 95.2c.1.5.5 1.1 0 1.3s-.8-.5-.9-.8c-.1-.8-.1-1.6 0-2.4 0-.1.2-.2.3-.3.1.1.2.2.3.4 0 .5.1 1.1.3 1.8z"/><path d="m192.2 91.6c-.1.3-.2.6-.3.8-.2.2-.5.4-.7.6-.2-.3-.6-.7-.7-1.1-.1-.1.2-.5.4-.7s.5-.4.7-.6c.1-.1.3-.1.5-.1 0 .2.1.3.1.5z"/><path d="m16.1 110.4c.1 0 .1 0 0 0 .4-.3.6-.8 1.1-.5.1.1-.2.7-.3 1.1-.2.4-.4.7-.6 1.1s-.4.5-.7.2c-.4-.4-.4-.9 0-1.3.2-.2.3-.4.5-.6z"/><path d="m96.5 90.9c-.1.5-.2 1-.3 1.5-.1.3-.2.7-.7.5-.4-.2-.7-.4-.4-.9.2-.5.4-1 .7-1.4.4-.5.6-.4.7.3z"/><path d="m107.5 91.7c.1-.2.2-.3.3-.4.2-.2.5-.3.7-.5 0 .3.2.6.1.9-.1.6-.2 1.1-.4 1.7-.1.4-.4.5-.7.1-.4-.7-.3-1.2 0-1.8z"/><path d="m60.2 94c-.8-.7-.7-1.5.2-2.1.3-.1.5-.3.8-.5.1 0 .2 0 .3.1 0 0 .1.2 0 .2-.4.7-1 1.3-.9 2.1.1.1-.2.2-.4.2z"/><path d="m89.5 92.5c-.5.3-.8-.1-1-.3-.1-.1-.1-.6 0-.7.4-.4 1-.8 1.5-1.1h.3c.1.1 0 .2 0 .3-.3.5-.5 1.1-.8 1.8z"/><path d="m150.1 92.4c-.2.4-.4.8-.7 1.1-.1.1-.6.2-.7.1s-.2-.6-.1-.7c.5-.7 1.1-1.3 1.6-1.9h.2c0 .1.1.3.1.4-.2.3-.3.6-.4 1z"/><path d="m115.7 93.7c-.6-.3-.7-.8-.5-1.3.1-.4.4-.7.7-1 .2-.2.6.1.6.5 0 .5-.1 1-.1 1.6-.1.3-.4.2-.7.2z"/><path d="m181.6 90.2v.4.6c-.2 0-.5 0-.6-.1-.8-.6-.9-1.7-.3-2.5 0 0 .3 0 .4.1.2.5.3 1 .5 1.5z"/><path d="m45.2 95.9c.4-.2.7 0 .6.3-.4.9-.2 1.7-.3 2.6 0 .1-.1.2-.1.2-1-.6-1.1-2.3-.2-3.1z"/><path d="m52.3 91.3v2.9.3c-.1 0-.2-.1-.3-.1-.8-.6-1-1.7-.3-2.6.1-.2.3-.4.6-.5z"/><path d="m98.6 91.2c.4 0 .7 0 .4.5-.2.4-.3 1-.4 1.4-.1.3-.4.6-.8.3-.3-.2-.7-.5-.3-.9.3-.5.7-.9 1.1-1.3z"/><path d="m112.8 92.2c0-.1 0-.2 0-.3.2-.3.5-.6.7-.9.1.3.2.7.2 1 0 .4.1.8 0 1.1 0 .3-.3.5-.4.7-.2-.2-.5-.4-.6-.7-.1-.2 0-.6.1-.9z"/><path d="m209.7 94.4c-.3.9-.7 1-1.2.3-.1-.1-.1-.5 0-.6.3-.5.7-.9 1.1-1.3.1-.1.2-.1.3-.1v.3c0 .5-.1.9-.2 1.4z"/><path d="m233.2 99.2c.3 0 .6-.1.9 0 .2.1.7-.1.7.4 0 .4.1.8-.6.8-.4 0-.8.3-1.2-.1s-.4-.7.2-1.1z"/><path d="m84.9 90.9c0 .6-.1 1.2-.1 1.7 0 .2-.1.4-.3.5-.1 0-.3-.1-.4-.2-.7-.7-.6-1.9.3-2.3.1-.1.4.1.5.3z"/><path d="m110.7 90.8c.2 0 .5-.1.5-.1.1.1.1.4.1.5-.2.5-.4.9-.6 1.4-.1.2-.3.3-.4.4-.2-.2-.4-.4-.5-.6-.2-.5.3-1.2.9-1.6z"/><path d="m62.7 93.1c-.2-.8.4-1.2.8-1.5.1-.1.4 0 .7 0v.6c-.2.5-.4 1-.7 1.5-.1.1-.1.3-.2.4-.1-.1-.2-.2-.3-.3-.1-.3-.2-.5-.3-.7z"/><path d="m39.4 95.7c.1-.7.1-1.4.2-2.1 0-.1.2-.2.2-.2.1 0 .3.1.3.2.1.5.1.9.1 1.4 0 .2-.1.5-.1.7-.1.2-.2.5-.3.7 0-.3-.2-.5-.4-.7z"/><path d="m230.3 106c.4.1.6.3.4.8-.1.4-.1.9-.2 1.4 0 .1-.1.3-.1.4-.1-.1-.3-.1-.4-.2-.7-.5-.6-1.3-.1-2 .1-.1.2-.3.4-.4z"/><path d="m101.7 93.2c-.3.6-.7.3-1 0-.4-.3-.3-.6 0-.9s.5-.6.8-.8c.1-.1.3-.1.5-.2 0 .2.2.4.1.6 0 .4-.2.8-.4 1.3z"/><path d="m185 90.1c0-.1 0-.2 0-.2.2-.3.5-.5.7-.7.1.3.2.7.3 1 .1.4.1.7.1 1.1 0 .1-.1.3-.1.3-.3 0-.7 0-.9-.1-.5-.4-.3-.9-.1-1.4z"/><path d="m196.4 92.3c-.8.2-1-.4-1-.9s.2-1 .4-1.5c.2.3.5.6.7 1 .1.5.5 1-.1 1.4z"/><path d="m211.7 93.2c.3-.3.7-.7.9-.6.5.3 0 .6-.1 1 0 .3-.1.6-.2.9s-.1.7-.6.4c-.4-.2-.7-.5-.5-.9s.4-.5.5-.8z"/><path d="m141 92.7c-.4-.2-.6-.4-.3-.8.2-.4.5-.8.8-1.2.1-.1.3-.2.4-.1s.2.3.2.4c-.1.6-.6 1.2-.1 1.8-.1 0-.2.1-.3.1-.2 0-.4-.1-.7-.2z"/><path d="m225.7 97.3c-.1.6-.2 1.1-.4 1.6-.1.2-.2.5-.4.5s-.6-.1-.7-.2c-.1-.2-.1-.5 0-.7.2-.4.5-.9.8-1.3.1-.1.5 0 .7.1z"/><path d="m34.6 98.7c-.4-.7 0-1.9.7-2.1.1 0 .4.2.5.4.2.8-.5 1.2-.7 1.9-.1-.1-.3-.1-.5-.2z"/><path d="m75 91c.2-.5.5-.9 1.1-.7.1 0 .3.2.2.3-.1.6-.3 1.2-.5 1.8 0 0-.4.1-.4 0-.1-.5-.2-.9-.4-1.4z"/><path d="m55.4 92.1c0-.2.1-.3.1-.3l.9-.3c0 .3 0 .5-.1.8-.2.5-.4 1-.6 1.5-.1.2-.1.4-.4.1-.5-.5-.5-.7.1-1.8z"/><path d="m53.5 92.7c.3-.4.6-.7.9-1.1.1-.1.2-.1.3-.2 0 .1.1.2 0 .3-.1.6-.3 1.2-.5 1.7-.1.2-.5.5-.6.4-.5-.3-.5-.6-.1-1.1z"/><path d="m133.1 90.6c.7 0 .8.2.6.8-.1.1.1.4 0 .5-.1.3-.2.8-.4.8-.5.1-.8-.2-.8-.7 0-.3.1-.5.2-.8.1-.1.2-.3.4-.6z"/><path d="m125.9 91.9c-.1-.6.1-1.1.7-1.3.1 0 .3-.1.4 0s.1.2.1.4c0 .4-.1.9-.1 1.3 0 .2-.1.3-.2.5-.1-.1-.3-.2-.4-.3-.3-.2-.4-.4-.5-.6z"/><path d="m123.8 93c-.7.1-1-.4-1-.9-.1-.6.3-1.2.8-1.2.1 0 .4.3.4.5-.1.5-.1 1-.2 1.6z"/><path d="m130.2 91c.1.1.3.1.3.2-.1.6-.2 1.2-.4 1.8 0 .1-.5.2-.7.1-.4-.2-.6-.6-.3-1s.7-.7 1.1-1.1z"/><path d="m93.4 90.9c.3-.1.6-.2.8-.3 0 .3 0 .7-.1.9-.5.9-.8 1-1.4.4-.1-.1-.1-.4 0-.5.2-.3.5-.4.7-.5z"/><path d="m32.5 98.7c-.1-.8.5-1.2 1-1.7 0 0 .4.2.4.3-.2.6-.4 1.2-.7 1.7 0 .1-.5-.1-.7-.3z"/><path d="m25.2 104.2c.3.2.4.4.2.7s-.3.8-.6 1c-.1.1-.5.1-.7.1 0-.2-.1-.5 0-.6.4-.4.7-.8 1.1-1.2z"/><path d="m195.2 89.7c-.1.4-.2.8-.4 1.1-.1.2-.4.4-.6.3-.3-.1-.5-.4-.8-.6.2-.2.3-.4.5-.5.4-.1.8-.2 1.3-.3z"/><path d="m58.7 93.1c-.1.4-.2.7-.3 1 0 .1-.3.1-.3 0-.8-.6-.7-.9.1-1.6.2-.2.5-.4.6-.3.5.2-.2.4 0 .6 0 .1-.1.2-.1.3z"/><path d="m46.7 99.3c.3-.6.5-1.2.8-1.7.1-.2.3-.3.4-.4-.1.2-.1.5-.2.7 0 .3 0 .5-.1.8s-.1.5-.3.8c-.2.4-.4.3-.6-.2z"/><path d="m68.4 93.1c-.5.1-1.1-.4-1-1 0-.3.4-.5.7-.7 0 0 .4.1.4.2.1.4.1.9.1 1.3-.1 0-.2 0-.2.2z"/><path d="m87 91.4c-.3.4-.6.8-1 1-.1.1-.5-.3-.7-.4 0 0 .1-.3.2-.4.3-.2.6-.4 1-.5.2-.1.5-.2.5.3z"/><path d="m48.5 97.7c0-.2.1-.3.1-.4l.6-.6c0 .3-.1.5-.1.8 0 .4-.1.9-.1 1.3 0 .2-.1.3-.2.5-.2-.1-.4-.3-.5-.4 0-.5.1-.8.2-1.2z"/><path d="m162.6 91.7c.2-.3.3-.4.5-.6.1.3.3.5.4.8v.3c0 .3-.1.5-.1.7-.3-.2-.6-.4-.8-.6-.1-.1 0-.3 0-.6z"/><path d="m38.7 95.6c0 .3-.1.4-.1.6-.1.2-.2.3-.3.5-.2-.1-.4-.2-.5-.3-.4-.5-.1-1.3.6-1.4.1 0 .2.4.3.6z"/><path d="m197 95.5c0-.4 0-.8 0-1.2 0-.1.1-.2.2-.3.1.1.2.2.2.3.1.4.2.7.3 1.1.1.2.2.4.3.5s.1.2.1.3c-.1 0-.3.2-.3.1-.3-.3-.5-.6-.8-.8z"/><path d="m78.2 91.4c.3.5 0 .9-.3 1.3-.1.1-.3.1-.4 0-.8-.5-.8-.6 0-1.1.2 0 .4-.1.7-.2z"/><path d="m9.9 88.9c.1 0 .4.1.4.1-.1.6-.2 1.2-.8 1.6-.1 0-.2.1-.2.1 0-.1-.1-.2-.1-.3 0-.3-.1-.7 0-1 .1-.2.5-.3.7-.5z"/><path d="m181.9 89.5c0-.1.1-.1.1-.1.2-.1.3-.3.5-.4.1.3.2.5.2.8v.1.8c-.2-.1-.5-.1-.6-.3-.3-.2-.5-.5-.2-.9z"/><path d="m19.4 108.5c.1 0 .3-.1.3 0 .3.4.3.8-.1 1.2-.1.1-.5.2-.7.1-.1-.1-.2-.4-.1-.6.1-.3.3-.5.6-.7z"/><path d="m187.5 91.2c.3-.2.5-.4.8-.6.1.3.3.6.2.9 0 .2-.1.6-.5.5-.5-.1-.6-.4-.5-.8z"/><path d="m168.4 92.9c-.6.3-.8-.2-.9-.5-.1-.2.3-.6.4-.9.2.1.4.2.5.4z"/><path d="m79.4 92.5c-.6-.4-.4-.7 0-1 .2-.1.5-.1.7-.2 0 .2 0 .5-.1.6-.2.2.2 1-.6.6z"/><path d="m23.1 107.2c-.2-.1-.6-.4-.6-.5.1-.4.4-.7.7-1 .1.1.3.2.2.2-.1.5-.2.9-.3 1.3z"/><path d="m139 92c-.1.2-.2.3-.3.3-.2-.2-.4-.4-.6-.6 0 0 .1-.2.1-.2.2-.2.3-.4.5-.6.2.3.4.6.3 1.1z"/><path d="m45.3 94c-.1.1-.3.3-.4.4 0-.2-.1-.4 0-.5.2-.3.4-.7.6-1 .1-.1.2-.2.4-.3 0 .2.1.4 0 .5-.1.3-.3.5-.6.9z"/><path d="m214.1 95.1c-.1-.2-.1-.3-.1-.4s.1-.2.1-.4c.1.1.2.1.2.2.2.2.4.3.5.5.1.1.3.2.4.3-.2.1-.4.2-.5.2-.2-.1-.4-.3-.6-.4z"/><path d="m48.1 94.4c-.3-.6.2-1.3.7-1.4 0 0 .2.2.1.2-.2.4-.5.8-.8 1.2z"/><path d="m145.7 92.3c0 .4.1.8-.3.9-.1 0-.4-.1-.4-.2 0-.2.1-.4.2-.6.1-.1.3-.1.5-.1z"/><path d="m47.3 93.6c-.1.2-.2.5-.3.7-.1.1-.1.3-.2.4-.1-.2-.2-.3-.2-.4.1-.4.3-.7.4-1 .1 0 .2.2.3.3z"/><path d="m173.4 83.8c.1.1.3.2.4.3-.1 0-.2.1-.2.1-.2-.1-.3-.2-.5-.4 0-.1.1-.3.2-.4 0 .2.1.3.1.4z"/><path d="m234.6 112.8c0 .2.1.4.1.6h-.1v-.1c0-.1 0-.2 0-.5z"/><path d="m44 93.3c-.1 0-.1 0 0 0-.1-.2-.1-.4 0-.6z"/><path d="m31.1 59c.1-.3.2-.6.3-.9.1-.1.2-.2.3-.3.1.1.3.4.3.4-.4.6 0 .5.4.5.2 0 .3.1.5.2-.2.1-.3.2-.5.2-.3.1-.6.2-1 .3s-.5 0-.3-.4z"/><path d="m22.7 83.2c.1-.1.2-.1.2-.1.2.5-.1.9-.3 1.2 0 0-.1.1-.1.1 0-.1-.1-.2-.1-.2.2-.4.3-.7.3-1z"/><path d="m50.8 63.8c0-.1 0-.2 0-.2.1-.3.2-.6.4-.9h.2v1c0 .8.1 1.7.1 2.5 0 .3.1.5.1.8 0 .2-.2.4-.3.6-.1-.2-.2-.3-.3-.5 0-1.1-.1-2.2-.2-3.3z"/><path d="m52.8 62.6c.1.9.2 1.7.3 2.4 0 .1-.1.3-.1.4-.1-.1-.3-.2-.3-.4-.1-.7-.2-1.4-.3-2.1 0-.3-.1-.3-.3-.4 0 0-.1-.1-.1-.1v-.1c.2-.3.4-.6.6-.9.1.3.2.6.2.9z"/><path d="m52 63.5c-.1 0-.1 0 0 0-.1-.2-.1-.4 0-.6z"/><path d="m209.2 58.9v1.3c0 .1-.1.3-.2.3-.2 0-.5-.1-.5-.2-.3-1.1-.2-2.1 0-3.2 0 0 .2-.1.2 0 .2.3.3.5.4.8s.1.6.1 1z"/><path d="m126.2 63.1c0-.2.1-.4.1-.6 0-.3-.1-.7.3-.7s.5.3.5.7v3 .5c-.1.2-.2.4-.3.6-.1-.2-.4-.3-.4-.5 0-.8-.1-1.9-.2-3z"/><path d="m25.6 14.2c0-1.6.2-3.3.3-4.9 0-.1 0-.2 0-.3.1-.3.2-.6.3-.8 0 .3.1.6.1.8-.1 1.2-.2 2.4-.3 3.6-.1.6-.2 1.1-.4 1.6z"/><path d="m77.4 31c-.2.1-.4.2-.5.3-.2-.3-.4-.7-.5-1-.2-.4.3-.9-.3-1.2.1-.1.1-.3.2-.3.4-.1 1 .4 1 .8.1.4.1.9.1 1.4z"/></svg>