<svg enable-background="new 0 0 47.6 188.3" viewBox="0 0 47.6 188.3" xmlns="http://www.w3.org/2000/svg"><g stroke="#000" stroke-miterlimit="10"><path d="m.5 173.2c0-.1.1-.2.1-.3 0-.5 0-1.1 0-1.6 0-.7 0-1.5 0-2.2 0-.3 0-.5.1-.8 0-.6 0-1.3.1-1.9 0-.7 0-1.3.1-2 0-.5 0-1 .1-1.4 0-.7 0-1.4.1-2.1 0-.5 0-1 .1-1.6 0-.7 0-1.3.1-2 0-.6 0-1.3.1-1.9 0-.6 0-1.1.1-1.7 0-.6 0-1.2.1-1.7 0-.6 0-1.2.1-1.8 0-.8 0-1.5.1-2.3 0-.5.1-1 .1-1.6 0-.7 0-1.3.1-2 0-.6.1-1.1.1-1.7s0-1.2 0-1.8c0-.4.1-.9.1-1.3 0-.6 0-1.3.1-1.9 0-.8 0-1.5.1-2.3 0-.5 0-1 0-1.5 0-.7 0-1.3.1-2 0-.8.1-1.5.1-2.3.1-.8.2-1.7.3-2.5.1-.6.1-1.3.1-2 0-1 0-2.1.1-3.1 0-.7 0-1.4.1-2.2 0-.6 0-1.2.1-1.9 0-.7 0-1.3.1-2 0-.6 0-1.2.1-1.7 0-.7 0-1.3.1-2 0-.8 0-1.7.1-2.5s.2-1.6.3-2.4c0-.4 0-.8.1-1.2 0-.9.1-1.9.1-2.8 0-.4-.1-.8-.1-1.2s0-.7.1-1.1c0-.7 0-1.5.1-2.2 0-.7 0-1.4.1-2.1 0-.4.1-.8.1-1.3 0-1 .1-2 .2-3 0-.7-.2-1.5-.3-2.2 0-.3-.1-.6-.1-.8 0-.6-.1-1.2-.1-1.7 0-.2.1-.3.1-.5 0-.6 0-1.1 0-1.7 0-.8.1-1.7.1-2.5 0-.3 0-.5 0-.8 0-.6 0-1.2 0-1.8 0-.7-.1-1.3-.1-2 0-.8 0-1.6 0-2.3s.1-1.4.1-2.1c0-.5 0-1 .1-1.5.1-.7.1-1.4.2-2.1s.1-1.3.1-2c.1-.6.1-1.2.2-1.8 0-.3 0-.6.1-.9.1-.7.1-1.4.2-2.1 0-.4 0-.7.1-1.1.1-.6.1-1.2.2-1.8-.7-.7-.6-1.4-.6-2.1.1-.7.1-1.3.1-2 0-.8.1-1.6.1-2.4 0-1.2.1-2.4.1-3.7 0-.5-.1-1.1-.1-1.6s0-1 0-1.6c0-.5-.1-1-.1-1.4 0-.1.1-.3.1-.4 0-.8 0-1.6-.1-2.4 0-.2 0-.5 0-.7 0-.9-.1-1.7-.1-2.6s0-1.9.1-2.8c0-.5 0-1 0-1.4s.1-.9.1-1.3c0-.5 0-1 0-1.5 0-.4 0-.8.1-1.2 0-.5.1-1.1.1-1.6 0-.6 0-1.2 0-1.8s-.1-1.3-.1-1.9c0-.9.1-1.8.2-2.6.1-.7.1-1.4.1-2 .1-.7.1-1.4.2-2 0-.4 0-.7.1-1.1.1-.6.1-1.2.2-1.8 0-.4 0-.8 0-1.2-.1-.2-.1-.4-.1-.5 0-.7 0-1.4 0-2 0-.8 0-1.6.1-2.4 0-.7 0-1.3.1-2 0-.7 0-1.4.1-2.1 0-.7 0-1.5.1-2.2s.4-1.3 1-1.7c.5-.3 1.1-.5 1.6-.6s.9 0 1.4.1 1 .2 1.4.2h3.3c1.3 0 2.5-.2 3.7-.5.6-.2 1.3-.3 1.9-.3.9 0 1.8-.1 2.7-.2.8-.1 1.5-.1 2.3-.2.5 0 1.1-.1 1.6-.2.4 0 .8 0 1.2-.1s.9-.2 1.3-.3c.3-.1.5-.2.7.2 0 .1.2.1.3.1 1 0 2.1 0 3.1-.1h1.3c.7 0 1.4.1 2.1.1.9.2 1.3.7 1.7 1.3.4.7.5 1.5.5 2.3-.1.7-.2 1.3-.2 2v3.3c0 .8 0 1.6-.1 2.3 0 .6 0 1.2-.1 1.7 0 .9-.1 1.7-.1 2.6 0 .4.1.8.4 1.1.6.7 1.3 1.3 2 1.9.6.5 1.3.5 2 .3.3-.1.6-.1 1-.2.7-.1 1.5-.2 2.2 0 .1 0 .2.1.3.1.2.1.3.3.1.5-.4.5-.3 1-.3 1.5 0 .4 0 .7-.1 1.1 0 .2 0 .4-.1.6-.2.6-.8.7-1.3.8-.9.1-1.7.2-2.5.7-.6.4-1.1.8-1 1.7v2.2c0 .7.1 1.5.1 2.2 0 .1-.1.3-.1.4 0 .6.1 1.1.1 1.7s-.1 1.3-.1 1.9c0 .3 0 .7-.1 1-.1.7-.1 1.4-.2 2.1s-.1 1.4-.2 2.1-.2 1.4-.3 2.1c0 .5 0 .9-.1 1.4-.1.7-.1 1.4-.2 2.1-.1 1-.1 2-.1 2.9v2.1c0 .4-.1.9-.1 1.3v1.6c0 .6-.1 1.2-.1 1.7v4.6c0 .8.2 1.7.3 2.5 0 .4.1.8.1 1.3.1.6.1 1.2.2 1.9v1.6c0 .7.1 1.4.1 2.1v.3c0 .4-.1.9-.1 1.3 0 .9 0 1.7-.1 2.6 0 .4 0 .8-.1 1.2 0 .7 0 1.3-.1 2 0 .7 0 1.4-.1 2.2 0 .7-.1 1.4-.1 2.1 0 .6-.1 1.3-.1 1.9 0 .9-.1 1.8-.1 2.7 0 .4-.1.7-.1 1.1v1.5c0 .4-.1.9-.1 1.3v1.8c0 .6 0 1.1-.1 1.7v.9c0 1.2 0 2.3-.1 3.5v1.7c0 .6-.1 1.3-.1 1.9 0 .4.1.9.1 1.3v1.7c0 .4.1.7.1 1.1 0 1 0 1.9.1 2.9v1.3c0 .2-.1.4-.1.6 0 .6.1 1.2.1 1.9v1.6c0 .6.1 1.2.1 1.8 0 .4 0 .7.1 1.1.1.7.1 1.4.2 2.1 0 .4 0 .9.1 1.3 0 .5.1 1 .1 1.4 0 .3 0 .6.1.9 0 .8.1 1.6.1 2.4 0 .9-.1 1.8-.2 2.7 0 .5-.1.9-.1 1.4-.1.7-.1 1.4-.1 2s-.1 1.2-.1 1.8v1.7c0 .5-.1 1-.1 1.6v3.8 1.1c0 .7.1 1.3.1 2 0 .1-.1.3-.1.4 0 .9 0 1.8.1 2.7v.9c0 1.7 0 3.4.1 5 0 .3 0 .6-.1.9 0 .7 0 1.5-.1 2.2 0 .5-.1 1-.1 1.5 0 .7.2.8.8.7.5-.1 1-.2 1.4-.3 1-.1 2.1.5 2.6 1.3.4.7.3 1.3 0 2-.4 1-1.2 1.6-2.3 1.8-.6.1-1.3.2-1.9.3-.2 0-.4 0-.6 0-.6.1-.9.6-.7 1.3 0 .2 0 .4-.1.6v4.6c0 .6-.1 1.3-.2 1.9 0 .5-.1 1.1-.1 1.6 0 .4-.1.7-.1 1.1v1.6c0 .5-.1 1.1-.1 1.6v.7c0 .9-.1 1.8-.1 2.8-.1.7-.1.7-1 .9-.5.1-.7.4-.8 1v1.4c0 .5-.1 1-.2 1.4 0 .2-.1.5.2.7.1.1.3.2.1.4s-.2.5-.4.7c0 .1-.1.1-.2.1-.7-.1-1.4 0-2 .5-.3.2-.8.3-1.2.3-1.1 0-2.1 0-3.2 0-.9 0-1.7.1-2.6.2-.6 0-1.1.1-1.7.1-.8.1-1.6.2-2.4.3-.1 0-.2-.1-.4-.1-.8 0-1.5 0-2.3.1-.3 0-.5 0-.8 0-1.5 0-3.1.1-4.6.1-.7 0-1.4 0-2.2-.1-.7 0-1.4-.1-2-.1-.5 0-1-.1-1.6-.2-.5-.1-1.1-.1-1.6-.1-.4 0-.8-.1-1.2-.1-.2 0-.4 0-.6 0-.5 0-.9 0-1.4 0-1-.1-2 0-2.7-.8-.6-.6-1.1-1.3-1.4-2.1-.2-.6-.4-1.2-.6-1.8 0-.1 0-.2 0-.3 0-.9 0-1.8 0-2.6 0-.1 0-.2 0-.3.6-2 .6-4 .6-6m8.9-49.9v2c0 1 0 2-.1 3v2.1 1.5c0 .8-.1 1.6-.1 2.4v1.6c0 .6 0 1.3-.1 1.9v1.3 1.1c-.1.5-.2 1-.3 1.5-.1.6-.1 1.1-.2 1.7 0 .4-.1.8-.1 1.1v1.5c0 .8-.1 1.6-.1 2.3v8.3 2.5 2.3c0 .1 0 .3.1.4 0 .4 0 .9.1 1.3 0 .5.1 1 .1 1.4 0 .5-.2 1.1-.2 1.6-.1 1-.1 1.9-.2 2.9v.7c-.1.7-.1 1.4-.2 2 0 .4-.1.9-.1 1.3-.1.8-.2 1.5-.3 2.3-.1.4-.1.8-.2 1.2 0 .4-.1.8-.1 1.2.1.7.6 1.2 1.3 1.4s1.5.4 2.2.5c.9.1 1.9.2 2.9.2.6 0 1.2 0 1.8-.1.7 0 1.4-.1 2.1-.2.9-.1 1.8-.2 2.8-.3.7 0 1.4 0 2.1-.1.6 0 1.3-.1 1.9-.1.7 0 1.4-.1 2.2-.1.4 0 .9 0 1.3-.1.4 0 .8-.1 1.2-.1.5 0 1 0 1.5-.1.8-.1 1.7-.2 2.5-.3.5-.1 1-.1 1.6-.1.2 0 .5-.1.7-.2.4-.2.6-.7.6-1.1 0-1.6 0-3.3 0-4.9s0-3.2 0-4.8c0-.4 0-.8.1-1.2 0-.4.1-.9.1-1.3 0-.5 0-.9.1-1.4 0-.5.1-1 .1-1.5.1-.5.1-1.1.2-1.6.1-.6.2-1.1.2-1.7 0-.4 0-.7.1-1.1.1-.5.1-.9.2-1.4.1-.7.1-1.3.2-2 0-.5.1-1 .1-1.4 0-.6 0-1.2 0-1.9 0-.5 0-1.1.1-1.6 0-.5 0-1 .1-1.4 0-.6 0-1.1.1-1.7 0-.8.1-1.6.1-2.4 0-.3 0-.7 0-1.1 0-.5.1-1 .1-1.5 0-.1-.1-.2-.1-.3 0-.8.1-1.6.1-2.3 0-1.5 0-2.9 0-4.4 0-.4 0-.7-.1-1.1 0-.5 0-1-.1-1.5 0-.7 0-1.4-.1-2.1 0-.7 0-1.5-.1-2.2 0-.8 0-1.7-.1-2.5 0-.4-.1-.7-.1-1.1 0-.5 0-1 0-1.5s-.1-.9-.1-1.4c0-1.4 0-2.7.1-4.1 0-.4 0-.7 0-1.1 0-1 0-2 0-3 0-.5-.1-1.1-.1-1.6-.1-.7-.1-1.5-.2-2.2-.1-.9-.2-1.9-.1-2.8 0-.2 0-.3 0-.5 0-.3.1-.6.1-.9.1-.5.1-1 .1-1.4.1-.6.2-1.3.2-1.9s0-1.2 0-1.8c0-.7.1-1.3.1-2 0-.9.1-1.7.1-2.6 0-.8 0-1.5-.1-2.3 0-.5 0-.9-.1-1.4 0-.8-.1-1.6-.1-2.5 0-.8 0-1.7 0-2.5 0-.1-.1-.3-.1-.4.1-.8.2-1.6.3-2.4s0-1.7 0-2.5c0-1 0-2 .1-3 .1-1.2.2-2.4.3-3.6 0-1.1 0-2.2-.1-3.3 0-2.9-.1-5.8-.1-8.6 0-.6.1-1.2.1-1.8 0-3 .1-5.9.1-8.9 0-1.3 0-2.7-.1-4 0-.6 0-1.1.1-1.7 0-.5 0-1.1.1-1.6 0-.7.1-1.3.1-2 0-.3 0-.7 0-1s.1-.7.1-1c0-.6 0-1.2 0-1.7 0-.6.1-1.3.1-1.9 0-.4 0-.7.1-1.1 0-.4.1-.7.1-1.1 0-.5 0-1.1 0-1.6 0-.7.1-1.3.1-2 0-.3 0-.7 0-1 0-.4.1-.8.1-1.2 0-.6 0-1.1 0-1.7 0-.8.1-1.5.2-2.3 0-.7.1-1.3.1-2 0-.1-.1-.3-.1-.4 0-.8.1-1.5.1-2.2 0-.2 0-.3.1-.5 0-.3.1-.7-.1-1-.3-.4-1.3-1-1.8-.8-.8.2-1.5.3-2.3.4-1 .1-2.1.3-3.1.4-.7.1-1.4.1-2 .1-.7 0-1.3.1-2 .1s-1.4.1-2.2.1c-.9 0-1.8 0-2.8.1-.1 0-.3 0-.4 0-.8 0-1.6-.1-2.3-.1-.3 0-.6 0-.9.1-.4 0-.8 0-1.2 0-.7.1-1.4.2-2.1.4-.3.1-.6.1-.8.2-.4.2-.6.6-.6 1.1-.1.4-.1.9-.1 1.3-.1.5-.2 1-.3 1.6-.1.5-.1.9-.1 1.4 0 .4-.1.7-.1 1.1v1.7c0 .6-.1 1.2-.1 1.8v.5c0 .8-.1 1.6-.1 2.4v3.7c0 1.8 0 3.5-.1 5.3 0 .6 0 1.3-.1 1.9 0 .5-.1 1-.1 1.5 0 .4 0 .8-.1 1.2 0 .6-.1 1.2-.1 1.8 0 .4 0 .9-.1 1.3 0 .4-.1.8-.1 1.2v1.7c0 .9-.1 1.7-.2 2.6 0 .4 0 .8-.1 1.1 0 .4-.1.8-.1 1.1 0 .4 0 .7-.1 1.1 0 .3-.1.6-.1.8-.1.5-.1 1.1-.1 1.6-.1.8-.2 1.5-.3 2.3-.1.5-.1 1.1-.1 1.6-.1.6-.2 1.2-.2 1.8v1.8 2.7c0 .1.1.3.1.4 0 .6-.1 1.1-.1 1.7 0 .3 0 .5-.1.8-.1.6-.1 1.2-.2 1.8-.1.5-.1 1-.1 1.5s-.1.9-.1 1.4v1.3c-.1 1.1-.1 2.2-.2 3.3 0 .2.1.4.1.5v1.7c0 .4.1.7.1 1.1 0 .8 0 1.6-.1 2.4v1.2c0 .4 0 .8-.1 1.1 0 .6-.1 1.1-.1 1.7s-.1 1.2-.1 1.8c-.1.7-.2 1.3-.2 2-.1.8-.1 1.6-.2 2.5 0 .6-.1 1.2-.2 1.8 0 .2 0 .4-.1.6 0 .5-.1 1-.1 1.5 0 .4 0 .8-.1 1.2 0 .5-.1 1.1-.1 1.6 0 .4 0 .9-.1 1.3 0 .3-.1.7-.1 1v1.6c0 .6-.1 1.2-.1 1.9v.6c0 .8 0 1.6-.1 2.4v1c0 1.4 0 2.8-.1 4.2v3.2c.1.5.1.6.1.7m-7.3 44c0 .2.1.4.1.6 0 .5-.1 1-.1 1.5 0 .1.1.2.1.3 0 .7-.1 1.3-.1 2 0 .1.1.3.1.4 0 .7-.1 1.4-.1 2.2v.7c0 .7 0 1.5-.1 2.2v1 4.2c0 .8.2.8.8 1 .1 0 .2.1.3.1.8.2 1.5.5 2.3.6.9.2 1.9.3 2.9.4s1.9.2 2.9.2c.5 0 1.1-.1 1.6-.1.7 0 1.5-.1 2.2-.1s1.4-.1 2.1-.1 1.4 0 2.1-.1c.4 0 .8-.1 1.2-.1h1.9c.3 0 .5 0 .8.1.3 0 .6.1.8.1.7 0 1.4-.1 2-.1s1.2 0 1.8-.1c.7 0 1.3-.1 2-.2.6-.1 1.1-.1 1.7-.1.6-.1 1.2-.1 1.9-.2.4 0 .6-.2.7-.6s0-.9.1-1.3c0-.2-.1-.4-.3-.4-.3 0-.5 0-.8 0-.4 0-.8 0-1.2.1-.3 0-.6.1-.9.2-.6.1-1.2.1-1.8.1-.5 0-1 .1-1.4.1-1.3 0-2.7 0-4 0-.5 0-1.1 0-1.6.1-.6 0-1.2 0-1.7.1-.6 0-1.2 0-1.8.1-.6 0-1.2 0-1.8.1-.4 0-.8.1-1.2.1-.5 0-1 0-1.5 0-.6 0-1.1.1-1.7.1s-1.1 0-1.7 0c-.5 0-.9-.1-1.2-.3-.9-.6-1.7-1.2-2.5-1.8-.2-.1-.4-.4-.4-.6-.1-.3 0-.6 0-.9 0-.6.1-1.3.1-1.9 0-.1-.1-.3-.1-.4 0-.6.1-1.3.1-1.9 0-.1-.1-.2-.1-.3 0-.5.1-1 .1-1.5 0-.1 0-.2 0-.4 0-.4.1-.8.1-1.2 0-.5.1-1 .1-1.6 0-.4 0-.7.1-1.1 0-.5 0-.9.1-1.4 0-.4.1-.9.1-1.3 0-.5 0-1 0-1.5 0-.6.1-1.1.1-1.7 0-.1 0-.2 0-.4 0-.7.1-1.4.1-2.2 0-.1 0-.3 0-.4 0-.7 0-1.4.1-2.1 0-.5 0-1.1 0-1.6 0-.9.1-1.9.1-2.8 0-2.1 0-4.1 0-6.2 0-.6 0-1.1.1-1.7.1-1 .2-1.9.3-2.9 0-.2 0-.5.1-.7 0-.3.1-.5.1-.8 0-.5 0-1 .1-1.5 0-.4.1-.8.1-1.2 0-.6 0-1.2 0-1.7 0-.4.1-.9.1-1.3 0-.1 0-.2 0-.4 0-.5.1-.9.1-1.4 0-.6 0-1.2 0-1.9 0-.6.1-1.2.1-1.7 0-.1-.1-.3 0-.4 0-.7.1-1.5.1-2.2 0-.5-.1-.9-.1-1.4 0-.9 0-1.8.1-2.7 0-.5 0-1 0-1.4 0-1.3 0-2.6.1-4 0-.3 0-.6 0-1 0-1.3 0-2.6.1-3.9 0-.3 0-.5 0-.8 0-.4 0-.7 0-1.1 0-.6.1-1.1.1-1.7 0-.1-.1-.2-.1-.4 0-.5.1-1 .1-1.4 0-.1-.1-.2 0-.4 0-.6.1-1.2.1-1.8 0-.1 0-.2 0-.3.1-.5.1-1 .2-1.6 0-.5 0-1 .1-1.5 0-.2 0-.4.1-.6 0-.5.1-1 .1-1.6 0-.4.1-.7.1-1.1.1-.7.2-1.4.3-2 .1-.5.1-.9.1-1.4s.1-1 .1-1.5c0-.7.1-1.4.1-2 0-1.5 0-3.1.1-4.6 0-.4 0-.8 0-1.2 0-1.4 0-2.7.1-4.1 0-.1 0-.2 0-.4 0-.7.1-1.5.1-2.2 0-.2 0-.3 0-.5 0-.9 0-1.7.1-2.6 0-.4 0-.8 0-1.1 0-.5.1-1 .1-1.5 0-.1 0-.2 0-.3 0-.5.1-1 .1-1.4 0-.1 0-.2 0-.3 0-.4.1-.8.1-1.2 0-.5 0-1 .1-1.5 0-.6.1-1.3.1-1.9 0-.7.1-1.3.1-2 0-.8.1-1.6.1-2.4 0-.5.1-1 .1-1.5.1-.6.1-1.3.2-1.9 0-.4 0-.8.1-1.3 0-.2 0-.5.1-.7 0-.3.1-.6.1-.9.1-.5.1-1 .1-1.5 0-.4.1-.8.1-1.3 0-.6.1-1.1.1-1.7s.1-1.2.2-1.8c0-.2 0-.5.1-.7 0-.5.1-1 .1-1.5 0-.4 0-.9.1-1.3 0-.3.1-.6.1-.9 0-.5 0-.9 0-1.4s.1-1.1.1-1.6c0-.4 0-.8 0-1.2 0-.7.1-1.3.1-2 0-.5 0-.9 0-1.4 0-.6.1-1.2.1-1.8 0-.1-.1-.2-.1-.4 0-.8.1-1.6.1-2.4 0-.2 0-.4 0-.7 0-.9 0-1.8.1-2.7 0-.3 0-.5 0-.8 0-1.1 0-2.2.1-3.2 0-.4 0-.7.1-1.1 0-.6.1-1.1.1-1.7 0-.4.1-.8.1-1.1s.1-.6.1-.9c.1-.9.5-1.6 1.3-2 1.1-.5 2.2-.8 3.4-.8h3.3 1.3c.8 0 1.6-.1 2.4-.1.5 0 1-.1 1.6-.1s1.2-.1 1.8-.1c.5 0 1-.1 1.4-.1.2 0 .5 0 .7-.1.7-.1 1.4-.1 2.1-.2.4 0 .8-.1 1.1-.1.4 0 .7-.1 1.1-.1.2 0 .5.1.7.1.5-.1 1-.2 1.5-.4.4-.1.8-.4.8-.9.1-.4.1-.8.1-1.3s.1-1 .1-1.5c.1-.6.1-1.3.2-1.9 0-.2 0-.4.1-.6.1-.7.2-1.4.2-2.1 0-.8 0-1.7-.1-2.5 0-.4 0-.8 0-1.2s0-.7 0-1.1 0-.8 0-1.1c-.1-.5-.8-1.3-1.5-1.2-.3 0-.7.1-1 .1-.8 0-1.7 0-2.5 0-.3 0-.5.1-.8.1s-.7 0-1 0c-.2 0-.4-.1-.6-.1-.5 0-.9.1-1.4.1-.2 0-.5.1-.7.2-.1 0-.2 0-.3 0-.6-.3-1.1-.5-1.8-.4-.6.1-1.1.2-1.7.4-.5.1-.9.2-1.4.3-.5 0-.9-.1-1.4-.1s-.9 0-1.4.1c-.7.1-1.4.1-2.2.3-1.1.2-2.1.5-3.2.6-.7 0-1.3.2-2 .2-.5 0-.9-.1-1.4-.1-.6-.1-1.1-.2-1.7-.3-.8-.3-1.4-.5-2-.4-.5 0-.9.2-1.3.6-.2.4-.4.7-.5 1.1 0 .5-.1.9-.1 1.4v1.4c-.1.3-.1.6-.1.9 0 .6 0 1.1-.1 1.7 0 .2 0 .5-.1.7 0 .6-.1 1.3-.1 1.9 0 .7 0 1.3.1 2 0 .3-.1.6-.1.9 0 .2.1.4.1.7s0 .6-.1 1c0 .3 0 .6-.1 1-.1.7-.2 1.4-.3 2.1-.1.5-.1 1.1-.1 1.6-.1.8-.2 1.8-.2 2.7 0 .5 0 1.1.1 1.6v2.4c0 .9 0 1.8.1 2.7.1.8 0 1.5.1 2.3 0 .3.1.6.1 1v3c0 1 .1 1.9.1 2.9v2.9c0 .7 0 1.3.1 2v1.7c0 .4.1.7.1 1.1 0 1.4 0 2.8-.1 4.3v2.1c0 .9-.1 1.7-.1 2.6 0 .7-.1 1.3-.1 2-.4.4-.4 1-.5 1.6 0 .4-.1.7-.1 1.1-.1.7-.2 1.4-.3 2.1-.1.5-.1 1-.1 1.4 0 .5-.1 1-.1 1.5s0 1.1-.1 1.6c0 .2 0 .4-.1.7 0 .6-.1 1.2-.1 1.9 0 .4 0 .9-.1 1.3 0 .3 0 .6-.1.9v.7c0 .6-.1 1.1-.1 1.7 0 .7.2 1.5.2 2.2 0 .5 0 1-.1 1.5 0 .7 0 1.4-.1 2.1 0 .1.1.3.1.4 0 .7-.1 1.3-.1 2v.7c0 .8-.1 1.6-.1 2.3s.1 1.3.2 2c0 .4.1.8.1 1.2 0 .5-.1 1-.1 1.4 0 .1.1.2.1.4 0 .5-.1 1-.1 1.6 0 .1.1.2.1.4 0 .7-.1 1.5-.1 2.2v.8c0 1.6 0 3.3-.1 4.9v1c0 .8-.1 1.7-.1 2.5 0 .6.1 1.1.1 1.7 0 1-.1 2-.1 3 0 .2.1.4.1.7 0 .9-.1 1.9-.1 2.8 0 .2.1.3.1.5 0 .6-.1 1.2-.1 1.8s-.1 1.3-.1 1.9c-.1.7-.2 1.4-.2 2.1 0 .4.1.8.1 1.3s0 1-.1 1.5c0 .1.1.3 0 .4-.1.6-.2 1.2-.2 1.9-.1.5-.1 1.1-.1 1.6s-.1 1.1-.1 1.6-.1 1-.1 1.5c0 .7-.1 1.4-.1 2v4.6c0 .9 0 1.8.1 2.7 0 .4 0 .9.1 1.3 0 .5 0 .9.1 1.4 0 .6.1 1.2.1 1.8 0 .8 0 1.6.1 2.4 0 .9 0 1.9.1 2.8v.6c-.1.7-.3 1.4-.8 1.9-.2.2-.3.5-.3.7-.1.7-.1 1.4-.1 2.1v1.6c0 .9 0 1.8-.1 2.7 0 .1.1.3.1.4 0 .6-.1 1.3-.1 1.9 0 .1.1.2.1.4 0 .7-.1 1.3-.1 2 0 .1.1.2.1.3 0 .5-.1 1-.1 1.6v.3c0 .5-.1 1-.1 1.4-.8.2-.8.7-.8 1.1m38-25.6c0-.3-.1-.7-.1-1 0-1.4 0-2.8 0-4.3 0-1 0-2-.1-3 0-.8 0-1.5-.1-2.3 0-.8.1-1.5.1-2.3 0-.6.1-1.2.1-1.7 0-.4 0-.8 0-1.2 0-.6.1-1.1.1-1.7 0-.3-.1-.7-.1-1 0-.6 0-1.2 0-1.8 0-.7-.1-1.4-.2-2.1-.1-.6-.1-1.3-.1-1.9-.1-.8-.2-1.6-.3-2.4-.1-.7-.1-1.4-.1-2.1 0-.5.1-1.1.1-1.6 0-.9 0-1.8 0-2.7 0-1.6 0-3.3 0-4.9 0-.7 0-1.5-.1-2.2 0-.3 0-.5 0-.8 0-.8-.1-1.6-.1-2.5 0-1.3 0-2.6.1-4 0-.1-.1-.3-.1-.4 0-.7.1-1.4.1-2.1 0-.1-.1-.3-.1-.4 0-.7.1-1.4.1-2.1 0-.1-.1-.2-.1-.3 0-.6.1-1.3.1-1.9 0-.1-.1-.2 0-.4 0-.6.1-1.3.1-1.9 0-.1-.1-.2-.1-.3 0-.6.1-1.2.1-1.9 0-.1-.1-.3-.1-.4 0-.5.1-1 .1-1.5 0-2.6 0-5.1 0-7.7 0-.1-.1-.3-.1-.4 0-.4.1-.8.1-1.3 0-.7.1-1.4.1-2.1 0-1 0-2 0-2.9 0-.6-.2-1.3-.2-1.9-.1-.5 0-1-.1-1.5 0-.7-.1-1.5-.1-2.2 0-.4 0-.8.1-1.2 0-.3 0-.5 0-.8 0-3.6 0-7.2.1-10.9 0-.6 0-1.1 0-1.7 0-.2 0-.5.1-.7 0-.5 0-1 .1-1.4 0-.5.1-1 .2-1.5.1-.6.1-1.1.1-1.7 0-.5.1-1 .1-1.4s0-.8.1-1.3c.1-.9.2-1.7.3-2.6.1-1.7.1-3.4.1-5.1 0-2.8 0-5.6 0-8.4 0-.2 0-.4.2-.4.2-.1.4.1.5.3.2.7.4 1.3.6 2 .3.2.4.2.6.2.4-.1.8-.2 1.1-.3.6-.2 1.2-.6 2-.6.2 0 .4-.3.5-.5.1-.1 0-.3 0-.4 0-.3 0-.7-.1-1 0-.4-.3-.5-.6-.5-.3-.1-.6 0-.8 0-.7.1-1.5.3-2.2.2-.3 0-.7-.1-1-.3-.3-.1-.5-.3-.7-.5-.1 0-.2-.1-.3 0 0 0-.1.1-.1.2 0 .3 0 .6-.1.9-.2.7-.2 1.4-.3 2.1 0 .2 0 .4-.1.6 0 .5 0 1-.1 1.4 0 .7-.1 1.4-.1 2.1 0 .5 0 1-.1 1.5 0 .4-.1.7-.1 1.1v1.6c0 .5-.1 1-.1 1.5 0 .1.1.2.1.3 0 .5-.1 1.1-.1 1.6v.3c0 .4-.1.9-.1 1.3 0 .5 0 1-.1 1.5 0 .7-.1 1.3-.1 2 0 .4 0 .9-.1 1.3 0 .6-.1 1.3-.1 1.9v1.6c0 .7-.1 1.3-.1 2v1.3c0 .7-.1 1.3-.1 2 0 .1.1.3.1.4 0 .7-.1 1.3-.1 2s.1 1.4.2 2.2c0 .7.1 1.3.1 2v5.6c0 .2.1.3.1.5v1.6c0 .6.1 1.2.2 1.8 0 .3 0 .6.1.9 0 .4.1.7.1 1.1 0 .8-.1 1.6-.1 2.4-.1.8-.1 1.5-.2 2.3v.5c0 .3-.1.6-.1.9 0 .5 0 .9-.1 1.4 0 .3 0 .6-.1 1 0 .5-.1 1-.1 1.5v1.6c0 .7-.1 1.3-.1 2 0 .1.1.2.1.3 0 .7-.1 1.3-.1 2v.6c0 .7 0 1.5-.1 2.2v.7c0 .8 0 1.7-.1 2.5v1.4c0 2.3 0 4.5-.1 6.8v.3c0 .2.1.4.1.5 0 .7-.1 1.4-.1 2.1 0 .1.1.2 0 .3 0 .5-.1 1-.1 1.5v1.6c0 1.1 0 2.2.1 3.3 0 .7 0 1.3.1 2 0 .5.1 1 .1 1.5 0 .6.1 1.3.1 1.9s0 1.3.1 1.9c0 .5 0 1.1.1 1.6 0 .6 0 1.2.1 1.8 0 .4.1.7.1 1.1v1.3c0 .6.1 1.3.1 1.9 0 5.6 0 11.2-.1 16.8 0 .1.1.3.1.4 0 .6-.1 1.1-.1 1.7v1.5 1.7c0 .5-.1 1-.1 1.5 0 .1.1.2 0 .4 0 .7-.1 1.3-.1 2v.3c0 .6-.1 1.2-.1 1.7v.5c0 1 0 1.9-.1 2.9 0 .5 0 1-.1 1.5 0 .2 0 .5-.1.7 0 .5-.1 1-.1 1.5-.1.5-.1 1-.2 1.5-.1.4-.1.9-.1 1.3 0 .5.2.6.7.6s1.1-.1 1.6-.1c.6-.1 1.1-.1 1.7-.2.7-.1 1.4-.2 2.1-.3.5 0 .9-.3 1-.7 0-.4.1-.8-.1-1.3-.1-.3-.2-.6-.6-.7-.5-.1-.9-.2-1.4-.2-1.1-.1-2.3.1-3.4-.1-.2 0-.3-.1-.5-.1.1-.1.2-.3.4-.4.5-.4.8-.9.8-1.5 0-.7 0-1.4 0-2.2 0-.9 0-1.8.1-2.7 0-.2 0-.5 0-.7 0-.7 0-1.4.1-2 0-.1-.1-.3-.1-.4 0-.7.1-1.5.1-2.2-.2-1.4-.2-2.7-.2-4m-36.5 43.8c.2.1.3.3.5.4.7.1 1.3.2 2 .3.4 0 .7 0 1.1.1.6 0 1.1.1 1.7.1.4 0 .8 0 1.2.1.6 0 1.2.1 1.8.1h1c.5 0 1.1.1 1.6.1.4 0 .9 0 1.3-.1.6 0 1.2 0 1.7-.1.7 0 1.3 0 2-.1.6 0 1.2 0 1.8-.1.4 0 .9 0 1.3-.1.5 0 .9-.1 1.4-.1h2.6c.7 0 1.5-.1 2.2-.1h2.5c.8 0 1.5 0 2.3-.1.4 0 .7 0 1-.3.1-.1.2-.2 0-.3-.2-.3-.5-.3-.8-.3-.5-.1-1-.1-1.5-.2-.5 0-.9 0-1.4 0-.7 0-1.3 0-2 .1-.4 0-.9.1-1.3.1-.3 0-.6.1-.8.1-.4 0-.7.1-1.1.1-.7 0-1.5-.1-2.2-.1-.9 0-1.8 0-2.7 0-.5 0-1 0-1.5.1-.6 0-1.3 0-1.9.1-.5 0-1 .1-1.5.1-2.3 0-4.6 0-6.9 0-.5 0-.9-.1-1.4-.1-.5-.1-1-.1-1.5-.2s-1-.1-1.5-.1c-.4 0-.9-.1-1.3-.1-.1 0-.1.1-.2.1 0 0 .1.1.1.1.2.2.3.3.4.4m34.6-23.4c-.5.2-.7.6-.7 1.1 0 1.8 0 3.7.1 5.5v1.6 1.1c-.1.7-.2 1.4-.2 2.1v1.7c0 .5.1.9.3 1.3.1.5.3 1 .5 1.5.1.1.2.3.4.1.1-.1.1-.4.1-.6 0-.3 0-.6-.1-.8 0-.4-.1-.7-.1-1.1 0-.5 0-.9 0-1.4s.1-1.1.2-1.6c0-.5 0-.9 0-1.4 0-.6.1-1.3.1-1.9 0-.3 0-.6 0-1s.1-.7.1-1.1c0-.5 0-1 0-1.4 0-.5 0-1 .1-1.5 0-.3.1-.6.1-.9.2-1-.1-1.4-.9-1.3m-22.5 18.6c-.3 0-.7 0-1 .1-.7.1-1.4.1-2.1.1-.4 0-.8.1-1.3 0-.6-.1-1.2-.2-1.9 0-.1 0-.3.1-.4.2.1.1.1.2.2.3 0 0 .1 0 .1.1.4.3.9.2 1.4.2.6 0 1.2-.1 1.8-.1s1.3 0 1.9-.1c.7 0 1.5 0 2.2-.1.5 0 1 0 1.4-.1.6 0 1.2 0 1.8-.1.6 0 1.2 0 1.8-.1.5 0 1.1 0 1.6-.1.6 0 1.2 0 1.8-.1.5 0 1-.1 1.5-.1.7-.1 1.5-.1 2.2-.1s1.5 0 2.2-.1c.5 0 1.1 0 1.6-.1.3-.1.6-.2.9-.4.1 0 .1-.1.1-.1 0-.1-.1-.1-.2-.1-.6-.1-1.2-.1-1.9-.1-.5 0-1 .1-1.5.1-.4 0-.8 0-1.3.1-.5 0-1 .1-1.5.1s-1 0-1.5.1c-.4 0-.9.1-1.3.1-.6 0-1.1 0-1.7.1-.6 0-1.2.1-1.8.1-.5 0-1 0-1.5 0-.6 0-1.3.1-1.9.1-.3 0-1 0-1.7.1m20.4.5c-.2-.1-.4-.3-.7-.4-.1-.1-.3-.1-.3.1 0 .5-.1 1 0 1.4.2.9.4 1.8.6 2.7 0 .2.5.5.7.4.3-.1 0-.3.1-.4 0-.1 0-.1 0-.2 0-.7 0-1.4 0-2.2 0-.2-.1-.3-.1-.5.1-.2 0-.6-.3-.9m1.9-1.6c-.1 0-.2 0-.2 0s-.1.1-.1.1c.1.1.1.1.2.1 0 0 0-.1.1-.2m-2.6.2c0-.1.1-.1.1-.2-.1 0-.1 0-.2 0 0 0 0 .1.1.2z"/><path d="m45.5 71.8c-.1.2-.2.3-.3.4-.3.6-.7.9-1.4 1s-1.4.2-2.1.3c-.6.1-1.1.1-1.6-.2h-.1s.1-.1.1-.1c.6-.3 1.2-.5 1.8-.6s1.2-.2 1.8-.4c1-.3 1.1-.8.8-1.7-.1-.2-.2-.4-.3-.5-.3-.4-.5-.5-1-.3-.7.2-1.4.3-2.1.4-.3 0-.6-.1-.9-.2-.1 0-.2-.1 0-.2 1-.5 2.1-.8 3.1-1.1.3-.1.6-.2.9.1.3.2.5.4.7.7.5.5.3 1.2.3 1.8v.4c.3-.1.3 0 .3.2z"/><path d="m27.3 139.6c-.3 0-.5 0-.7 0-.5-.1-.9-.5-.9-1-.1-.7.2-1.3.4-1.9 0-.1.1-.3.1-.4s0-.3-.1-.4c-.2 0-.4 0-.5 0-.5.4-.9.9-1.3 1.3-.8.8-1.5 1.7-2.3 2.4-.8.6-1 .5-1.7-.3s-1.3-1.7-1.9-2.5c-.4-.5-.8-.9-1.2-1.3-.3-.3-.5-.3-.6.1-.1.2-.1.5-.1.7 0 .5 0 .9-.1 1.4-.1.8-.2 1.7-.3 2.5 0 .2-.2.4-.4.5-.3.2-.7.3-1.1.2s-.8 0-1.2-.1c-.6-.1-1.3-.2-1.9-.3-.8-.1-1.3-.7-1.4-1.4-.2-.7-.1-1.4 0-2.2.1-.5.1-1 .2-1.5.1-.4.1-.9.1-1.3 0-.5 0-1.1.1-1.6 0-.5.1-1 .1-1.5 0-.4 0-.8.1-1.3.1-.6.2-1.3.3-1.9.1-.5.2-.9.2-1.4.2-1.1.3-2.3.8-3.4.2-.4.5-.5.9-.3.2.1.4.2.6.4 1 .9 1.9 1.9 2.9 2.8 1.1 1 2.1 2 3.2 3.1.3.3.5.6.8.9.4.5.9.4 1.2 0 .5-.7.9-1.4 1.4-2.1.4-.5.9-.9 1.3-1.3.5-.5 1-.9 1.5-1.4 1-1 2.1-1.9 3.1-2.8.2-.2.5-.4.7-.5.6-.4 1-.2 1 .5.1.7.1 1.4.2 2.1.1.6.1 1.2.1 1.8.1.6.1 1.2.2 1.8v1.1c0 .7 0 1.5.1 2.2v.7c0 .7.1 1.5.1 2.2 0 .1-.1.3-.1.4 0 .6.1 1.3.1 1.9 0 .7-.1 1.3-.2 2-.1.5-.5.6-.9.7-.9.2-1.7.4-2.6.6-.1-.2-.2-.2-.3-.2m-13.2-14.5c-.2-.2-.5-.5-.7-.7s-.4-.2-.6.1c-.1.2-.2.4-.2.7-.1.4-.1.9-.1 1.3-.1.6-.2 1.3-.3 1.9-.1.4-.1.9-.1 1.3 0 .3-.1.6-.1.9-.1.5-.1 1.1-.1 1.6-.1.5-.1 1-.2 1.5 0 .4 0 .8-.1 1.2 0 .3-.1.7-.1 1v1.1c0 .5 0 1-.1 1.5 0 .2 0 .3.1.5.1.4.5.6.8.6.6.1 1.1.2 1.7.3.2 0 .5 0 .7-.1.4-.1.6-.7.6-1.2 0-.4 0-.7 0-1.1.1-.7.2-1.4.3-2.1.1-.6.2-1.1.3-1.7s.4-.6.8-.2c.6.6 1.2 1.2 1.8 1.9.3.3.6.6.9 1 .2.2.3.4.5.6.4.5.9 1 1.4 1.5.2.2.4.2.6 0 .1-.1.3-.3.4-.4.5-.6 1-1.3 1.5-1.9.4-.4.7-.8 1.1-1.3.4-.6.9-.9 1.6-1.1h.2c.3.4.4.8.5 1.2 0 .4 0 .8-.1 1.2-.1.6-.2 1.2-.2 1.8 0 .2.2.4.4.6.1.1.3 0 .4 0 .4-.1.8-.3 1.2-.5.9-.4 1.4-.5 1.3-1.8 0-.4-.1-.9-.1-1.3 0-1.1 0-2.1 0-3.2 0-.5 0-1 0-1.5 0-2.2 0-4.5-.1-6.7 0-.2 0-.5-.1-.7 0-.1-.1-.2-.2-.1-.4.2-.9.4-1.3.7-.6.6-1.2 1.2-1.8 1.8-1 1-1.9 2-2.9 3-.4.4-.7.8-1 1.2-.4.6-.9 1.2-1.3 1.7s-.9.4-1.2 0c-.6-.6-1.1-1.2-1.7-1.8-1.4-1.3-2.9-2.7-4.4-4.3z"/><path d="m16.8 95.4c.5-.2.9-.2 1.4-.3.6 0 1.2-.1 1.8-.2.5 0 1 0 1.4-.1.3 0 .6 0 .8-.1.5 0 1 0 1.5-.1.4 0 .7 0 1.1-.1.5 0 1.1 0 1.6-.1.3 0 .6-.1.8-.1.7 0 1.1.3 1.1 1.1 0 .6 0 1.2.1 1.8 0 1.1-.7 1.8-1.7 1.9-.8.1-1.6.3-2.4.4-.7.1-1.4.2-2 .3-.4.1-.8.1-.9.6-.1.3.1.7.5.7.3 0 .7 0 1-.1.5-.1 1-.2 1.4-.2h1.9c1 0 1.2.4 1.5 1.1.3.8.3 1.6.3 2.4-.1.6-.5 1-1.1 1.1-.9.2-1.8.3-2.7.4-.5.1-1.1 0-1.6 0s-1 .1-1.5.2c-.3.1-.5.3-.4.6v.6c0 .3.2.4.5.4h.9c.3 0 .7-.1 1-.1.4-.1.9-.1 1.3-.2.4 0 .7-.1 1.1-.1.5-.1 1-.1 1.5-.2.4 0 1 .4 1.1.8.2.9.2 1.8-.3 2.6-.3.5-.7.7-1.2.9-.8.2-1.6.1-2.4.1-1.3 0-2.5.1-3.8.1-1 0-2 0-3.1-.1-.8 0-1.5-.2-1.9-.8-.2-.3-.4-.6-.4-1-.1-.5 0-1 .1-1.5.1-.6.2-1.2.3-1.8.1-.5.1-1 .1-1.5 0-.8 0-1.6.1-2.4 0-.8.1-1.6.1-2.3 0-.6.1-1.2.1-1.9 0-.8.1-1.5.2-2.3 0 0 .4-.3.8-.5m-.5 13.9v.5c-.2.9.2 1.5 1.1 1.5.5 0 1-.2 1.6-.2.8-.1 1.6-.1 2.4-.1.7 0 1.5 0 2.2-.1.4 0 .8 0 1.2-.1.4 0 .9 0 1.3-.1.3 0 .6-.2.7-.5.3-.5.5-1.1.7-1.7 0 0-.1-.2-.1-.2-.4-.1-.7-.1-1.1-.1-.5 0-1.1-.1-1.6-.1-.6 0-1.2.2-1.8.3-.3.1-.7.1-1 .2-.5.1-1.1.5-1.6-.1 0 0-.1-.1-.2-.1-.3-.2-.6-.3-.5-.8 0-.2 0-.5 0-.7 0-.3 0-.7.1-1 .1-.5.6-.6 1-.7s.9-.2 1.4-.2c.5-.1 1-.1 1.5-.1.3 0 .5 0 .8-.1.7-.1 1.5-.1 2.2-.2.4 0 .8-.5.7-.8-.1-.4-.3-.8-.4-1.1-.1-.2-.3-.4-.4-.4-.4-.1-.7-.1-1.1-.1-1.4 0-2.9 0-4.3 0-.4 0-.6-.2-.5-.6.1-.5 0-1 .1-1.4s.1-.8.4-1.1.6-.3 1-.4c.5-.1 1.1 0 1.6-.1.6 0 1.1-.1 1.7-.2.5-.1 1.1-.1 1.6-.2.4-.1.8-.4.8-.7 0-.5-.1-1-.1-1.4s-.2-.4-.5-.4c-.6.1-1.1.1-1.7.1-.7 0-1.4.1-2.1.1s-1.4.1-2 .1c-.2 0-.5.1-.7.1-.6.1-1.1.1-1.7.2-.3 0-.6 0-.8.1-.6.2-.9.8-.8 1.3v1.1 1c0 .5-.1.9-.1 1.4 0 .4-.1.7-.1 1.1v1.7c0 .4-.1.9-.1 1.3v1.4c0 .5-.1.9-.1 1.4-.6.4-.7.8-.7 1.2z"/><path d="m16.9 158.7c.8-1.6 1.5-3.1 2.3-4.6.4-.7.7-1.5 1.3-2 .2-.2.5-.4.8-.5s.7.1 1 .6c.4.8.7 1.6 1.1 2.4.2.6.5 1.1.7 1.7.5 1.1 1 2.3 1.5 3.4.3.8.7 1.6 1 2.4.4 1 .8 2 1.3 3 .5 1.2 1.1 2.3 1.6 3.4.2.5.4.9.4 1.5 0 .3-.3.6-.6.6-.7 0-1.4.2-2.1.4-.6.1-1.3.3-1.9 0-.4-.3-.8-.6-1-1.1-.5-1.3-1.4-1.8-2.7-2.2-1.4-.4-2.6.2-3.8.8-.3.2-.5.6-.7.9-.4.6-.8 1.3-1.2 1.9-.4.7-.9.9-1.7.6s-1.5-.6-2.2-.9c-.5-.2-.6-.5-.4-1 .3-.7.6-1.4 1-2.2.7-1.6 1.5-3.2 2.2-4.7.7-1.4 1.4-2.9 2.1-4.4m-2.2 7.8c-.1.3-.3.6-.4.9-.4.8-.8 1.7-1.1 2.6-.2.5-.1.8.4.9.7.2 1.5-.3 1.8-.9.1-.3.3-.7.5-.9.5-.6 1-1.2 1.6-1.8.3-.3.8-.5 1.2-.7.8-.3 1.6-.2 2.4-.3h2.5c.5 0 .8.2 1.2.5.3.3.4.8.4 1.2.1.5.1.9.4 1.3.1.2.3.4.6.3.4-.1.9-.2 1.4-.3.4-.1.5-.3.4-.7 0-.1-.1-.2-.1-.3-.3-.8-.7-1.7-1-2.5-.4-.9-.7-1.9-1.1-2.8s-.7-1.8-1.1-2.8c-.5-1.1-.9-2.3-1.4-3.4-.4-.9-.7-1.8-1.1-2.7-.1-.4-.3-.7-.5-1.1-.2-.5-.3-.5-.6-.1-.4.7-.7 1.5-1.1 2.3-.7 1.5-1.4 3.1-2.1 4.6-.5 1-1 2-1.5 3.1-.7 1.3-1.2 2.4-1.7 3.6z"/><path d="m19.2 85.4c-.5 0-1.1 0-1.6 0-.6 0-1.3-.2-1.8-.7-.3-.3-.5-.7-.5-1.2 0-.7 0-1.4.1-2.1 0-.8 0-1.5.1-2.3 0-.8.1-1.6.1-2.4 0-.5.1-1 .1-1.6 0-.5 0-1 .1-1.5.1-.7.2-1.3.3-2 .1-.3.2-.6.2-.9.2-.8 1-1 1.7-.6 1.6 1 3.1 2.1 4.6 3.1.7.4 1.3.9 2 1.3.1.1.2.1.4.1s.3-.1.3-.3c0-.9-.1-1.7-.1-2.6 0-.6.2-1.2.3-1.8.1-.3.6-.6 1-.6.6 0 1.2-.2 1.8-.1.7.1 1.5 0 2 .7.2.3.3.6.3.9-.1.9-.2 1.7-.3 2.6-.1.7-.2 1.5-.3 2.2-.1.6-.1 1.2-.2 1.8-.1.7-.1 1.4-.1 2.1 0 .5.1 1.1 0 1.6-.1.8 0 1.6-.2 2.4-.2.7-.5.9-1.2.6-.6-.2-1.1-.7-1.6-1.1-.7-.6-1.3-1.1-2-1.7-.6-.5-1.2-1-1.8-1.5s-1.2-.9-1.8-1.4c-.2-.2-.4-.1-.4.2-.1.5-.2 1-.2 1.5 0 .9 0 1.8-.1 2.6 0 .5 0 .9-.1 1.4 0 .9-.3 1.2-1.1 1.3m9.5-4.2c0-.2 0-.4 0-.6 0-.5.1-1 .1-1.5 0-.1-.1-.2 0-.4.1-.9.1-1.8.2-2.7 0-.3 0-.7.1-1 .1-.5.1-1 .2-1.4.2-.9.4-1.8.7-2.7.1-.3.1-.4-.3-.4-.8 0-1.5 0-2.3 0-.5 0-.8.3-.8.8v4.5c0 .7-.3.9-.9.7-.2-.1-.5-.2-.7-.3-1.1-.7-2.3-1.3-3.4-2-.8-.5-1.6-1.1-2.4-1.6-.4-.2-.7-.5-1-.8-.4-.3-.6-.2-.7.2-.2 1.1-.3 2.2-.5 3.2-.1.8-.2 1.6-.2 2.4-.1 1.2-.1 2.4-.1 3.6 0 .1.1.2.1.3 0 .8-.1 1.7-.1 2.5 0 .4.2.6.5.7.6 0 1.1.1 1.7 0 .3 0 .5-.3.6-.6.1-.8.1-1.6.2-2.4 0-.4 0-.8 0-1.2 0-.5.1-1 .1-1.5 0-.3 0-.7.1-1 0-.2.1-.5.4-.5.4-.1.7-.1 1 .1.7.5 1.3 1 2 1.5 1.1.8 2.2 1.7 3.3 2.5.6.5 1.2.9 1.8 1.4.1 0 .2.1.2.1.1-.1.1-.2.1-.3-.1-.6-.1-1.1 0-1.6z"/><path d="m21.9 23.3c.8-.2 1.5-.4 2.3-.6.3-.1.6 0 .8.1.7.1 1.3.2 1.9.4 1.2.3 2.3.7 3.5 1.1.6.2 1 .7 1.2 1.3.1.2 0 .4 0 .6-.2.7-.5 1.1-1 1.5-.3.3-.7.2-1.1.1-.6-.2-1.1-.6-1.7-.8s-1.3-.5-1.9-.6c-1.2-.1-2.3.2-3.3 1-.9.6-1.5 1.4-1.8 2.5-.2.6-.1 1.2.1 1.8.2.4.4.9.6 1.3.3.5.7.8 1.3.9.8.1 1.5-.1 2.2-.3.9-.2 1.8-.4 2.8-.7.5-.1 1.1-.3 1.6-.3.7-.1 1.6.5 1.8 1.3.3 1.1.2 2.2-.4 3.2-.2.4-.6.7-1 .9-.8.5-1.6.8-2.5 1.1-.4.1-.9.2-1.3.2-.8 0-1.7 0-2.5 0-.2 0-.4-.1-.6-.1-.1 0-.2-.1-.2-.1.1-.1.1-.2.2-.2.4-.1.7-.2 1.1-.2.5 0 1.1 0 1.7-.1 1.4-.1 2.6-.7 3.8-1.5.1-.1.2-.1.3-.1.4-.1.5-.4.6-.7 0-.1 0-.1 0-.2-.1 0-.2-.1-.3 0-.7.3-1.4.7-2.1 1-.8.4-1.7.7-2.6.8-.6.1-1.2 0-1.8-.1-.1 0-.3 0-.4 0-.7 0-1.5 0-2.2 0-.2 0-.5 0-.7-.1-.5-.1-.9-.1-1.4-.3-.9-.4-1.5-1-1.9-1.8s-.7-1.6-.7-2.5c0-.3-.1-.7-.2-1 0-.2 0-.4.1-.6.1-1.2.4-2.5 1-3.6.3-.6.7-1.2 1.2-1.8.6-.7 1.4-1.4 2.1-2 .4-.3.9-.5 1.4-.8m-3.2 4.1c-.3.7-.7 1.4-1 2.1-.4.9-.5 1.9-.4 2.8 0 .4.1.8.3 1.2.4 1.3 1 2.3 2.2 2.8 1 .5 2.1.6 3.2.7.4 0 .9-.1 1.3 0 .6.1 1.1-.1 1.7-.2 1.3-.4 2.5-1 3.6-1.7.3-.2.6-.4.8-.6.1-.1.1-.4.1-.4-.5-.5-1-.8-1.8-.8-.6 0-1.1.4-1.7.6s-1.3.4-1.9.6c-.5.1-1 .2-1.6.2-.5 0-1 0-1.4-.2-.5-.2-.9-.6-1.2-1-.6-.9-1-1.8-1.1-2.8 0-.3.1-.7.3-1 .5-1.5 1.5-2.8 3-3.5 1-.5 2.1-.8 3.3-.4.7.2 1.4.4 2.1.7.9.4 1.7.3 2.5-.3.4-.3.4-.4.1-.7-.5-.3-1-.6-1.5-.9-1.1-.6-2.2-.8-3.4-.8-.7 0-1.3 0-2 .1-.8.1-1.6.3-2.3.7-1.5.4-2.4 1.5-3.2 2.8z"/><path d="m21.5 52c0-.7 0-1.3.1-1.9.1-1 .1-1.9.4-2.9.3-.7.7-1.2 1.5-1.3s1.5.1 2 .7c.4.4.7 1 .7 1.6 0 1.1 0 2.1.1 3.2 0 .4 0 .8-.1 1.3 0 .7-.1 1.3-.1 2 0 .3 0 .7-.1 1-.1.9-.1 1.8-.2 2.7 0 .4-.1.7-.1 1.1 0 .7-.6 1.1-1.2 1.3-.5.1-1.1.1-1.6 0-.3-.1-.7-.1-1-.1-.5-.1-.9-.6-.9-1.2 0-.5 0-1.1.1-1.6 0-.7.1-1.4.1-2.1 0-.5 0-1 .1-1.5 0-.4.1-.9.1-1.3.1-.4.1-.7.1-1m.8 2.5c0 .6 0 1.3-.1 1.9 0 .1.1.3.1.4 0 .8-.1 1.7-.1 2.5 0 .1.1.3.3.4.5.3 1.1.4 1.7.3.4 0 .5-.2.5-.4.1-.7.1-1.3.2-2 0-.5.1-.9.1-1.4 0-.3.1-.6.1-.9.1-.6.1-1.3.2-1.9s.2-1.1-.1-1.7c-.1-.3-.1-.6-.1-.9.1-.7.2-1.4.2-2.1 0-.4-.1-.7-.4-.9-.4-.3-.8-.6-1.2-.8s-.9 0-1 .4c-.1.7-.2 1.4-.3 2.2v.8c0 .9-.1 1.9-.1 2.8z"/><path d="m19.5 161.1c.2-.3.3-.5.5-.8.3-.4.7-.4.9 0 .3.6.6 1.3.9 1.9.1.2.2.4.2.6 0 .1 0 .2-.1.2-.5 0-.9.1-1.4.1-.4 0-.7-.1-1.1-.2s-.5-.4-.4-.8c.2-.3.4-.7.5-1z"/></g></svg>